{"glyphs":{"0":{"ha":930,"x_min":90,"x_max":878,"o":"m 492 1150 q 787 1035 673 1150 q 878 707 878 940 q 872 585 878 650 q 770 194 850 324 q 431 19 663 19 q 90 476 90 19 q 94 581 90 525 q 492 1150 136 1150 m 562 949 q 506 956 533 956 q 331 850 403 956 q 251 651 278 772 q 232 492 232 564 q 362 231 232 296 q 434 213 396 213 q 563 258 494 213 q 715 517 673 330 q 738 693 738 616 q 562 949 738 907 z "},"1":{"ha":745,"x_min":50,"x_max":699,"o":"m 396 1081 q 420 1082 408 1082 q 452 1080 437 1082 q 490 1048 491 1073 q 476 635 469 836 q 488 222 484 426 q 601 231 526 225 q 669 205 643 233 q 699 136 696 178 l 699 132 q 675 64 699 91 q 608 34 650 34 q 505 35 570 34 q 401 37 431 37 q 92 20 274 37 l 90 20 q 57 60 66 20 q 50 121 50 87 q 96 221 52 227 q 312 212 210 208 q 326 499 320 350 q 320 803 332 652 q 298 826 317 826 q 250 807 281 826 q 175 777 198 777 q 164 780 168 777 q 119 852 130 798 q 117 883 117 869 q 130 921 117 910 q 251 1001 138 929 q 396 1081 311 1039 z "},"2":{"ha":906,"x_min":54,"x_max":856,"o":"m 490 423 q 311 186 301 377 q 705 205 373 184 q 779 181 749 208 q 811 110 810 155 q 785 37 812 65 q 713 8 758 8 q 604 9 674 8 q 495 11 526 11 q 164 -5 362 11 l 160 -5 q 119 84 121 -5 q 122 208 118 170 q 351 571 151 477 q 474 610 391 590 q 597 650 557 631 q 675 742 675 685 q 605 867 675 821 q 461 903 543 907 q 258 838 340 898 q 214 781 218 810 q 228 716 210 753 q 232 700 232 708 q 179 648 232 671 q 141 639 159 639 q 54 841 72 639 l 54 850 q 168 1006 54 930 q 408 1074 270 1074 q 605 1059 458 1074 q 750 991 703 1048 q 856 773 852 871 l 856 761 q 739 537 856 629 q 490 423 644 461 z "},"3":{"ha":911,"x_min":72,"x_max":841,"o":"m 705 617 q 829 471 792 568 q 841 392 841 435 q 798 210 841 315 q 553 46 755 106 q 385 14 469 20 q 330 11 355 11 q 248 20 282 11 q 100 119 140 52 q 72 277 72 172 l 72 296 q 151 365 75 373 q 210 342 198 358 q 216 301 217 332 q 225 248 214 270 q 297 203 239 218 q 385 191 339 191 q 498 208 438 191 q 640 317 614 240 q 656 400 656 366 q 617 476 656 456 q 461 506 551 510 q 328 483 418 496 q 212 566 227 476 q 209 590 209 578 q 290 669 209 659 q 411 681 350 675 q 529 705 480 689 q 624 806 624 736 q 612 860 624 830 q 439 932 582 936 q 229 863 297 928 q 148 825 182 817 q 85 939 76 840 q 118 1005 90 981 q 282 1084 179 1057 q 454 1105 368 1105 l 465 1105 q 768 972 699 1100 q 814 819 814 888 q 705 617 814 705 z "},"4":{"ha":873,"x_min":64,"x_max":848,"o":"m 757 100 q 663 43 757 56 q 636 41 650 41 q 572 76 570 41 q 579 203 575 119 l 587 324 q 141 308 354 324 q 73 384 95 304 q 64 452 64 423 q 72 498 64 479 l 216 807 q 330 1112 274 936 q 369 1135 336 1133 l 387 1135 q 495 1101 449 1135 q 509 1062 518 1082 q 373 785 399 842 q 266 496 302 631 q 595 511 365 495 q 578 890 595 719 q 670 947 574 933 q 697 948 684 948 q 764 914 766 948 q 749 608 749 747 q 750 517 749 562 q 846 410 837 496 q 848 395 848 401 q 754 321 848 321 l 755 216 q 757 100 757 161 z "},"5":{"ha":867,"x_min":64,"x_max":831,"o":"m 95 964 q 119 1042 92 998 q 179 1082 146 1086 q 412 1074 313 1066 l 681 1093 l 689 1093 q 755 1069 728 1093 q 787 997 784 1042 q 761 924 788 952 q 689 895 734 895 q 503 898 570 894 q 271 891 430 902 q 264 810 267 850 q 266 736 262 769 q 369 699 266 690 q 727 620 593 715 q 831 415 831 545 q 789 235 831 339 q 544 69 746 132 q 377 37 460 43 q 327 34 351 34 q 240 45 277 34 q 94 144 129 76 q 64 320 69 191 q 142 389 69 397 q 209 339 214 380 q 208 319 208 328 q 274 232 208 254 q 376 216 323 216 q 488 232 430 216 q 631 342 605 264 q 646 422 646 388 q 631 476 646 456 q 468 532 587 532 q 407 528 438 532 q 282 515 330 519 q 168 525 217 510 q 96 598 100 544 q 91 802 90 703 q 95 964 91 905 z "},"6":{"ha":941,"x_min":68,"x_max":876,"o":"m 509 1088 q 707 1029 633 1088 q 822 854 774 977 q 829 827 829 841 q 788 760 829 795 q 741 736 761 736 q 700 766 716 736 q 555 897 642 876 q 488 905 519 905 q 313 811 384 905 q 227 529 222 689 q 433 640 312 612 q 557 655 498 655 q 658 644 609 655 q 853 499 810 609 q 876 377 876 439 q 860 273 876 326 q 716 60 819 142 q 477 -27 609 -27 q 160 157 269 -27 q 68 533 71 308 l 68 544 q 172 913 68 762 q 509 1088 293 1088 m 258 305 q 475 155 326 155 q 692 273 601 155 q 715 362 715 326 q 690 422 715 400 q 559 457 642 463 q 391 411 476 450 q 258 305 296 366 z "},"7":{"ha":840,"x_min":68,"x_max":800,"o":"m 635 1111 q 666 1116 648 1116 q 743 1099 699 1116 q 796 1048 796 1077 q 793 1034 796 1042 q 643 670 713 865 q 696 673 652 670 q 768 649 739 675 q 800 578 798 623 l 800 574 q 774 505 800 532 q 704 476 747 476 q 639 477 682 476 l 574 477 l 496 255 q 418 37 453 129 q 374 11 408 14 q 351 9 362 9 q 247 46 290 9 q 235 90 224 65 l 316 278 q 400 477 358 374 q 153 463 277 473 q 115 502 126 460 q 109 563 109 529 q 159 662 110 667 q 313 652 240 652 q 471 658 388 652 q 560 917 519 792 l 391 917 q 113 901 296 917 q 75 940 85 898 q 68 1002 68 967 q 117 1101 69 1107 q 359 1093 243 1086 q 635 1111 475 1099 z "},"8":{"ha":960,"x_min":87,"x_max":898,"o":"m 640 905 q 438 940 568 937 q 271 863 308 943 q 263 831 263 846 q 331 764 263 788 q 509 722 422 730 q 631 774 587 727 q 655 837 655 800 q 640 905 655 867 m 758 685 q 898 441 898 631 l 898 426 q 867 263 897 343 q 780 123 834 178 q 636 60 732 77 q 476 45 606 54 q 433 43 454 43 q 197 110 296 43 q 90 282 90 182 q 91 298 90 290 l 90 298 q 87 330 87 315 q 255 566 87 445 q 225 578 239 571 q 111 680 151 612 q 91 769 91 716 q 106 865 91 812 q 240 1050 140 987 q 464 1107 331 1107 q 624 1084 541 1107 q 769 1015 712 1058 q 773 1012 769 1012 l 774 1012 q 842 878 842 947 q 758 685 842 789 m 260 378 q 251 342 251 359 q 293 275 251 305 q 488 216 377 214 q 656 258 589 216 q 735 404 736 309 q 673 509 735 491 q 557 524 618 524 q 442 513 503 524 q 260 378 311 488 z "},"9":{"ha":955,"x_min":72,"x_max":882,"o":"m 439 1 q 241 60 315 1 q 127 235 175 113 q 119 262 119 248 q 160 330 119 294 q 209 353 187 353 q 248 323 232 353 q 393 193 305 214 q 457 184 426 184 q 651 296 570 184 q 726 514 726 399 q 723 560 726 537 q 515 449 636 476 q 392 434 452 434 q 290 445 339 434 q 95 590 138 480 q 72 711 72 648 q 227 1025 72 886 q 471 1116 330 1116 q 788 932 678 1116 q 882 556 879 780 l 882 545 q 776 178 882 328 q 439 1 655 1 m 692 784 q 476 933 621 933 q 256 817 346 933 q 232 726 232 762 q 256 667 232 688 q 388 632 305 625 q 556 677 471 637 q 692 784 651 722 z "}," ":{"ha":437,"x_min":0,"x_max":0,"o":""},"!":{"ha":465,"x_min":122,"x_max":423,"o":"m 174 8 q 127 110 141 47 q 122 151 122 132 q 138 206 122 184 q 209 231 149 222 q 286 224 269 237 q 330 132 323 195 q 321 27 335 65 q 252 -8 312 0 q 225 -9 237 -9 q 174 8 189 -9 m 210 1146 q 319 1184 209 1180 l 331 1184 q 380 1180 357 1184 q 423 1156 423 1173 l 423 1153 q 374 785 392 1008 q 346 416 349 442 q 247 380 342 381 q 194 384 217 378 q 160 412 156 392 q 210 1146 222 758 z "},"\"":{"ha":652,"x_min":115,"x_max":574,"o":"m 288 1104 q 285 917 294 1039 q 277 727 274 784 q 260 684 278 697 q 216 671 244 671 l 205 671 q 126 736 130 674 q 115 1118 123 864 l 115 1122 q 134 1169 115 1154 q 184 1181 151 1181 l 197 1181 q 288 1104 281 1173 m 571 1104 q 574 1040 574 1077 q 568 917 574 989 q 562 727 559 784 q 545 684 563 697 q 500 671 529 671 l 490 671 q 410 736 414 674 q 400 1118 408 864 q 419 1169 399 1153 q 468 1181 435 1181 l 480 1181 q 571 1104 564 1173 z "},"#":{"ha":1059,"x_min":68,"x_max":1009,"o":"m 127 581 q 80 616 95 579 q 71 681 69 643 q 83 746 71 718 q 133 780 100 783 q 273 772 208 773 q 256 1016 267 907 q 349 1073 252 1059 q 376 1074 362 1074 q 442 1040 445 1074 q 429 772 430 906 q 600 779 525 772 q 583 1016 595 902 q 675 1073 579 1059 q 703 1074 689 1074 q 769 1040 772 1074 q 757 787 757 911 q 830 791 780 788 q 920 770 882 793 q 967 696 964 745 q 928 618 970 646 q 840 594 891 594 l 758 594 q 760 544 758 578 l 760 494 q 868 499 739 494 q 960 480 921 502 q 1009 404 1008 454 l 1009 401 q 966 326 1009 353 q 875 302 928 302 l 765 302 q 769 94 769 197 q 674 35 769 47 q 648 33 661 33 q 583 68 581 33 q 597 305 587 146 l 518 305 q 438 304 465 304 q 442 94 442 198 q 347 35 442 47 q 321 33 334 33 q 256 68 255 33 q 269 296 260 142 q 133 288 198 293 q 83 321 100 285 q 68 387 69 350 l 68 393 q 79 450 68 426 q 126 486 94 488 q 274 477 218 479 q 275 533 274 496 l 275 589 q 127 581 231 586 m 604 597 l 517 597 q 430 595 458 595 q 431 536 430 575 q 433 477 433 498 q 602 486 511 479 q 604 541 602 505 l 604 597 z "},"$":{"ha":972,"x_min":62,"x_max":914,"o":"m 655 865 q 549 905 621 891 q 548 774 548 840 l 549 643 q 670 650 610 650 q 788 643 730 650 q 914 463 906 629 l 914 445 q 812 194 914 309 q 562 42 711 83 l 562 -28 q 528 -80 562 -58 q 467 -104 500 -98 q 441 -106 453 -106 q 376 -61 372 -106 q 377 -16 376 -38 l 380 28 q 92 202 155 47 q 83 248 83 227 q 121 317 83 289 q 164 332 142 332 q 236 289 201 332 q 387 198 292 221 q 395 456 389 328 q 201 492 274 458 q 62 696 62 556 q 72 780 62 734 q 179 985 98 903 q 382 1089 260 1066 q 376 1176 380 1118 q 468 1251 372 1233 q 495 1252 481 1252 q 562 1208 564 1252 q 555 1090 555 1111 q 739 998 674 1066 q 755 962 755 986 q 738 901 755 937 q 688 852 716 852 q 655 865 673 852 m 391 905 q 237 777 269 876 q 233 751 233 764 q 294 674 233 707 q 396 640 339 650 q 391 905 396 769 m 559 212 q 760 396 728 279 q 762 414 762 406 q 699 463 762 456 q 613 467 655 467 q 553 464 583 467 q 559 212 553 461 z "},"%":{"ha":1426,"x_min":47,"x_max":1385,"o":"m 1173 477 q 1096 496 1141 496 q 996 479 1053 496 q 872 363 882 442 q 954 292 864 298 q 1009 289 982 289 q 1123 300 1069 289 q 1218 380 1191 324 q 1226 408 1226 395 q 1173 477 1226 446 m 243 1017 q 441 1077 302 1044 q 647 1123 545 1100 q 849 1169 749 1146 q 1048 1202 983 1198 l 1051 1202 q 1172 1176 1086 1202 q 1234 1124 1234 1156 q 1225 1099 1234 1112 q 918 608 1101 921 q 1107 646 1008 644 q 1381 499 1358 650 q 1385 456 1385 477 q 1354 331 1385 392 q 943 100 1244 111 q 801 147 857 98 q 730 282 745 197 q 532 -61 665 167 q 491 -80 521 -80 l 484 -80 q 365 -24 408 -73 q 359 20 346 -1 q 821 751 601 377 q 971 1019 903 891 q 666 987 774 1006 q 712 869 712 939 q 681 738 712 799 q 266 505 568 515 q 107 568 168 500 q 47 731 50 631 l 47 742 q 243 1017 47 932 m 499 884 q 420 903 467 903 q 320 886 377 903 q 195 770 205 850 q 278 699 187 705 q 334 696 307 696 q 449 707 393 696 q 545 787 517 731 q 552 815 552 802 q 499 884 552 853 z "},"&":{"ha":892,"x_min":60,"x_max":829,"o":"m 195 494 q 72 640 107 543 q 60 718 60 674 q 102 901 60 795 q 403 1081 149 1020 q 397 1147 400 1095 q 490 1222 395 1206 q 517 1223 503 1223 q 583 1180 587 1223 q 578 1101 582 1158 q 652 1090 624 1099 q 799 991 764 1059 q 829 817 826 941 q 750 746 823 736 q 684 796 675 754 q 618 903 692 879 q 515 920 570 920 q 403 903 463 920 q 260 795 286 871 q 244 709 244 745 q 283 636 244 655 q 439 606 347 602 q 574 629 507 623 q 689 547 673 639 q 690 521 690 533 q 610 442 690 453 q 490 430 551 435 q 372 406 419 420 q 277 308 277 373 q 289 252 277 283 q 461 179 320 175 q 671 250 602 183 q 751 286 718 294 q 815 172 822 269 q 783 107 811 130 q 582 20 709 46 q 583 -19 582 7 l 583 -57 q 549 -109 583 -87 q 488 -133 522 -126 q 463 -134 475 -134 q 397 -90 393 -134 q 399 -41 397 -65 l 401 8 q 133 140 198 20 q 87 293 87 225 q 195 494 87 406 z "},"'":{"ha":464,"x_min":123,"x_max":410,"o":"m 239 1141 q 309 1194 243 1194 q 381 1172 350 1194 q 410 1122 410 1152 q 408 1108 410 1115 q 279 747 373 922 q 209 704 256 704 q 176 708 194 704 q 123 751 123 720 q 132 779 123 764 q 210 954 187 879 q 239 1141 232 1029 z "},"(":{"ha":647,"x_min":41,"x_max":620,"o":"m 407 1188 q 488 1210 448 1210 q 509 1208 499 1210 q 614 1120 618 1194 q 559 1062 612 1086 q 309 861 404 989 q 208 560 208 723 q 321 245 208 385 q 594 45 423 121 q 620 11 620 34 q 618 0 620 5 q 528 -100 606 -66 q 498 -107 513 -107 q 463 -98 479 -107 q 41 560 41 151 q 163 956 41 772 q 407 1188 267 1112 z "},")":{"ha":720,"x_min":83,"x_max":663,"o":"m 296 -84 q 212 -106 254 -106 l 194 -106 q 123 -80 152 -100 q 90 -19 87 -56 q 144 39 91 14 q 393 241 300 114 q 495 543 495 378 q 381 856 495 715 q 109 1058 279 983 q 83 1093 83 1069 q 84 1101 83 1097 q 175 1203 96 1171 q 208 1210 193 1210 q 240 1202 225 1210 q 663 544 663 951 q 540 146 663 330 q 296 -84 434 -9 z "},"*":{"ha":948,"x_min":69,"x_max":906,"o":"m 122 709 q 79 746 92 707 q 69 802 69 772 l 69 810 q 127 910 73 916 q 317 901 233 901 q 240 1001 304 918 q 213 1088 205 1047 q 252 1153 221 1130 q 312 1171 278 1171 l 324 1171 q 399 1118 366 1165 q 435 1063 416 1092 l 449 1043 q 491 977 471 1009 q 536 1039 513 1006 l 585 1108 q 661 1160 617 1154 q 733 1141 703 1164 q 772 1078 764 1119 q 743 991 779 1036 q 711 951 732 978 l 681 914 l 728 917 q 779 921 745 918 q 865 898 827 924 q 906 825 903 872 l 906 821 q 873 750 906 774 q 788 723 838 723 l 724 723 q 667 724 694 723 q 758 608 690 693 q 749 552 776 586 q 701 510 730 528 q 635 483 669 488 q 621 481 628 481 q 589 500 600 481 q 487 670 548 576 q 363 496 438 608 q 336 481 354 481 q 316 486 327 481 q 208 576 241 507 q 210 627 191 608 q 297 720 262 678 q 122 709 239 718 z "},"+":{"ha":814,"x_min":64,"x_max":754,"o":"m 107 454 q 71 494 81 452 q 64 555 64 519 q 113 654 65 659 q 336 646 227 642 q 328 852 334 704 q 427 899 326 899 q 487 891 460 899 q 525 852 528 878 q 511 655 511 753 q 650 665 557 658 q 722 641 693 667 q 754 570 751 614 l 754 566 q 728 496 754 524 q 658 468 701 468 q 586 469 633 468 l 515 469 l 524 279 q 498 203 525 233 q 426 174 471 174 q 353 203 380 174 q 327 279 326 233 q 334 469 327 374 l 235 464 q 107 454 195 461 z "},",":{"ha":463,"x_min":119,"x_max":406,"o":"m 235 270 q 307 323 239 323 q 377 301 346 323 q 406 251 406 281 q 404 237 406 244 q 277 -122 368 43 q 205 -164 254 -164 q 172 -161 190 -164 q 119 -118 119 -149 q 127 -91 119 -106 q 206 83 184 11 q 235 270 228 155 z "},"-":{"ha":754,"x_min":103,"x_max":666,"o":"m 142 418 l 140 418 q 103 517 107 418 l 103 528 q 109 575 103 552 q 138 614 117 618 q 343 608 243 598 l 582 628 l 589 628 q 643 602 623 628 q 666 533 665 574 q 647 464 666 492 q 586 431 625 431 q 411 434 473 430 q 142 418 338 438 z "},".":{"ha":397,"x_min":142,"x_max":351,"o":"m 194 38 q 148 140 161 79 q 142 180 142 161 q 159 235 142 213 q 229 260 171 252 q 264 263 250 263 q 308 254 296 263 q 350 161 343 225 q 351 127 351 144 q 342 57 351 87 q 273 20 331 28 q 245 18 258 18 q 194 38 209 18 z "},"/":{"ha":880,"x_min":22,"x_max":897,"o":"m 719 1183 q 758 1203 728 1203 l 762 1203 q 884 1145 836 1198 q 897 1116 897 1130 q 891 1100 897 1108 q 533 524 773 933 q 198 -60 423 328 q 159 -79 187 -79 l 152 -79 q 34 -23 76 -72 q 22 4 22 -8 q 27 22 22 14 q 302 453 260 385 q 567 892 457 700 q 719 1183 661 1058 z "},":":{"ha":393,"x_min":90,"x_max":327,"o":"m 140 111 q 95 213 109 152 q 90 254 90 235 q 106 309 90 288 q 176 334 117 326 q 254 327 236 340 q 297 235 290 298 q 288 130 302 172 q 220 94 278 102 q 191 91 205 91 q 140 111 155 91 m 145 541 q 123 604 130 570 q 134 699 110 665 q 205 724 146 716 q 240 727 225 727 q 282 718 270 727 q 326 625 319 689 q 327 590 327 606 q 317 521 327 549 q 248 484 308 492 q 184 490 205 477 q 145 541 164 502 z "},";":{"ha":446,"x_min":50,"x_max":347,"o":"m 165 541 q 144 604 152 570 q 155 699 130 665 q 227 724 168 716 q 262 727 247 727 q 302 718 292 727 q 346 625 339 688 q 347 590 347 606 q 338 521 347 549 q 269 484 328 492 q 205 490 227 477 q 165 541 184 502 m 165 270 q 237 323 170 323 q 308 301 277 323 q 335 237 343 275 q 208 -122 298 43 q 136 -164 184 -164 q 103 -161 121 -164 q 50 -118 50 -149 q 58 -91 50 -106 q 137 83 115 11 q 165 270 159 155 z "},"<":{"ha":747,"x_min":61,"x_max":692,"o":"m 98 617 q 286 827 199 715 l 490 1089 q 570 1138 526 1135 l 578 1138 q 640 1116 614 1138 q 674 1050 669 1092 q 635 954 680 1010 q 560 872 632 948 q 403 693 479 784 q 286 545 355 636 l 429 385 q 681 134 490 316 q 692 109 692 123 q 686 84 692 98 q 586 -11 655 14 q 566 -14 575 -14 q 540 -1 549 -14 q 328 235 460 104 q 99 456 214 346 q 61 540 64 491 l 61 545 q 98 617 61 587 z "},"=":{"ha":861,"x_min":76,"x_max":792,"o":"m 123 582 q 85 620 96 579 q 77 682 77 648 q 127 781 79 787 q 377 773 260 765 q 666 792 465 779 l 674 792 q 739 769 712 792 q 770 697 768 742 q 745 624 772 652 q 673 595 718 595 q 563 597 632 595 q 454 598 486 598 q 123 582 316 598 m 127 290 l 123 290 q 76 388 77 290 q 83 449 76 422 q 122 487 95 490 q 387 480 263 471 l 694 500 q 774 473 746 505 q 792 400 789 456 l 792 392 q 779 336 792 353 q 700 304 753 304 q 586 305 658 304 q 473 307 506 307 q 127 290 331 307 z "},">":{"ha":732,"x_min":57,"x_max":688,"o":"m 651 506 q 460 296 545 407 l 259 34 q 179 -14 224 -11 l 168 -14 q 73 73 84 -14 q 111 170 68 113 q 187 251 119 179 q 345 430 263 331 q 463 578 391 486 q 68 989 233 830 q 57 1015 57 1000 q 62 1039 57 1025 q 161 1135 91 1108 q 182 1139 172 1139 q 209 1126 198 1139 q 403 905 301 1001 l 648 666 q 688 582 684 631 l 688 579 q 651 506 688 533 z "},"?":{"ha":1004,"x_min":137,"x_max":933,"o":"m 414 24 q 369 126 384 62 q 380 222 355 189 q 450 247 392 239 q 528 240 510 254 q 571 148 564 212 q 563 43 578 83 q 494 8 553 15 q 467 7 479 7 q 414 24 429 7 m 620 608 q 526 547 526 597 q 528 530 526 538 q 524 442 545 465 q 437 393 483 396 q 366 401 395 391 q 340 541 338 411 q 350 688 342 590 q 481 755 350 734 q 581 762 514 761 q 761 846 761 764 q 688 970 761 924 q 545 1008 624 1010 q 340 941 423 1002 q 298 886 302 913 q 312 821 294 857 q 316 806 316 812 q 263 751 316 776 q 227 742 243 742 q 138 944 159 742 q 137 959 137 951 q 283 1127 137 1061 q 507 1179 399 1179 q 533 1177 521 1179 q 693 1161 640 1172 q 834 1096 789 1142 q 911 956 884 1044 q 933 812 933 883 l 933 796 q 901 669 929 718 q 791 610 863 605 q 620 608 699 617 z "},"@":{"ha":1270,"x_min":73,"x_max":1199,"o":"m 650 693 q 526 586 583 680 q 495 490 495 532 q 510 437 495 461 q 556 407 528 407 q 613 433 581 407 q 724 543 680 483 q 745 618 745 582 q 739 655 745 637 q 681 697 728 697 q 650 693 667 697 m 690 1253 q 1073 1107 921 1253 q 1199 690 1199 986 q 1192 549 1199 624 q 1119 201 1179 391 q 926 -60 1035 -68 q 743 313 753 -47 q 724 294 741 311 q 601 239 669 239 q 437 316 510 239 q 362 477 363 393 q 439 703 361 590 q 627 853 518 811 q 689 865 659 865 q 770 841 731 865 q 852 890 779 880 q 876 891 865 891 q 921 857 924 891 q 897 492 897 595 q 939 149 897 149 q 1023 467 970 149 q 1042 673 1042 583 q 994 897 1042 814 q 766 1070 914 1036 q 700 1078 734 1078 q 467 986 585 1078 q 255 636 315 867 q 228 445 229 534 q 263 254 228 340 q 464 45 330 90 q 499 3 498 34 q 441 -113 502 -66 q 410 -125 423 -125 q 392 -121 400 -125 q 144 111 227 -57 q 73 449 73 255 q 77 549 73 498 q 245 1034 100 842 q 690 1253 412 1253 z "},"A":{"ha":978,"x_min":75,"x_max":955,"o":"m 411 1028 q 448 1089 410 1066 q 521 1109 477 1107 l 533 1109 q 595 1097 568 1109 q 640 1040 636 1078 q 779 579 690 806 l 952 133 q 955 119 955 126 q 883 52 955 84 q 819 33 844 33 q 784 56 792 33 l 749 160 q 715 266 731 212 l 505 278 q 377 281 441 281 q 292 279 334 281 q 269 47 266 164 q 205 4 270 4 q 123 24 164 4 q 75 85 75 50 l 75 87 q 252 610 87 320 q 359 810 340 766 q 411 1028 414 929 m 656 452 q 534 807 600 628 q 347 453 467 692 q 502 446 425 445 q 656 452 579 448 z "},"B":{"ha":887,"x_min":50,"x_max":831,"o":"m 274 890 q 270 610 267 750 q 471 635 414 617 q 587 768 587 670 q 492 887 586 863 q 385 901 444 901 q 274 890 334 901 m 652 568 q 831 326 831 490 l 831 323 q 602 52 830 126 q 396 11 515 22 q 186 -1 368 8 l 164 -1 q 96 31 94 -1 q 117 571 117 368 q 109 846 117 707 q 95 844 102 844 q 50 932 56 844 l 50 954 q 88 1042 50 1035 q 293 1062 194 1062 q 538 1028 422 1062 q 753 772 749 967 q 652 568 754 652 m 281 189 q 340 187 311 187 q 534 206 435 187 q 666 319 666 232 q 544 446 665 429 q 467 452 506 452 q 274 425 377 452 q 281 189 277 346 z "},"C":{"ha":856,"x_min":26,"x_max":792,"o":"m 477 1109 q 663 1061 591 1109 q 787 876 731 1013 q 792 850 792 864 q 750 781 792 817 q 703 758 723 758 q 663 788 680 758 q 521 918 608 897 q 472 924 496 924 q 317 852 391 924 q 193 598 225 758 q 180 481 180 536 q 213 324 180 393 q 374 183 264 210 q 423 178 399 178 q 617 296 528 178 q 662 320 636 320 q 720 298 688 320 q 772 224 772 262 q 766 198 772 210 q 426 -5 673 -5 q 111 179 217 -5 q 26 548 26 328 l 26 555 q 137 935 27 780 q 477 1109 262 1109 z "},"D":{"ha":907,"x_min":33,"x_max":853,"o":"m 216 1097 q 397 1111 315 1111 q 699 1035 594 1111 q 853 627 846 925 l 853 608 q 661 190 853 334 q 186 50 488 62 l 137 50 q 103 91 100 50 q 122 624 122 396 q 114 894 122 757 q 34 979 45 892 q 33 1001 33 990 q 90 1077 33 1067 q 216 1097 132 1086 m 279 939 q 275 728 275 834 q 286 239 275 732 q 589 340 490 259 q 692 629 705 437 q 404 952 670 952 q 279 939 349 952 z "},"E":{"ha":708,"x_min":90,"x_max":644,"o":"m 90 1020 l 90 1023 q 156 1076 90 1063 q 209 1080 186 1080 q 260 1070 240 1080 q 381 1063 319 1061 q 524 1067 456 1066 q 572 1031 555 1067 q 587 966 586 1001 q 576 903 587 929 q 529 869 562 867 q 395 882 521 869 q 260 888 316 890 q 256 742 256 815 q 256 594 255 667 q 340 587 298 587 q 456 595 387 587 q 570 610 513 604 q 623 578 601 613 q 643 515 637 552 q 644 494 644 505 q 594 414 644 414 q 461 416 509 412 q 263 400 410 420 l 262 400 q 270 217 264 305 q 396 228 331 218 l 541 250 q 600 221 575 255 q 625 157 618 195 q 627 133 627 145 q 572 53 627 56 q 387 45 479 49 q 199 27 281 39 q 174 23 187 23 q 129 34 153 23 q 90 72 90 50 q 98 537 90 296 q 90 1020 106 787 z "},"F":{"ha":674,"x_min":71,"x_max":625,"o":"m 71 989 l 71 991 q 138 1044 71 1032 q 190 1048 167 1048 q 241 1039 222 1048 q 362 1034 300 1031 q 505 1036 444 1035 q 553 1000 536 1036 q 568 935 567 970 q 557 872 568 898 q 510 838 543 836 q 377 850 500 838 q 243 857 297 859 q 237 591 235 734 q 321 585 279 585 q 382 589 353 585 l 551 609 q 602 576 582 613 q 624 514 618 549 q 625 492 625 503 q 575 412 625 414 q 444 414 488 410 q 244 397 392 418 l 243 397 q 256 65 248 286 q 164 8 258 20 q 137 5 151 5 q 71 41 71 5 q 79 506 71 264 q 71 989 87 755 z "},"G":{"ha":928,"x_min":52,"x_max":854,"o":"m 416 469 q 352 496 376 468 q 326 568 328 525 q 336 635 323 606 q 389 667 354 670 q 564 665 490 659 q 766 681 632 667 q 830 644 800 684 q 854 579 854 609 l 854 571 q 836 202 834 396 q 830 167 836 178 q 418 -5 738 -5 q 144 134 251 -5 q 52 471 52 252 q 54 553 52 511 q 170 929 71 779 q 498 1114 290 1114 q 704 1062 612 1114 q 837 876 792 1012 q 841 854 841 865 q 795 780 841 817 q 746 757 766 757 q 708 787 722 757 q 563 906 666 880 q 507 913 534 913 q 349 856 427 913 q 199 620 241 779 q 187 460 179 544 q 321 195 202 279 q 430 163 368 163 q 608 201 511 163 q 678 315 678 228 q 674 481 678 397 q 416 469 663 481 z "},"H":{"ha":788,"x_min":95,"x_max":718,"o":"m 95 1036 l 95 1040 q 186 1093 95 1080 q 213 1095 199 1095 q 279 1061 282 1095 q 267 659 264 888 q 317 656 293 656 q 388 662 353 656 l 526 678 q 532 876 530 776 q 530 1074 533 987 q 627 1131 529 1120 q 648 1133 637 1133 q 682 1128 666 1133 q 718 1099 718 1122 l 718 1095 q 682 591 681 842 l 682 94 q 587 37 682 47 q 564 35 575 35 q 530 39 547 35 q 496 75 495 47 l 517 483 q 420 486 468 484 q 273 473 373 486 q 277 294 273 437 q 279 114 279 183 q 186 56 279 68 q 159 53 172 53 q 95 85 95 53 l 95 88 q 114 543 106 267 q 95 1036 119 788 z "},"I":{"ha":780,"x_min":71,"x_max":719,"o":"m 473 932 q 464 689 464 811 q 480 235 464 555 q 621 245 488 235 q 689 220 662 248 q 719 149 716 191 l 719 145 q 696 77 719 104 q 628 47 670 47 q 525 49 590 47 q 422 50 452 50 q 113 34 294 50 l 110 34 q 77 73 87 34 q 71 134 71 100 q 117 235 72 240 q 301 225 217 222 q 309 705 309 745 q 305 928 309 817 q 145 916 243 925 q 84 1015 102 911 q 80 1057 80 1036 q 109 1112 80 1116 q 339 1105 227 1096 l 605 1126 l 614 1126 q 684 1093 654 1126 q 715 1009 715 1057 q 640 929 715 929 q 556 930 612 929 q 473 932 500 932 z "},"J":{"ha":799,"x_min":88,"x_max":723,"o":"m 193 844 q 130 941 132 840 q 141 1006 129 978 q 190 1040 157 1043 q 372 1032 317 1029 q 587 1047 416 1034 l 595 1047 q 678 998 651 1047 q 699 930 699 962 q 693 899 699 914 q 723 444 723 629 q 712 252 723 332 q 412 15 684 35 q 332 12 369 12 q 159 52 203 12 q 88 366 100 102 l 88 369 q 170 415 88 414 q 258 359 255 416 q 285 221 264 245 q 415 199 311 191 q 574 406 562 210 q 576 476 576 439 q 529 852 576 646 q 416 853 473 852 q 193 844 349 853 z "},"K":{"ha":853,"x_min":66,"x_max":833,"o":"m 66 1019 l 66 1021 q 160 1076 66 1062 q 186 1077 174 1077 q 252 1043 256 1077 q 233 623 228 834 q 581 1074 454 891 q 608 1086 590 1086 q 624 1085 616 1086 q 730 1016 692 1070 q 738 993 738 1004 q 730 975 738 983 q 376 544 578 823 q 422 547 400 547 q 553 492 519 547 q 606 363 587 438 q 643 244 627 277 q 666 229 650 229 q 753 275 694 229 q 770 281 762 281 q 826 218 806 281 q 833 174 833 195 q 798 110 833 125 q 606 54 673 54 q 552 71 571 54 q 475 193 505 110 q 420 331 434 308 q 361 359 404 359 q 243 328 316 359 q 247 212 244 270 l 252 96 q 160 38 254 50 q 133 35 146 35 q 66 71 66 35 q 75 536 66 294 q 66 1019 83 787 z "},"L":{"ha":661,"x_min":83,"x_max":621,"o":"m 83 1053 l 83 1055 q 178 1109 83 1096 q 203 1111 191 1111 q 269 1077 273 1111 q 250 663 244 872 q 264 251 255 454 q 400 262 320 251 q 536 282 468 273 q 594 254 570 286 q 620 190 613 228 q 621 165 621 178 q 567 87 621 90 q 381 79 473 83 q 194 60 274 72 l 186 60 q 130 71 167 60 q 83 104 83 85 q 91 570 83 328 q 83 1053 99 808 z "},"M":{"ha":1198,"x_min":85,"x_max":1127,"o":"m 1127 94 l 1127 88 q 1038 28 1127 47 q 998 23 1017 23 q 944 54 943 23 q 903 697 951 297 q 662 214 700 380 q 567 175 655 183 q 477 201 480 167 q 292 745 457 483 q 273 81 264 346 q 176 27 274 35 q 119 28 142 23 q 85 58 85 35 l 85 64 q 121 547 122 301 l 121 1025 q 210 1078 121 1072 q 321 1051 301 1085 q 591 491 477 800 q 770 792 671 583 q 863 1054 863 986 q 932 1104 867 1104 q 956 1101 945 1104 q 1023 1077 1006 1088 q 1046 1023 1046 1059 q 1058 806 1046 937 q 1078 581 1074 640 q 1127 94 1090 343 z "},"N":{"ha":873,"x_min":92,"x_max":800,"o":"m 92 977 l 92 983 q 199 1053 92 1042 q 266 1050 232 1055 q 316 1017 313 1042 q 429 741 327 891 q 604 491 515 616 q 613 751 609 620 q 613 1015 617 891 q 709 1072 612 1061 q 731 1073 720 1073 q 765 1069 749 1073 q 800 1039 800 1062 l 800 1035 q 765 532 764 783 l 765 34 q 730 -11 765 4 q 667 -23 701 -23 q 605 -9 632 -22 q 567 37 568 7 q 472 404 559 229 q 264 723 419 509 q 270 388 263 605 q 277 54 277 159 q 183 -5 277 8 q 156 -7 170 -7 q 92 26 92 -7 l 92 28 q 111 483 103 208 q 92 977 117 720 z "},"O":{"ha":972,"x_min":43,"x_max":929,"o":"m 530 1114 q 830 997 711 1114 q 929 667 929 901 q 925 559 929 617 q 442 5 878 5 q 140 146 245 5 q 43 475 43 274 q 47 559 43 515 q 179 940 65 789 q 530 1114 311 1114 m 600 907 q 538 914 568 914 q 366 859 452 914 q 205 624 251 781 q 180 477 180 545 q 206 351 180 408 q 373 210 254 237 q 439 202 406 202 q 606 250 522 202 q 768 495 724 315 q 787 647 787 581 q 600 907 787 864 z "},"P":{"ha":857,"x_min":38,"x_max":807,"o":"m 264 943 q 259 723 259 833 q 264 502 260 612 q 514 541 426 506 q 659 722 650 593 q 541 918 669 873 q 355 949 453 949 q 264 943 311 949 m 270 334 q 271 220 270 296 q 273 107 273 145 q 178 49 273 60 q 153 47 165 47 q 88 81 85 47 q 107 623 107 415 q 99 901 107 760 q 95 899 96 901 q 80 897 87 897 q 38 978 43 897 l 38 998 q 79 1085 38 1078 q 330 1109 199 1108 l 339 1109 q 743 952 617 1109 q 807 735 807 871 l 807 719 q 270 334 795 357 z "},"Q":{"ha":983,"x_min":68,"x_max":941,"o":"m 532 1119 q 826 1004 712 1119 q 917 675 917 909 q 911 553 917 618 q 849 244 895 363 q 936 96 897 171 q 941 77 941 87 q 887 -4 941 42 q 819 -41 845 -41 q 795 -26 804 -41 q 738 72 774 9 q 471 -12 642 -12 q 282 20 372 -12 q 140 121 182 57 q 68 441 68 232 q 72 547 68 491 q 224 975 92 822 q 532 1119 347 1119 m 490 431 q 490 476 475 448 q 589 562 524 537 q 631 555 618 572 q 685 476 650 528 l 732 411 q 755 486 741 435 q 779 661 779 585 q 720 850 779 781 q 543 925 658 925 q 343 857 407 925 q 229 617 264 772 q 210 457 210 529 q 340 197 210 262 q 431 178 377 178 q 629 251 551 178 q 490 431 567 347 z "},"R":{"ha":884,"x_min":50,"x_max":834,"o":"m 277 901 q 271 701 271 800 q 275 502 271 601 q 526 530 442 503 q 666 703 673 576 q 537 890 656 853 q 387 910 465 910 q 277 901 334 910 m 548 372 q 560 290 553 331 q 586 216 570 239 q 644 187 605 189 q 764 227 685 186 q 808 213 788 240 q 830 163 823 193 q 834 130 834 146 q 795 56 834 71 q 589 5 661 5 q 524 23 547 5 q 435 140 446 80 q 404 277 419 221 q 361 311 395 311 q 281 289 332 311 q 285 62 285 175 q 190 4 285 16 q 163 1 176 1 q 99 37 96 1 q 119 570 119 391 q 110 854 119 709 q 94 852 102 852 q 50 933 56 852 l 50 954 q 91 1040 50 1034 q 336 1066 210 1061 l 368 1066 q 738 925 617 1066 q 814 697 808 844 q 548 372 823 453 z "},"S":{"ha":926,"x_min":84,"x_max":902,"o":"m 671 850 q 582 899 658 879 q 476 918 528 914 q 262 841 298 929 q 255 812 255 826 q 326 742 255 768 q 639 688 422 707 q 773 662 727 680 q 869 571 841 633 q 902 414 902 500 l 902 406 q 878 248 902 326 q 800 105 849 155 q 656 39 750 56 q 496 24 623 33 q 456 23 476 23 q 216 90 317 23 q 102 251 94 170 q 130 399 111 345 q 189 449 148 449 q 227 441 206 449 q 279 389 279 416 q 275 373 279 381 q 262 309 258 338 q 304 254 266 281 q 502 195 387 194 q 669 237 602 195 q 743 384 747 288 q 675 488 741 471 q 494 521 585 513 q 358 528 426 524 q 227 557 278 533 q 84 755 84 624 q 96 844 84 796 q 227 1029 126 967 q 449 1086 316 1086 q 609 1063 528 1086 q 755 994 699 1038 q 772 959 772 982 q 755 902 772 936 q 690 848 728 848 q 671 850 681 848 z "},"T":{"ha":823,"x_min":28,"x_max":811,"o":"m 491 932 q 486 727 486 829 q 493 420 486 624 q 500 114 500 216 q 406 57 500 69 q 378 54 391 54 q 315 90 312 54 q 334 627 334 397 q 324 929 334 776 l 225 924 q 107 916 187 921 q 34 1013 56 911 q 28 1057 28 1036 q 62 1112 28 1116 q 347 1105 216 1096 l 675 1126 l 684 1126 q 770 1096 731 1126 q 811 1010 811 1062 q 720 929 811 930 q 605 930 678 929 q 491 932 524 932 z "},"U":{"ha":910,"x_min":91,"x_max":850,"o":"m 795 1023 q 841 688 806 935 q 850 553 850 623 q 739 122 850 258 q 461 14 656 22 l 439 14 q 153 179 237 14 q 91 543 91 302 q 100 727 91 632 q 129 1035 113 837 q 206 1085 132 1084 q 264 1072 245 1085 q 281 1029 282 1058 q 254 772 278 955 q 233 514 233 609 q 465 209 235 201 q 708 525 708 217 q 682 761 708 625 q 632 994 677 796 q 629 1025 629 1010 q 696 1092 629 1084 q 709 1093 703 1093 q 764 1077 741 1093 q 795 1023 791 1057 z "},"V":{"ha":903,"x_min":42,"x_max":869,"o":"m 46 959 q 42 971 42 966 q 66 1008 42 989 q 119 1040 90 1027 q 191 1059 156 1055 q 235 1040 227 1062 q 475 369 317 818 q 678 1040 616 716 q 712 1062 682 1062 l 716 1062 q 812 1029 754 1059 q 869 971 869 1000 q 867 959 869 964 q 549 30 720 636 q 453 -19 543 -15 l 444 -19 q 362 30 362 -19 q 46 959 288 582 z "},"W":{"ha":1128,"x_min":50,"x_max":1095,"o":"m 52 1032 q 50 1040 50 1036 q 79 1073 50 1058 q 132 1089 102 1085 q 159 1090 145 1090 q 232 1058 227 1090 q 317 556 267 830 q 410 749 363 652 q 461 954 461 865 q 456 1040 461 987 q 483 1088 453 1073 q 553 1101 509 1101 l 562 1101 q 656 1082 628 1099 q 684 1040 685 1066 q 674 914 674 932 q 705 773 674 833 q 823 521 774 639 l 869 789 q 911 1058 897 956 q 983 1090 917 1090 q 1073 1069 1034 1090 q 1095 1040 1095 1057 q 1093 1032 1095 1036 q 972 513 1004 746 q 940 84 943 288 q 897 28 940 45 q 846 20 873 20 q 821 22 834 20 q 750 42 781 26 q 713 98 708 65 q 726 237 726 172 q 686 445 726 357 q 563 697 624 581 q 446 453 502 581 q 411 269 411 376 q 426 115 411 198 q 315 50 426 76 q 263 43 288 43 q 203 84 203 43 q 127 742 202 411 q 52 1032 98 880 z "},"X":{"ha":777,"x_min":68,"x_max":711,"o":"m 526 1086 q 568 1112 534 1109 l 585 1112 q 696 1074 650 1112 q 711 1047 711 1061 q 707 1032 711 1040 q 479 579 609 863 q 694 151 552 437 q 699 133 699 141 q 633 71 699 98 q 575 56 598 56 q 532 83 543 56 q 397 396 473 225 l 324 232 q 251 71 300 176 q 205 45 240 47 l 189 45 q 81 83 123 45 q 68 109 68 95 q 72 125 68 117 q 309 585 224 407 q 83 1008 198 811 q 98 1057 69 1031 q 149 1087 118 1074 q 212 1100 179 1100 q 254 1076 245 1099 q 391 757 316 911 q 526 1086 468 926 z "},"Y":{"ha":823,"x_min":42,"x_max":812,"o":"m 629 1080 q 671 1105 637 1103 q 692 1107 681 1107 q 798 1067 755 1107 q 812 1039 812 1053 q 808 1024 812 1032 q 571 534 701 833 q 353 34 461 283 q 308 7 342 9 l 292 7 q 184 45 227 7 q 174 90 161 65 l 351 435 q 46 985 213 711 q 42 1001 42 993 q 58 1035 42 1017 q 107 1069 77 1055 q 170 1085 137 1084 q 213 1062 203 1086 q 433 606 292 868 q 629 1080 544 842 z "},"Z":{"ha":754,"x_min":75,"x_max":699,"o":"m 673 890 q 281 176 537 673 q 590 198 285 176 q 667 165 636 201 q 699 81 699 129 q 624 1 699 1 q 433 4 502 0 q 141 -12 354 8 l 138 -12 q 87 72 103 -12 q 79 134 79 109 q 92 180 79 168 q 297 519 194 350 q 480 871 412 718 q 136 854 309 871 q 79 954 95 850 q 75 997 75 977 q 100 1051 75 1055 q 326 1044 217 1035 l 585 1065 l 594 1065 q 682 1000 656 1065 q 694 944 694 968 q 673 890 694 911 z "},"[":{"ha":582,"x_min":54,"x_max":560,"o":"m 236 1070 q 229 753 229 911 q 235 384 229 617 q 243 16 241 118 q 488 33 343 16 q 543 4 522 37 q 560 -60 559 -22 l 560 -65 q 548 -126 560 -99 q 496 -163 530 -161 q 349 -163 410 -165 q 126 -183 292 -159 l 117 -183 q 72 -152 88 -183 q 57 -85 56 -122 q 77 625 77 361 q 60 1109 77 864 q 54 1150 54 1128 q 62 1206 54 1177 q 123 1257 79 1257 q 486 1275 350 1257 l 492 1275 q 538 1245 522 1275 q 556 1181 555 1218 q 545 1114 559 1143 q 494 1077 528 1078 q 236 1070 408 1077 z "},"\\":{"ha":925,"x_min":23,"x_max":899,"o":"m 199 1183 q 541 572 302 962 q 734 266 639 411 l 892 22 q 899 1 899 12 q 833 -61 899 -30 q 766 -79 800 -76 l 760 -79 q 720 -60 731 -79 q 384 524 609 134 q 212 815 262 730 q 28 1100 113 977 q 23 1118 23 1108 q 39 1150 23 1133 q 90 1185 58 1171 q 155 1203 121 1200 l 159 1203 q 199 1183 190 1203 z "},"]":{"ha":658,"x_min":73,"x_max":581,"o":"m 399 19 q 406 326 406 172 q 399 699 406 456 q 392 1073 392 956 q 146 1057 260 1070 q 91 1085 111 1053 q 73 1150 76 1112 l 73 1157 q 85 1217 73 1191 q 138 1253 103 1252 q 283 1253 224 1256 q 509 1275 336 1251 l 515 1275 q 562 1242 544 1275 q 578 1177 579 1213 q 556 460 556 656 q 575 -19 556 222 q 581 -60 581 -38 q 571 -115 581 -85 q 511 -167 555 -167 l 343 -168 q 149 -183 262 -170 l 141 -183 q 95 -155 111 -183 q 77 -91 79 -127 q 90 -24 76 -53 q 141 12 107 11 q 258 12 194 15 q 399 19 305 9 z "},"^":{"ha":887,"x_min":76,"x_max":838,"o":"m 563 1143 q 671 1032 600 1092 q 795 936 732 985 q 838 856 838 901 q 743 760 838 766 q 659 792 701 755 q 479 962 568 891 q 351 861 423 926 q 233 753 292 807 q 186 734 210 734 q 164 738 175 734 q 76 845 83 765 l 76 853 q 106 902 76 884 q 259 1020 176 947 q 401 1152 330 1086 q 487 1185 438 1185 q 563 1143 532 1185 z "},"_":{"ha":982,"x_min":45,"x_max":944,"o":"m 107 -119 l 104 -119 q 58 -84 76 -119 q 45 -20 46 -57 l 45 -12 q 54 43 45 19 q 100 77 69 80 q 429 72 267 62 q 810 91 595 81 l 821 91 q 898 71 865 91 q 944 -4 943 45 l 944 -7 q 903 -80 944 -52 q 817 -106 867 -106 q 677 -104 766 -106 q 537 -102 579 -102 q 107 -119 381 -102 z "},"`":{"ha":437,"x_min":0,"x_max":0,"o":""},"a":{"ha":978,"x_min":75,"x_max":955,"o":"m 411 1028 q 448 1089 410 1066 q 521 1109 477 1107 l 533 1109 q 595 1097 568 1109 q 640 1040 636 1078 q 779 579 690 806 l 952 133 q 955 119 955 126 q 883 52 955 84 q 819 33 844 33 q 784 56 792 33 l 749 160 q 715 266 731 212 l 505 278 q 377 281 441 281 q 292 279 334 281 q 269 47 266 164 q 205 4 270 4 q 123 24 164 4 q 75 85 75 50 l 75 87 q 252 610 87 320 q 359 810 340 766 q 411 1028 414 929 m 656 452 q 534 807 600 628 q 347 453 467 692 q 502 446 425 445 q 656 452 579 448 z "},"b":{"ha":887,"x_min":50,"x_max":831,"o":"m 274 890 q 270 610 267 750 q 471 635 414 617 q 587 768 587 670 q 492 887 586 863 q 385 901 444 901 q 274 890 334 901 m 652 568 q 831 326 831 490 l 831 323 q 602 52 830 126 q 396 11 515 22 q 186 -1 368 8 l 164 -1 q 96 31 94 -1 q 117 571 117 368 q 109 846 117 707 q 95 844 102 844 q 50 932 56 844 l 50 954 q 88 1042 50 1035 q 293 1062 194 1062 q 538 1028 422 1062 q 753 772 749 967 q 652 568 754 652 m 281 189 q 340 187 311 187 q 534 206 435 187 q 666 319 666 232 q 544 446 665 429 q 467 452 506 452 q 274 425 377 452 q 281 189 277 346 z "},"c":{"ha":856,"x_min":26,"x_max":792,"o":"m 477 1109 q 663 1061 591 1109 q 787 876 731 1013 q 792 850 792 864 q 750 781 792 817 q 703 758 723 758 q 663 788 680 758 q 521 918 608 897 q 472 924 496 924 q 317 852 391 924 q 193 598 225 758 q 180 481 180 536 q 213 324 180 393 q 374 183 264 210 q 423 178 399 178 q 617 296 528 178 q 662 320 636 320 q 720 298 688 320 q 772 224 772 262 q 766 198 772 210 q 426 -5 673 -5 q 111 179 217 -5 q 26 548 26 328 l 26 555 q 137 935 27 780 q 477 1109 262 1109 z "},"d":{"ha":907,"x_min":33,"x_max":853,"o":"m 216 1097 q 397 1111 315 1111 q 699 1035 594 1111 q 853 627 846 925 l 853 608 q 661 190 853 334 q 186 50 488 62 l 137 50 q 103 91 100 50 q 122 624 122 396 q 114 894 122 757 q 34 979 45 892 q 33 1001 33 990 q 90 1077 33 1067 q 216 1097 132 1086 m 279 939 q 275 728 275 834 q 286 239 275 732 q 589 340 490 259 q 692 629 705 437 q 404 952 670 952 q 279 939 349 952 z "},"e":{"ha":708,"x_min":90,"x_max":644,"o":"m 90 1020 l 90 1023 q 156 1076 90 1063 q 209 1080 186 1080 q 260 1070 240 1080 q 381 1063 319 1061 q 524 1067 456 1066 q 572 1031 555 1067 q 587 966 586 1001 q 576 903 587 929 q 529 869 562 867 q 395 882 521 869 q 260 888 316 890 q 256 742 256 815 q 256 594 255 667 q 340 587 298 587 q 456 595 387 587 q 570 610 513 604 q 623 578 601 613 q 643 515 637 552 q 644 494 644 505 q 594 414 644 414 q 461 416 509 412 q 263 400 410 420 l 262 400 q 270 217 264 305 q 396 228 331 218 l 541 250 q 600 221 575 255 q 625 157 618 195 q 627 133 627 145 q 572 53 627 56 q 387 45 479 49 q 199 27 281 39 q 174 23 187 23 q 129 34 153 23 q 90 72 90 50 q 98 537 90 296 q 90 1020 106 787 z "},"f":{"ha":674,"x_min":71,"x_max":625,"o":"m 71 989 l 71 991 q 138 1044 71 1032 q 190 1048 167 1048 q 241 1039 222 1048 q 362 1034 300 1031 q 505 1036 444 1035 q 553 1000 536 1036 q 568 935 567 970 q 557 872 568 898 q 510 838 543 836 q 377 850 500 838 q 243 857 297 859 q 237 591 235 734 q 321 585 279 585 q 382 589 353 585 l 551 609 q 602 576 582 613 q 624 514 618 549 q 625 492 625 503 q 575 412 625 414 q 444 414 488 410 q 244 397 392 418 l 243 397 q 256 65 248 286 q 164 8 258 20 q 137 5 151 5 q 71 41 71 5 q 79 506 71 264 q 71 989 87 755 z "},"g":{"ha":928,"x_min":52,"x_max":854,"o":"m 416 469 q 352 496 376 468 q 326 568 328 525 q 336 635 323 606 q 389 667 354 670 q 564 665 490 659 q 766 681 632 667 q 830 644 800 684 q 854 579 854 609 l 854 571 q 836 202 834 396 q 830 167 836 178 q 418 -5 738 -5 q 144 134 251 -5 q 52 471 52 252 q 54 553 52 511 q 170 929 71 779 q 498 1114 290 1114 q 704 1062 612 1114 q 837 876 792 1012 q 841 854 841 865 q 795 780 841 817 q 746 757 766 757 q 708 787 722 757 q 563 906 666 880 q 507 913 534 913 q 349 856 427 913 q 199 620 241 779 q 187 460 179 544 q 321 195 202 279 q 430 163 368 163 q 608 201 511 163 q 678 315 678 228 q 674 481 678 397 q 416 469 663 481 z "},"h":{"ha":788,"x_min":95,"x_max":718,"o":"m 95 1036 l 95 1040 q 186 1093 95 1080 q 213 1095 199 1095 q 279 1061 282 1095 q 267 659 264 888 q 317 656 293 656 q 388 662 353 656 l 526 678 q 532 876 530 776 q 530 1074 533 987 q 627 1131 529 1120 q 648 1133 637 1133 q 682 1128 666 1133 q 718 1099 718 1122 l 718 1095 q 682 591 681 842 l 682 94 q 587 37 682 47 q 564 35 575 35 q 530 39 547 35 q 496 75 495 47 l 517 483 q 420 486 468 484 q 273 473 373 486 q 277 294 273 437 q 279 114 279 183 q 186 56 279 68 q 159 53 172 53 q 95 85 95 53 l 95 88 q 114 543 106 267 q 95 1036 119 788 z "},"i":{"ha":395,"x_min":110,"x_max":296,"o":"m 110 1029 l 110 1032 q 203 1086 110 1073 q 229 1088 217 1088 q 296 1058 296 1088 l 296 1054 q 278 578 267 811 q 296 107 290 266 l 296 106 q 203 49 296 61 q 176 46 190 46 q 110 81 110 46 q 118 547 110 305 q 110 1029 126 799 z "},"j":{"ha":799,"x_min":88,"x_max":723,"o":"m 193 844 q 130 941 132 840 q 141 1006 129 978 q 190 1040 157 1043 q 372 1032 317 1029 q 587 1047 416 1034 l 595 1047 q 678 998 651 1047 q 699 930 699 962 q 693 899 699 914 q 723 444 723 629 q 712 252 723 332 q 412 15 684 35 q 332 12 369 12 q 159 52 203 12 q 88 366 100 102 l 88 369 q 170 415 88 414 q 258 359 255 416 q 285 221 264 245 q 415 199 311 191 q 574 406 562 210 q 576 476 576 439 q 529 852 576 646 q 416 853 473 852 q 193 844 349 853 z "},"k":{"ha":853,"x_min":66,"x_max":833,"o":"m 66 1019 l 66 1021 q 160 1076 66 1062 q 186 1077 174 1077 q 252 1043 256 1077 q 233 623 228 834 q 581 1074 454 891 q 608 1086 590 1086 q 624 1085 616 1086 q 730 1016 692 1070 q 738 993 738 1004 q 730 975 738 983 q 376 544 578 823 q 422 547 400 547 q 553 492 519 547 q 606 363 587 438 q 643 244 627 277 q 666 229 650 229 q 753 275 694 229 q 770 281 762 281 q 826 218 806 281 q 833 174 833 195 q 798 110 833 125 q 606 54 673 54 q 552 71 571 54 q 475 193 505 110 q 420 331 434 308 q 361 359 404 359 q 243 328 316 359 q 247 212 244 270 l 252 96 q 160 38 254 50 q 133 35 146 35 q 66 71 66 35 q 75 536 66 294 q 66 1019 83 787 z "},"l":{"ha":661,"x_min":83,"x_max":621,"o":"m 83 1053 l 83 1055 q 178 1109 83 1096 q 203 1111 191 1111 q 269 1077 273 1111 q 250 663 244 872 q 264 251 255 454 q 400 262 320 251 q 536 282 468 273 q 594 254 570 286 q 620 190 613 228 q 621 165 621 178 q 567 87 621 90 q 381 79 473 83 q 194 60 274 72 l 186 60 q 130 71 167 60 q 83 104 83 85 q 91 570 83 328 q 83 1053 99 808 z "},"m":{"ha":1198,"x_min":85,"x_max":1127,"o":"m 1127 94 l 1127 88 q 1038 28 1127 47 q 998 23 1017 23 q 944 54 943 23 q 903 697 951 297 q 662 214 700 380 q 567 175 655 183 q 477 201 480 167 q 292 745 457 483 q 273 81 264 346 q 176 27 274 35 q 119 28 142 23 q 85 58 85 35 l 85 64 q 121 547 122 301 l 121 1025 q 210 1078 121 1072 q 321 1051 301 1085 q 591 491 477 800 q 770 792 671 583 q 863 1054 863 986 q 932 1104 867 1104 q 956 1101 945 1104 q 1023 1077 1006 1088 q 1046 1023 1046 1059 q 1058 806 1046 937 q 1078 581 1074 640 q 1127 94 1090 343 z "},"n":{"ha":873,"x_min":92,"x_max":800,"o":"m 92 977 l 92 983 q 199 1053 92 1042 q 266 1050 232 1055 q 316 1017 313 1042 q 429 741 327 891 q 604 491 515 616 q 613 751 609 620 q 613 1015 617 891 q 709 1072 612 1061 q 731 1073 720 1073 q 765 1069 749 1073 q 800 1039 800 1062 l 800 1035 q 765 532 764 783 l 765 34 q 730 -11 765 4 q 667 -23 701 -23 q 605 -9 632 -22 q 567 37 568 7 q 472 404 559 229 q 264 723 419 509 q 270 388 263 605 q 277 54 277 159 q 183 -5 277 8 q 156 -7 170 -7 q 92 26 92 -7 l 92 28 q 111 483 103 208 q 92 977 117 720 z "},"o":{"ha":972,"x_min":43,"x_max":929,"o":"m 530 1114 q 830 997 711 1114 q 929 667 929 901 q 925 559 929 617 q 442 5 878 5 q 140 146 245 5 q 43 475 43 274 q 47 559 43 515 q 179 940 65 789 q 530 1114 311 1114 m 600 907 q 538 914 568 914 q 366 859 452 914 q 205 624 251 781 q 180 477 180 545 q 206 351 180 408 q 373 210 254 237 q 439 202 406 202 q 606 250 522 202 q 768 495 724 315 q 787 647 787 581 q 600 907 787 864 z "},"p":{"ha":857,"x_min":38,"x_max":807,"o":"m 264 943 q 259 723 259 833 q 264 502 260 612 q 514 541 426 506 q 659 722 650 593 q 541 918 669 873 q 355 949 453 949 q 264 943 311 949 m 270 334 q 271 220 270 296 q 273 107 273 145 q 178 49 273 60 q 153 47 165 47 q 88 81 85 47 q 107 623 107 415 q 99 901 107 760 q 95 899 96 901 q 80 897 87 897 q 38 978 43 897 l 38 998 q 79 1085 38 1078 q 330 1109 199 1108 l 339 1109 q 743 952 617 1109 q 807 735 807 871 l 807 719 q 270 334 795 357 z "},"q":{"ha":983,"x_min":68,"x_max":941,"o":"m 532 1119 q 826 1004 712 1119 q 917 675 917 909 q 911 553 917 618 q 849 244 895 363 q 936 96 897 171 q 941 77 941 87 q 887 -4 941 42 q 819 -41 845 -41 q 795 -26 804 -41 q 738 72 774 9 q 471 -12 642 -12 q 282 20 372 -12 q 140 121 182 57 q 68 441 68 232 q 72 547 68 491 q 224 975 92 822 q 532 1119 347 1119 m 490 431 q 490 476 475 448 q 589 562 524 537 q 631 555 618 572 q 685 476 650 528 l 732 411 q 755 486 741 435 q 779 661 779 585 q 720 850 779 781 q 543 925 658 925 q 343 857 407 925 q 229 617 264 772 q 210 457 210 529 q 340 197 210 262 q 431 178 377 178 q 629 251 551 178 q 490 431 567 347 z "},"r":{"ha":884,"x_min":50,"x_max":834,"o":"m 277 901 q 271 701 271 800 q 275 502 271 601 q 526 530 442 503 q 666 703 673 576 q 537 890 656 853 q 387 910 465 910 q 277 901 334 910 m 548 372 q 560 290 553 331 q 586 216 570 239 q 644 187 605 189 q 764 227 685 186 q 808 213 788 240 q 830 163 823 193 q 834 130 834 146 q 795 56 834 71 q 589 5 661 5 q 524 23 547 5 q 435 140 446 80 q 404 277 419 221 q 361 311 395 311 q 281 289 332 311 q 285 62 285 175 q 190 4 285 16 q 163 1 176 1 q 99 37 96 1 q 119 570 119 391 q 110 854 119 709 q 94 852 102 852 q 50 933 56 852 l 50 954 q 91 1040 50 1034 q 336 1066 210 1061 l 368 1066 q 738 925 617 1066 q 814 697 808 844 q 548 372 823 453 z "},"s":{"ha":926,"x_min":84,"x_max":902,"o":"m 671 850 q 582 899 658 879 q 476 918 528 914 q 262 841 298 929 q 255 812 255 826 q 326 742 255 768 q 639 688 422 707 q 773 662 727 680 q 869 571 841 633 q 902 414 902 500 l 902 406 q 878 248 902 326 q 800 105 849 155 q 656 39 750 56 q 496 24 623 33 q 456 23 476 23 q 216 90 317 23 q 102 251 94 170 q 130 399 111 345 q 189 449 148 449 q 227 441 206 449 q 279 389 279 416 q 275 373 279 381 q 262 309 258 338 q 304 254 266 281 q 502 195 387 194 q 669 237 602 195 q 743 384 747 288 q 675 488 741 471 q 494 521 585 513 q 358 528 426 524 q 227 557 278 533 q 84 755 84 624 q 96 844 84 796 q 227 1029 126 967 q 449 1086 316 1086 q 609 1063 528 1086 q 755 994 699 1038 q 772 959 772 982 q 755 902 772 936 q 690 848 728 848 q 671 850 681 848 z "},"t":{"ha":823,"x_min":28,"x_max":811,"o":"m 491 932 q 486 727 486 829 q 493 420 486 624 q 500 114 500 216 q 406 57 500 69 q 378 54 391 54 q 315 90 312 54 q 334 627 334 397 q 324 929 334 776 l 225 924 q 107 916 187 921 q 34 1013 56 911 q 28 1057 28 1036 q 62 1112 28 1116 q 347 1105 216 1096 l 675 1126 l 684 1126 q 770 1096 731 1126 q 811 1010 811 1062 q 720 929 811 930 q 605 930 678 929 q 491 932 524 932 z "},"u":{"ha":910,"x_min":91,"x_max":850,"o":"m 795 1023 q 841 688 806 935 q 850 553 850 623 q 739 122 850 258 q 461 14 656 22 l 439 14 q 153 179 237 14 q 91 543 91 302 q 100 727 91 632 q 129 1035 113 837 q 206 1085 132 1084 q 264 1072 245 1085 q 281 1029 282 1058 q 254 772 278 955 q 233 514 233 609 q 465 209 235 201 q 708 525 708 217 q 682 761 708 625 q 632 994 677 796 q 629 1025 629 1010 q 696 1092 629 1084 q 709 1093 703 1093 q 764 1077 741 1093 q 795 1023 791 1057 z "},"v":{"ha":903,"x_min":42,"x_max":869,"o":"m 46 959 q 42 971 42 966 q 66 1008 42 989 q 119 1040 90 1027 q 191 1059 156 1055 q 235 1040 227 1062 q 475 369 317 818 q 678 1040 616 716 q 712 1062 682 1062 l 716 1062 q 812 1029 754 1059 q 869 971 869 1000 q 867 959 869 964 q 549 30 720 636 q 453 -19 543 -15 l 444 -19 q 362 30 362 -19 q 46 959 288 582 z "},"w":{"ha":1128,"x_min":50,"x_max":1095,"o":"m 52 1032 q 50 1040 50 1036 q 79 1073 50 1058 q 132 1089 102 1085 q 159 1090 145 1090 q 232 1058 227 1090 q 317 556 267 830 q 410 749 363 652 q 461 954 461 865 q 456 1040 461 987 q 483 1088 453 1073 q 553 1101 509 1101 l 562 1101 q 656 1082 628 1099 q 684 1040 685 1066 q 674 914 674 932 q 705 773 674 833 q 823 521 774 639 l 869 789 q 911 1058 897 956 q 983 1090 917 1090 q 1073 1069 1034 1090 q 1095 1040 1095 1057 q 1093 1032 1095 1036 q 972 513 1004 746 q 940 84 943 288 q 897 28 940 45 q 846 20 873 20 q 821 22 834 20 q 750 42 781 26 q 713 98 708 65 q 726 237 726 172 q 686 445 726 357 q 563 697 624 581 q 446 453 502 581 q 411 269 411 376 q 426 115 411 198 q 315 50 426 76 q 263 43 288 43 q 203 84 203 43 q 127 742 202 411 q 52 1032 98 880 z "},"x":{"ha":777,"x_min":68,"x_max":711,"o":"m 526 1086 q 568 1112 534 1109 l 585 1112 q 696 1074 650 1112 q 711 1047 711 1061 q 707 1032 711 1040 q 479 579 609 863 q 694 151 552 437 q 699 133 699 141 q 633 71 699 98 q 575 56 598 56 q 532 83 543 56 q 397 396 473 225 l 324 232 q 251 71 300 176 q 205 45 240 47 l 189 45 q 81 83 123 45 q 68 109 68 95 q 72 125 68 117 q 309 585 224 407 q 83 1008 198 811 q 98 1057 69 1031 q 149 1087 118 1074 q 212 1100 179 1100 q 254 1076 245 1099 q 391 757 316 911 q 526 1086 468 926 z "},"y":{"ha":823,"x_min":42,"x_max":812,"o":"m 629 1080 q 671 1105 637 1103 q 692 1107 681 1107 q 798 1067 755 1107 q 812 1039 812 1053 q 808 1024 812 1032 q 571 534 701 833 q 353 34 461 283 q 308 7 342 9 l 292 7 q 184 45 227 7 q 174 90 161 65 l 351 435 q 46 985 213 711 q 42 1001 42 993 q 58 1035 42 1017 q 107 1069 77 1055 q 170 1085 137 1084 q 213 1062 203 1086 q 433 606 292 868 q 629 1080 544 842 z "},"z":{"ha":754,"x_min":75,"x_max":699,"o":"m 673 890 q 281 176 537 673 q 590 198 285 176 q 667 165 636 201 q 699 81 699 129 q 624 1 699 1 q 433 4 502 0 q 141 -12 354 8 l 138 -12 q 87 72 103 -12 q 79 134 79 109 q 92 180 79 168 q 297 519 194 350 q 480 871 412 718 q 136 854 309 871 q 79 954 95 850 q 75 997 75 977 q 100 1051 75 1055 q 326 1044 217 1035 l 585 1065 l 594 1065 q 682 1000 656 1065 q 694 944 694 968 q 673 890 694 911 z "},"{":{"ha":1017,"x_min":22,"x_max":880,"o":"m 71 444 q 22 544 22 439 q 33 606 22 578 q 76 644 47 647 q 361 636 233 628 q 686 655 460 642 q 768 631 734 658 q 806 559 803 605 q 774 484 807 511 q 694 457 742 457 q 571 458 650 457 q 448 460 483 460 q 71 444 292 460 m 327 1009 q 290 1062 290 1027 q 368 1181 290 1143 q 399 1188 384 1188 q 435 1177 418 1188 q 799 966 632 1053 q 836 910 833 948 q 768 792 840 829 q 700 795 734 774 q 515 906 608 850 q 327 1009 410 970 m 515 -102 q 473 -118 496 -118 q 452 -115 463 -118 q 370 -1 377 -87 q 399 60 366 37 q 730 319 597 201 q 795 332 760 345 q 880 225 872 305 l 880 220 q 852 164 880 186 q 681 35 766 99 q 515 -102 585 -39 z "},"|":{"ha":382,"x_min":100,"x_max":286,"o":"m 100 1157 l 100 1161 q 193 1232 100 1215 q 220 1233 206 1233 q 286 1192 286 1233 l 286 1190 q 275 567 264 875 q 286 -47 286 254 q 252 -99 286 -77 q 191 -123 225 -117 q 165 -125 178 -125 q 100 -83 100 -125 l 100 -80 q 119 511 111 148 q 100 1157 126 831 z "},"}":{"ha":1023,"x_min":138,"x_max":997,"o":"m 948 625 q 989 586 975 628 q 997 524 997 557 q 986 461 997 488 q 943 425 970 422 q 658 433 792 439 l 334 414 q 250 435 285 411 q 212 507 214 460 q 244 583 209 555 q 324 610 275 610 q 448 609 369 610 q 571 608 536 608 q 948 625 708 608 m 692 60 q 727 7 727 43 q 650 -113 727 -75 q 621 -119 635 -119 q 583 -107 602 -119 q 220 102 399 11 q 182 156 183 119 q 251 275 178 236 q 319 273 283 293 q 502 161 410 217 q 692 60 608 99 m 503 1172 q 543 1188 521 1188 q 566 1184 553 1188 q 647 1070 640 1154 q 620 1008 651 1031 l 461 892 q 289 750 389 840 q 222 735 258 723 q 138 844 146 760 l 138 852 q 167 905 138 884 q 338 1034 252 970 q 503 1172 433 1108 z "},"~":{"ha":930,"x_min":83,"x_max":845,"o":"m 250 510 q 189 452 228 449 q 111 502 140 453 q 83 595 87 541 l 83 604 q 130 724 83 658 q 237 796 180 796 q 273 787 255 796 q 397 692 311 765 q 528 606 473 628 q 552 602 540 602 q 675 699 609 602 q 760 764 719 762 q 830 719 808 765 q 845 643 845 688 l 845 629 q 796 505 842 566 q 636 399 718 399 q 621 400 629 399 q 467 450 548 408 q 327 537 431 469 q 290 549 307 549 q 250 510 263 549 z "},"":{"ha":840,"x_min":56,"x_max":789,"o":"m 692 277 q 585 232 636 247 q 598 110 590 194 q 510 43 604 65 q 467 38 487 38 q 416 66 418 38 q 412 133 415 88 l 410 202 q 165 285 256 198 q 57 521 79 366 q 56 538 56 530 q 157 719 56 623 q 350 853 244 802 q 321 1009 334 951 q 407 1076 312 1054 q 452 1081 430 1081 q 473 1080 463 1081 q 503 1053 503 1076 q 510 894 503 982 q 671 849 612 897 q 777 719 711 819 q 789 678 789 696 q 736 624 789 640 q 686 613 707 613 q 644 636 654 613 q 528 705 613 712 q 309 633 419 697 q 213 513 213 578 q 236 433 213 475 q 292 377 259 391 q 372 361 330 361 q 559 412 452 361 q 716 477 700 477 q 772 415 758 477 q 774 388 774 400 q 692 277 774 319 z "},"":{"ha":437,"x_min":0,"x_max":0,"o":""},"":{"ha":1271,"x_min":75,"x_max":1200,"o":"m 693 1253 q 1076 1105 922 1253 q 1200 689 1200 985 q 1194 548 1200 623 q 581 -155 1134 -155 q 201 20 350 -155 q 75 442 75 168 q 79 548 75 494 q 247 1034 102 842 q 693 1253 414 1253 m 768 1070 q 703 1077 735 1077 q 468 985 587 1077 q 256 635 316 867 q 231 442 231 532 q 273 236 231 328 q 495 35 347 69 q 579 26 537 26 q 808 88 690 26 q 1025 467 974 175 q 1046 667 1046 578 q 996 895 1046 808 q 768 1070 916 1036 m 684 936 q 822 895 772 936 q 898 770 868 857 q 902 753 902 762 q 871 703 902 728 q 836 686 850 686 q 808 708 819 686 q 677 804 761 804 q 566 753 618 804 q 471 572 498 685 q 460 479 460 522 q 491 354 460 408 q 591 278 526 294 q 625 274 609 274 q 765 358 699 274 q 798 376 780 376 q 838 361 815 376 q 873 309 873 336 q 868 289 873 300 q 624 144 798 144 q 403 275 475 144 q 351 543 345 384 q 439 811 358 701 q 684 936 532 936 z "},"":{"ha":1268,"x_min":73,"x_max":1200,"o":"m 692 1246 q 1074 1099 921 1246 q 1200 682 1200 978 q 1194 543 1200 617 q 579 -161 1134 -161 q 199 14 349 -161 q 73 437 73 161 q 77 543 73 487 q 245 1027 100 837 q 692 1246 414 1246 m 768 1063 q 703 1072 735 1072 q 467 978 586 1072 q 256 629 316 861 q 229 434 229 525 q 271 229 229 321 q 495 28 346 61 q 576 19 536 19 q 807 83 688 19 q 1024 460 972 168 q 1044 661 1044 571 q 994 888 1044 802 q 768 1063 913 1029 m 543 769 q 540 640 538 704 q 541 511 540 575 q 793 640 800 511 q 711 762 788 738 q 614 776 665 776 q 543 769 579 776 m 719 427 q 743 326 730 370 q 773 305 749 305 q 857 334 803 305 q 869 338 864 338 q 901 292 890 338 q 905 264 905 277 q 878 221 905 231 q 743 189 791 189 q 703 199 718 189 q 655 275 670 225 q 633 366 644 321 q 602 388 628 388 q 545 373 581 388 q 547 300 545 349 q 548 227 548 251 q 487 189 548 197 q 441 190 457 184 q 427 210 426 195 q 439 464 437 345 q 435 739 444 598 q 423 736 429 736 q 396 791 397 736 q 422 859 393 853 q 578 872 500 872 q 731 859 655 872 q 890 637 882 829 q 719 427 897 476 z "},"":{"ha":972,"x_min":43,"x_max":929,"o":"m 530 974 q 830 872 711 974 q 929 583 929 788 q 925 490 929 540 q 442 5 878 5 q 140 129 245 5 q 43 415 43 240 q 47 490 43 452 q 179 822 65 690 q 530 974 311 974 m 600 793 q 538 800 568 800 q 366 751 452 800 q 205 547 251 684 q 180 418 180 477 q 206 308 180 358 q 373 184 254 208 q 439 178 406 178 q 606 218 522 178 q 768 433 724 275 q 787 566 787 509 q 600 793 787 755 m 640 1276 q 658 1283 650 1283 q 677 1276 667 1283 q 715 1200 716 1252 q 700 1154 709 1179 l 601 1100 q 488 1036 549 1070 q 441 1050 458 1035 q 404 1122 400 1073 q 426 1154 406 1145 q 534 1213 480 1184 q 640 1276 595 1246 z "},"":{"ha":423,"x_min":81,"x_max":368,"o":"m 267 1010 q 359 779 278 926 q 368 751 368 764 q 315 708 368 720 q 282 704 297 704 q 210 747 233 704 q 83 1108 122 913 q 81 1122 81 1115 q 110 1172 81 1152 q 180 1194 140 1194 q 221 1187 201 1194 q 258 1107 248 1175 q 267 1010 262 1058 z "},"":{"ha":464,"x_min":100,"x_max":387,"o":"m 216 1141 q 286 1194 220 1194 q 358 1172 327 1194 q 387 1122 387 1152 q 385 1108 387 1115 q 256 747 350 924 q 186 704 233 704 q 153 708 171 704 q 100 751 100 720 q 109 779 100 764 q 186 954 164 879 q 216 1141 209 1029 z "},"":{"ha":694,"x_min":85,"x_max":639,"o":"m 273 921 q 365 690 283 838 q 373 663 373 675 q 319 620 373 632 q 286 616 301 616 q 216 659 239 616 q 87 1019 125 830 q 85 1034 85 1027 q 113 1084 85 1063 q 184 1105 144 1105 q 225 1097 205 1105 q 264 1017 255 1085 q 273 921 269 968 m 538 1010 q 631 779 549 926 q 639 751 639 764 q 586 708 639 720 q 553 704 568 704 q 481 747 505 704 q 354 1108 393 913 q 381 1172 346 1147 q 450 1194 411 1194 q 491 1187 472 1194 q 530 1107 521 1175 q 538 1010 534 1058 z "},"":{"ha":739,"x_min":115,"x_max":669,"o":"m 498 1051 q 570 1105 502 1105 q 643 1081 609 1105 q 669 1034 669 1062 q 667 1019 669 1027 q 538 659 629 830 q 468 616 515 616 q 435 620 453 616 q 382 663 382 632 q 391 690 382 675 q 469 865 446 789 q 498 1051 491 940 m 231 1141 q 302 1194 235 1194 q 373 1172 342 1194 q 400 1108 408 1146 q 273 747 363 914 q 201 704 250 704 q 168 708 186 704 q 115 751 115 720 q 123 779 115 764 q 202 953 180 880 q 231 1141 224 1025 z "},"":{"ha":1236,"x_min":102,"x_max":1164,"o":"m 153 38 q 107 140 121 79 q 102 180 102 161 q 118 235 102 213 q 189 260 130 252 q 267 254 250 267 q 309 161 302 225 q 301 57 315 99 q 232 20 290 28 q 205 18 217 18 q 153 38 168 18 m 557 64 q 513 164 526 103 q 522 260 498 225 q 594 285 534 278 q 633 288 617 288 q 671 279 661 288 q 715 186 708 251 q 705 83 720 123 q 637 45 696 53 q 557 64 578 37 m 1005 42 q 960 142 974 81 q 970 239 945 203 q 1042 263 982 256 q 1119 258 1101 271 q 1162 164 1156 229 q 1164 133 1164 148 q 1153 61 1164 91 q 1085 23 1143 31 q 1059 22 1072 22 q 1005 42 1021 22 z "},"":{"ha":1389,"x_min":75,"x_max":1317,"o":"m 340 1039 q 336 901 336 970 q 341 707 336 836 q 346 515 346 579 q 285 477 346 486 q 262 476 273 476 q 241 479 250 476 q 228 499 227 484 q 239 751 233 594 q 235 1025 243 884 q 130 1008 199 1019 q 83 1066 102 1001 q 75 1107 75 1092 q 92 1130 75 1130 q 286 1152 164 1128 q 452 1175 408 1175 q 517 1120 499 1175 q 522 1095 522 1105 q 476 1051 522 1062 q 403 1044 463 1048 q 340 1039 373 1042 m 1317 533 l 1317 529 q 1260 492 1317 503 q 1214 490 1229 486 q 1200 509 1199 494 q 1175 894 1204 644 q 1077 712 1128 825 q 1005 521 1020 590 q 945 496 1000 500 q 888 513 890 491 q 836 736 880 601 q 745 945 791 872 q 732 524 727 686 q 670 488 732 494 q 625 490 639 484 q 614 511 612 496 q 636 819 637 659 l 636 1124 q 701 1157 636 1153 q 780 1141 768 1161 q 867 940 807 1095 l 960 697 q 1070 933 1008 753 q 1124 1145 1124 1090 q 1144 1166 1124 1153 q 1195 1181 1164 1179 l 1206 1181 q 1245 1172 1229 1181 q 1265 1143 1264 1158 q 1286 838 1267 1119 q 1317 533 1298 654 z "},"":{"ha":465,"x_min":123,"x_max":425,"o":"m 373 1185 q 419 1084 406 1146 q 425 1043 425 1062 q 408 987 425 1009 q 338 963 397 971 q 260 970 278 956 q 217 1062 224 998 q 225 1166 212 1128 q 294 1202 235 1194 q 321 1204 309 1204 q 373 1185 358 1204 m 336 47 q 228 9 338 14 l 216 9 q 167 14 190 9 q 123 38 123 20 l 123 41 q 172 408 155 186 q 201 777 198 751 q 300 814 205 812 q 353 810 330 815 q 387 781 391 802 q 336 47 324 435 z "},"":{"ha":1004,"x_min":83,"x_max":879,"o":"m 602 1161 q 647 1059 632 1123 q 636 963 661 997 q 566 939 624 947 q 488 945 506 932 q 445 1038 452 974 q 453 1142 438 1103 q 522 1177 463 1171 q 549 1180 537 1180 q 602 1161 587 1180 m 396 578 q 490 639 490 589 q 488 655 490 647 q 492 743 471 720 q 579 792 533 789 q 650 785 621 795 q 675 644 678 774 q 666 498 674 595 q 534 430 666 452 q 435 423 502 425 q 255 339 255 422 q 328 216 255 262 q 471 178 392 175 q 675 244 593 183 q 718 300 713 273 q 704 365 722 328 q 700 380 700 373 q 753 434 700 410 q 789 444 773 444 q 878 241 857 444 q 879 227 879 235 q 732 58 879 125 q 509 7 617 7 q 483 8 495 7 q 323 24 376 14 q 182 90 227 43 q 104 229 132 141 q 83 373 83 302 l 83 389 q 115 517 87 468 q 225 575 153 581 q 396 578 317 568 z "},"":{"ha":978,"x_min":75,"x_max":955,"o":"m 411 892 q 448 945 410 925 q 521 963 477 960 q 595 952 563 966 q 640 903 636 936 q 779 503 690 700 l 952 115 q 955 104 955 110 q 883 45 955 73 q 819 28 844 28 q 784 49 792 28 l 749 140 q 715 231 731 184 l 505 241 q 377 244 441 244 q 292 243 334 244 q 269 42 266 142 q 205 4 270 4 q 123 22 164 4 q 75 75 75 43 l 75 76 q 252 530 87 278 q 359 703 340 666 q 411 892 414 807 m 656 392 q 534 701 600 545 q 347 393 467 601 q 502 388 425 387 q 656 392 579 389 m 632 1234 q 650 1241 642 1241 q 669 1234 659 1241 q 707 1158 708 1210 q 692 1112 701 1137 l 593 1058 q 480 994 541 1028 q 433 1008 450 993 q 396 1080 392 1031 q 418 1112 397 1103 q 526 1171 472 1142 q 632 1234 587 1204 z "},"":{"ha":708,"x_min":90,"x_max":644,"o":"m 90 899 l 90 902 q 156 948 90 937 q 209 952 186 952 q 260 944 240 952 q 381 937 319 936 q 524 941 456 940 q 572 909 555 941 q 587 852 586 883 q 576 798 587 819 q 529 768 562 765 q 395 779 521 768 q 260 784 316 785 q 256 655 256 720 q 256 525 255 590 q 340 519 298 519 q 456 526 387 519 q 570 540 513 533 q 623 511 601 543 q 643 456 637 488 q 644 437 644 446 q 594 366 644 366 q 461 369 509 365 q 263 354 410 373 l 262 354 q 270 194 264 271 q 396 203 331 195 l 541 222 q 600 197 575 227 q 625 141 618 175 q 627 119 627 130 q 572 49 627 52 q 387 42 479 46 q 199 27 281 38 q 174 23 187 23 q 129 33 153 23 q 90 66 90 47 q 98 475 90 263 q 90 899 106 694 m 458 1240 q 476 1246 468 1246 q 495 1240 486 1246 q 533 1164 534 1215 q 518 1118 528 1142 l 419 1063 q 307 1000 368 1034 q 259 1013 277 998 q 222 1085 218 1036 q 244 1118 224 1108 q 353 1176 298 1147 q 458 1240 414 1210 z "},"":{"ha":780,"x_min":71,"x_max":719,"o":"m 473 817 q 464 605 464 712 q 480 209 464 488 q 621 218 488 209 q 689 196 662 221 q 719 134 716 171 l 719 130 q 696 72 719 95 q 628 46 670 46 q 525 47 590 46 l 422 47 q 113 34 294 47 l 109 34 q 77 68 87 34 q 71 122 71 92 q 117 209 72 214 q 301 201 217 198 q 309 620 309 654 q 305 814 309 716 q 145 803 243 811 q 84 888 102 799 q 80 926 80 907 q 109 974 80 978 q 339 968 227 960 l 605 986 q 683 958 651 990 q 715 884 715 926 q 640 815 715 815 q 556 816 612 815 q 473 817 500 817 m 496 1263 q 514 1270 506 1270 q 533 1263 524 1270 q 571 1187 572 1238 q 556 1141 566 1165 l 457 1086 q 345 1023 406 1057 q 297 1036 315 1021 q 260 1108 256 1059 q 282 1141 262 1131 q 391 1199 336 1171 q 496 1263 452 1233 z "},"":{"ha":910,"x_min":91,"x_max":850,"o":"m 795 895 q 841 604 806 819 q 850 486 850 547 q 739 109 850 227 q 461 14 656 20 l 439 14 q 153 159 237 14 q 91 476 91 266 q 100 637 91 555 q 129 906 113 734 q 206 951 132 949 q 264 939 245 951 q 281 902 282 926 q 254 677 278 837 q 233 452 233 534 q 465 184 235 178 q 708 461 708 191 q 682 667 708 548 q 632 871 677 697 q 629 898 629 886 q 696 956 629 949 q 764 943 736 960 q 795 895 791 925 m 587 1267 q 605 1274 597 1274 q 624 1267 614 1274 q 662 1191 663 1242 q 647 1145 656 1169 l 548 1090 q 435 1027 496 1061 q 388 1040 406 1025 q 351 1112 347 1063 q 373 1145 353 1135 q 481 1203 427 1175 q 587 1267 543 1237 z "},"":{"ha":978,"x_min":75,"x_max":955,"o":"m 411 892 q 448 945 410 925 q 521 963 477 960 q 595 952 563 966 q 640 903 636 936 q 779 503 690 700 l 952 115 q 955 104 955 110 q 883 45 955 73 q 819 28 844 28 q 784 49 792 28 l 749 140 q 715 231 731 184 l 505 241 q 377 244 441 244 q 292 243 334 244 q 269 42 266 142 q 205 4 270 4 q 123 22 164 4 q 75 75 75 43 l 75 76 q 252 530 87 278 q 359 703 340 666 q 411 892 414 807 m 656 392 q 534 701 600 545 q 347 393 467 601 q 502 388 425 387 q 656 392 579 389 m 632 1234 q 650 1241 642 1241 q 669 1234 659 1241 q 707 1158 708 1210 q 692 1112 701 1137 l 593 1058 q 480 994 541 1028 q 433 1008 450 993 q 396 1080 392 1031 q 418 1112 397 1103 q 526 1171 472 1142 q 632 1234 587 1204 z "},"":{"ha":708,"x_min":90,"x_max":644,"o":"m 90 899 l 90 902 q 156 948 90 937 q 209 952 186 952 q 260 944 240 952 q 381 937 319 936 q 524 941 456 940 q 572 909 555 941 q 587 852 586 883 q 576 798 587 819 q 529 768 562 765 q 395 779 521 768 q 260 784 316 785 q 256 655 256 720 q 256 525 255 590 q 340 519 298 519 q 456 526 387 519 q 570 540 513 533 q 623 511 601 543 q 643 456 637 488 q 644 437 644 446 q 594 366 644 366 q 461 369 509 365 q 263 354 410 373 l 262 354 q 270 194 264 271 q 396 203 331 195 l 541 222 q 600 197 575 227 q 625 141 618 175 q 627 119 627 130 q 572 49 627 52 q 387 42 479 46 q 199 27 281 38 q 174 23 187 23 q 129 33 153 23 q 90 66 90 47 q 98 475 90 263 q 90 899 106 694 m 458 1240 q 476 1246 468 1246 q 495 1240 486 1246 q 533 1164 534 1215 q 518 1118 528 1142 l 419 1063 q 307 1000 368 1034 q 259 1013 277 998 q 222 1085 218 1036 q 244 1118 224 1108 q 353 1176 298 1147 q 458 1240 414 1210 z "},"":{"ha":395,"x_min":75,"x_max":385,"o":"m 110 902 q 203 951 107 939 q 229 952 217 952 q 296 922 300 952 q 278 509 267 712 q 296 99 290 237 q 203 49 297 60 q 176 46 190 46 q 110 77 110 46 q 118 481 110 271 q 110 902 126 701 m 311 1242 q 328 1249 320 1249 q 347 1242 338 1249 q 385 1166 385 1218 q 370 1120 380 1145 l 270 1066 q 159 1002 220 1036 q 111 1016 129 1001 q 75 1080 75 1036 l 75 1088 q 96 1120 76 1111 q 205 1179 151 1150 q 311 1242 264 1213 z "},"":{"ha":972,"x_min":43,"x_max":929,"o":"m 530 974 q 830 872 711 974 q 929 583 929 788 q 925 490 929 540 q 442 5 878 5 q 140 129 245 5 q 43 415 43 240 q 47 490 43 452 q 179 822 65 690 q 530 974 311 974 m 600 793 q 538 800 568 800 q 366 751 452 800 q 205 547 251 684 q 180 418 180 477 q 206 308 180 358 q 373 184 254 208 q 439 178 406 178 q 606 218 522 178 q 768 433 724 275 q 787 566 787 509 q 600 793 787 755 m 640 1276 q 658 1283 650 1283 q 677 1276 667 1283 q 715 1200 716 1252 q 700 1154 709 1179 l 601 1100 q 488 1036 549 1070 q 441 1050 458 1035 q 404 1122 400 1073 q 426 1154 406 1145 q 534 1213 480 1184 q 640 1276 595 1246 z "},"":{"ha":910,"x_min":91,"x_max":850,"o":"m 795 895 q 841 604 806 819 q 850 486 850 547 q 739 109 850 227 q 461 14 656 20 l 439 14 q 153 159 237 14 q 91 476 91 266 q 100 637 91 555 q 129 906 113 734 q 206 951 132 949 q 264 939 245 951 q 281 902 282 926 q 254 677 278 837 q 233 452 233 534 q 465 184 235 178 q 708 461 708 191 q 682 667 708 548 q 632 871 677 697 q 629 898 629 886 q 696 956 629 949 q 764 943 736 960 q 795 895 791 925 m 587 1267 q 605 1274 597 1274 q 624 1267 614 1274 q 662 1191 663 1242 q 647 1145 656 1169 l 548 1090 q 435 1027 496 1061 q 388 1040 406 1025 q 351 1112 347 1063 q 373 1145 353 1135 q 481 1203 427 1175 q 587 1267 543 1237 z "},"":{"ha":907,"x_min":-66,"x_max":853,"o":"m 216 1097 q 397 1111 315 1111 q 699 1035 594 1111 q 853 627 846 925 l 853 608 q 661 190 853 334 q 186 50 488 62 l 137 50 q 103 91 100 50 q 122 624 122 396 q 114 894 122 757 q 34 979 45 892 q 33 1001 33 990 q 90 1077 33 1067 q 216 1097 132 1086 m 279 939 q 275 728 275 834 q 286 239 275 732 q 589 340 490 259 q 692 629 705 437 q 404 952 670 952 q 279 939 349 952 m -27 449 l -30 449 q -66 548 -62 449 l -66 559 q -61 606 -66 583 q -31 646 -53 650 q 174 639 73 629 l 412 659 l 419 659 q 473 633 453 659 q 496 564 495 605 q 477 495 496 524 q 416 463 456 463 q 241 465 304 461 q -27 449 168 469 z "},"":{"ha":907,"x_min":-66,"x_max":853,"o":"m 216 1097 q 397 1111 315 1111 q 699 1035 594 1111 q 853 627 846 925 l 853 608 q 661 190 853 334 q 186 50 488 62 l 137 50 q 103 91 100 50 q 122 624 122 396 q 114 894 122 757 q 34 979 45 892 q 33 1001 33 990 q 90 1077 33 1067 q 216 1097 132 1086 m 279 939 q 275 728 275 834 q 286 239 275 732 q 589 340 490 259 q 692 629 705 437 q 404 952 670 952 q 279 939 349 952 m -27 449 l -30 449 q -66 548 -62 449 l -66 559 q -61 606 -66 583 q -31 646 -53 650 q 174 639 73 629 l 412 659 l 419 659 q 473 633 453 659 q 496 564 495 605 q 477 495 496 524 q 416 463 456 463 q 241 465 304 461 q -27 449 168 469 z "},"":{"ha":780,"x_min":71,"x_max":719,"o":"m 473 932 q 464 689 464 811 q 480 235 464 555 q 621 245 488 235 q 689 220 662 248 q 719 149 716 191 l 719 145 q 696 77 719 104 q 628 47 670 47 q 525 49 590 47 q 422 50 452 50 q 113 34 294 50 l 110 34 q 77 73 87 34 q 71 134 71 100 q 117 235 72 240 q 301 225 217 222 q 309 705 309 745 q 305 928 309 817 q 145 916 243 925 q 84 1015 102 911 q 80 1057 80 1036 q 109 1112 80 1116 q 339 1105 227 1096 l 605 1126 l 614 1126 q 684 1093 654 1126 q 715 1009 715 1057 q 640 929 715 929 q 556 930 612 929 q 473 932 500 932 m 250 1263 q 208 1222 235 1221 q 155 1257 174 1223 q 134 1321 137 1284 l 134 1328 q 167 1411 134 1364 q 241 1461 202 1461 q 266 1454 254 1461 q 353 1389 292 1439 q 442 1329 406 1344 q 460 1326 450 1326 q 545 1393 499 1326 q 604 1438 575 1438 q 652 1408 637 1439 q 662 1355 662 1386 l 662 1345 q 628 1259 661 1301 q 518 1185 574 1185 q 507 1187 513 1185 q 400 1221 457 1192 q 304 1282 376 1234 q 278 1290 289 1290 q 250 1263 259 1290 z "},"":{"ha":910,"x_min":91,"x_max":850,"o":"m 795 1023 q 841 688 806 935 q 850 553 850 623 q 739 122 850 258 q 461 14 656 22 l 439 14 q 153 179 237 14 q 91 543 91 302 q 100 727 91 632 q 129 1035 113 837 q 206 1085 132 1084 q 264 1072 245 1085 q 281 1029 282 1058 q 254 772 278 955 q 233 514 233 609 q 465 209 235 201 q 708 525 708 217 q 682 761 708 625 q 632 994 677 796 q 629 1025 629 1010 q 696 1092 629 1084 q 709 1093 703 1093 q 764 1077 741 1093 q 795 1023 791 1057 m 334 1263 q 292 1222 319 1221 q 239 1257 258 1223 q 218 1321 221 1284 l 218 1328 q 251 1411 218 1364 q 326 1461 286 1461 q 350 1454 338 1461 q 437 1389 376 1439 q 526 1329 490 1344 q 544 1326 534 1326 q 629 1393 583 1326 q 688 1438 659 1438 q 736 1408 722 1439 q 746 1355 746 1386 l 746 1345 q 712 1259 745 1301 q 602 1185 658 1185 q 591 1187 597 1185 q 484 1221 541 1192 q 388 1282 460 1234 q 362 1290 373 1290 q 334 1263 343 1290 z "},"":{"ha":910,"x_min":91,"x_max":850,"o":"m 795 1023 q 841 688 806 935 q 850 553 850 623 q 739 122 850 258 q 461 14 656 22 l 439 14 q 153 179 237 14 q 91 543 91 302 q 100 727 91 632 q 129 1035 113 837 q 206 1085 132 1084 q 264 1072 245 1085 q 281 1029 282 1058 q 254 772 278 955 q 233 514 233 609 q 465 209 235 201 q 708 525 708 217 q 682 761 708 625 q 632 994 677 796 q 629 1025 629 1010 q 696 1092 629 1084 q 709 1093 703 1093 q 764 1077 741 1093 q 795 1023 791 1057 m 334 1263 q 292 1222 319 1221 q 239 1257 258 1223 q 218 1321 221 1284 l 218 1328 q 251 1411 218 1364 q 326 1461 286 1461 q 350 1454 338 1461 q 437 1389 376 1439 q 526 1329 490 1344 q 544 1326 534 1326 q 629 1393 583 1326 q 688 1438 659 1438 q 736 1408 722 1439 q 746 1355 746 1386 l 746 1345 q 712 1259 745 1301 q 602 1185 658 1185 q 591 1187 597 1185 q 484 1221 541 1192 q 388 1282 460 1234 q 362 1290 373 1290 q 334 1263 343 1290 z "},"":{"ha":972,"x_min":43,"x_max":1123,"o":"m 530 1114 q 830 997 711 1114 q 929 667 929 901 q 925 559 929 617 q 442 5 878 5 q 140 146 245 5 q 43 475 43 274 q 47 559 43 515 q 179 940 65 789 q 530 1114 311 1114 m 600 907 q 538 914 568 914 q 366 859 452 914 q 205 624 251 781 q 180 477 180 545 q 206 351 180 408 q 373 210 254 237 q 439 202 406 202 q 606 250 522 202 q 768 495 724 315 q 787 647 787 581 q 600 907 787 864 m 906 860 q 979 899 944 872 q 1054 974 1016 928 q 1107 1076 1092 1020 q 1098 1189 1123 1133 q 920 1293 1073 1245 q 792 1213 810 1248 q 785 1163 774 1177 q 806 1135 795 1149 q 824 1117 818 1120 q 867 1134 830 1114 q 944 1140 903 1154 q 989 1112 985 1126 q 980 1057 994 1097 q 913 994 966 1017 q 854 970 878 978 q 906 860 888 925 z "},"":{"ha":972,"x_min":43,"x_max":1123,"o":"m 530 1114 q 830 997 711 1114 q 929 667 929 901 q 925 559 929 617 q 442 5 878 5 q 140 146 245 5 q 43 475 43 274 q 47 559 43 515 q 179 940 65 789 q 530 1114 311 1114 m 600 907 q 538 914 568 914 q 366 859 452 914 q 205 624 251 781 q 180 477 180 545 q 206 351 180 408 q 373 210 254 237 q 439 202 406 202 q 606 250 522 202 q 768 495 724 315 q 787 647 787 581 q 600 907 787 864 m 906 860 q 979 899 944 872 q 1054 974 1016 928 q 1107 1076 1092 1020 q 1098 1189 1123 1133 q 920 1293 1073 1245 q 792 1213 810 1248 q 785 1163 774 1177 q 806 1135 795 1149 q 824 1117 818 1120 q 867 1134 830 1114 q 944 1140 903 1154 q 989 1112 985 1126 q 980 1057 994 1097 q 913 994 966 1017 q 854 970 878 978 q 906 860 888 925 z "},"":{"ha":910,"x_min":91,"x_max":963,"o":"m 795 1023 q 841 688 806 935 q 850 553 850 623 q 739 122 850 258 q 461 14 656 22 l 439 14 q 153 179 237 14 q 91 543 91 302 q 100 727 91 632 q 129 1035 113 837 q 206 1085 132 1084 q 264 1072 245 1085 q 281 1029 282 1058 q 254 772 278 955 q 233 514 233 609 q 465 209 235 201 q 708 525 708 217 q 682 761 708 625 q 632 994 677 796 q 629 1025 629 1010 q 696 1092 629 1084 q 709 1093 703 1093 q 764 1077 741 1093 q 795 1023 791 1057 m 800 981 q 844 1008 823 990 q 906 1069 875 1031 q 950 1154 937 1107 q 942 1246 963 1200 q 795 1332 921 1293 q 690 1266 704 1295 q 684 1225 675 1237 q 701 1202 692 1214 q 716 1187 711 1190 q 751 1201 722 1184 q 815 1206 781 1218 q 852 1183 849 1195 q 844 1138 856 1171 q 789 1085 833 1105 q 766 1076 777 1080 q 795 1023 791 1055 q 800 981 798 1005 z "},"":{"ha":910,"x_min":91,"x_max":963,"o":"m 795 1023 q 841 688 806 935 q 850 553 850 623 q 739 122 850 258 q 461 14 656 22 l 439 14 q 153 179 237 14 q 91 543 91 302 q 100 727 91 632 q 129 1035 113 837 q 206 1085 132 1084 q 264 1072 245 1085 q 281 1029 282 1058 q 254 772 278 955 q 233 514 233 609 q 465 209 235 201 q 708 525 708 217 q 682 761 708 625 q 632 994 677 796 q 629 1025 629 1010 q 696 1092 629 1084 q 709 1093 703 1093 q 764 1077 741 1093 q 795 1023 791 1057 m 800 981 q 844 1008 823 990 q 906 1069 875 1031 q 950 1154 937 1107 q 942 1246 963 1200 q 795 1332 921 1293 q 690 1266 704 1295 q 684 1225 675 1237 q 701 1202 692 1214 q 716 1187 711 1190 q 751 1201 722 1184 q 815 1206 781 1218 q 852 1183 849 1195 q 844 1138 856 1171 q 789 1085 833 1105 q 766 1076 777 1080 q 795 1023 791 1055 q 800 981 798 1005 z "},"":{"ha":978,"x_min":75,"x_max":955,"o":"m 411 1028 q 448 1089 410 1066 q 521 1109 477 1107 l 533 1109 q 595 1097 568 1109 q 640 1040 636 1078 q 779 579 690 806 l 952 133 q 955 119 955 126 q 883 52 955 84 q 819 33 844 33 q 784 56 792 33 l 749 160 q 715 266 731 212 l 505 278 q 377 281 441 281 q 292 279 334 281 q 269 47 266 164 q 205 4 270 4 q 123 24 164 4 q 75 85 75 50 l 75 87 q 252 610 87 320 q 359 810 340 766 q 411 1028 414 929 m 656 452 q 534 807 600 628 q 347 453 467 692 q 502 446 425 445 q 656 452 579 448 m 465 -254 q 425 -165 437 -218 q 420 -130 420 -146 q 434 -84 420 -103 q 495 -61 445 -69 q 526 -60 513 -60 q 563 -68 553 -60 q 600 -146 594 -92 q 601 -176 601 -163 q 593 -237 601 -212 q 533 -269 583 -262 q 510 -271 519 -271 q 465 -254 477 -271 z "},"":{"ha":978,"x_min":75,"x_max":955,"o":"m 411 1028 q 448 1089 410 1066 q 521 1109 477 1107 l 533 1109 q 595 1097 568 1109 q 640 1040 636 1078 q 779 579 690 806 l 952 133 q 955 119 955 126 q 883 52 955 84 q 819 33 844 33 q 784 56 792 33 l 749 160 q 715 266 731 212 l 505 278 q 377 281 441 281 q 292 279 334 281 q 269 47 266 164 q 205 4 270 4 q 123 24 164 4 q 75 85 75 50 l 75 87 q 252 610 87 320 q 359 810 340 766 q 411 1028 414 929 m 656 452 q 534 807 600 628 q 347 453 467 692 q 502 446 425 445 q 656 452 579 448 m 465 -254 q 425 -165 437 -218 q 420 -130 420 -146 q 434 -84 420 -103 q 495 -61 445 -69 q 526 -60 513 -60 q 563 -68 553 -60 q 600 -146 594 -92 q 601 -176 601 -163 q 593 -237 601 -212 q 533 -269 583 -262 q 510 -271 519 -271 q 465 -254 477 -271 z "},"":{"ha":978,"x_min":75,"x_max":955,"o":"m 411 1028 q 448 1089 410 1066 q 521 1109 477 1107 l 533 1109 q 595 1097 568 1109 q 640 1040 636 1078 q 779 579 690 806 l 952 133 q 955 119 955 126 q 883 52 955 84 q 819 33 844 33 q 784 56 792 33 l 749 160 q 715 266 731 212 l 505 278 q 377 281 441 281 q 292 279 334 281 q 269 47 266 164 q 205 4 270 4 q 123 24 164 4 q 75 85 75 50 l 75 87 q 252 610 87 320 q 359 810 340 766 q 411 1028 414 929 m 656 452 q 534 807 600 628 q 347 453 467 692 q 502 446 425 445 q 656 452 579 448 m 419 1382 q 491 1472 439 1446 q 583 1497 543 1497 q 646 1470 624 1497 q 677 1412 667 1442 q 688 1343 688 1382 q 649 1258 688 1305 q 587 1196 610 1211 q 545 1181 564 1181 q 513 1200 525 1181 q 538 1264 500 1219 q 587 1335 576 1309 q 594 1377 598 1360 q 564 1396 590 1394 q 524 1379 538 1398 q 491 1341 509 1360 q 450 1317 473 1321 q 419 1382 427 1313 z "},"":{"ha":978,"x_min":75,"x_max":955,"o":"m 411 1028 q 448 1089 410 1066 q 521 1109 477 1107 l 533 1109 q 595 1097 568 1109 q 640 1040 636 1078 q 779 579 690 806 l 952 133 q 955 119 955 126 q 883 52 955 84 q 819 33 844 33 q 784 56 792 33 l 749 160 q 715 266 731 212 l 505 278 q 377 281 441 281 q 292 279 334 281 q 269 47 266 164 q 205 4 270 4 q 123 24 164 4 q 75 85 75 50 l 75 87 q 252 610 87 320 q 359 810 340 766 q 411 1028 414 929 m 656 452 q 534 807 600 628 q 347 453 467 692 q 502 446 425 445 q 656 452 579 448 m 419 1382 q 491 1472 439 1446 q 583 1497 543 1497 q 646 1470 624 1497 q 677 1412 667 1442 q 688 1343 688 1382 q 649 1258 688 1305 q 587 1196 610 1211 q 545 1181 564 1181 q 513 1200 525 1181 q 538 1264 500 1219 q 587 1335 576 1309 q 594 1377 598 1360 q 564 1396 590 1394 q 524 1379 538 1398 q 491 1341 509 1360 q 450 1317 473 1321 q 419 1382 427 1313 z "},"":{"ha":978,"x_min":75,"x_max":955,"o":"m 411 1028 q 448 1089 410 1066 q 521 1109 477 1107 l 533 1109 q 595 1097 568 1109 q 640 1040 636 1078 q 779 579 690 806 l 952 133 q 955 119 955 126 q 883 52 955 84 q 819 33 844 33 q 784 56 792 33 l 749 160 q 715 266 731 212 l 505 278 q 377 281 441 281 q 292 279 334 281 q 269 47 266 164 q 205 4 270 4 q 123 24 164 4 q 75 85 75 50 l 75 87 q 252 610 87 320 q 359 810 340 766 q 411 1028 414 929 m 656 452 q 534 807 600 628 q 347 453 467 692 q 502 446 425 445 q 656 452 579 448 m 297 1218 l 431 1354 q 499 1385 460 1381 l 502 1385 q 563 1359 540 1386 q 739 1221 646 1282 l 762 1206 l 754 1202 q 688 1137 728 1142 q 643 1124 665 1133 q 633 1131 637 1127 q 509 1217 586 1164 q 414 1130 458 1172 q 331 1162 370 1138 q 297 1218 285 1190 m 861 1519 q 879 1526 871 1526 q 898 1519 888 1526 q 936 1443 937 1495 q 921 1397 930 1421 l 822 1343 q 709 1279 770 1313 q 662 1293 680 1278 q 625 1364 621 1316 q 647 1397 627 1388 q 755 1455 701 1427 q 861 1519 817 1489 z "},"":{"ha":978,"x_min":75,"x_max":955,"o":"m 411 1028 q 448 1089 410 1066 q 521 1109 477 1107 l 533 1109 q 595 1097 568 1109 q 640 1040 636 1078 q 779 579 690 806 l 952 133 q 955 119 955 126 q 883 52 955 84 q 819 33 844 33 q 784 56 792 33 l 749 160 q 715 266 731 212 l 505 278 q 377 281 441 281 q 292 279 334 281 q 269 47 266 164 q 205 4 270 4 q 123 24 164 4 q 75 85 75 50 l 75 87 q 252 610 87 320 q 359 810 340 766 q 411 1028 414 929 m 656 452 q 534 807 600 628 q 347 453 467 692 q 502 446 425 445 q 656 452 579 448 m 297 1218 l 431 1354 q 499 1385 460 1381 l 502 1385 q 563 1359 540 1386 q 739 1221 646 1282 l 762 1206 l 754 1202 q 688 1137 728 1142 q 643 1124 665 1133 q 633 1131 637 1127 q 509 1217 586 1164 q 414 1130 458 1172 q 331 1162 370 1138 q 297 1218 285 1190 m 861 1519 q 879 1526 871 1526 q 898 1519 888 1526 q 936 1443 937 1495 q 921 1397 930 1421 l 822 1343 q 709 1279 770 1313 q 662 1293 680 1278 q 625 1364 621 1316 q 647 1397 627 1388 q 755 1455 701 1427 q 861 1519 817 1489 z "},"":{"ha":978,"x_min":62,"x_max":955,"o":"m 411 1028 q 448 1089 410 1066 q 521 1109 477 1107 l 533 1109 q 595 1097 568 1109 q 640 1040 636 1078 q 779 579 690 806 l 952 133 q 955 119 955 126 q 883 52 955 84 q 819 33 844 33 q 784 56 792 33 l 749 160 q 715 266 731 212 l 505 278 q 377 281 441 281 q 292 279 334 281 q 269 47 266 164 q 205 4 270 4 q 123 24 164 4 q 75 85 75 50 l 75 87 q 252 610 87 320 q 359 810 340 766 q 411 1028 414 929 m 656 452 q 534 807 600 628 q 347 453 467 692 q 502 446 425 445 q 656 452 579 448 m 297 1218 l 431 1354 q 499 1385 460 1381 l 502 1385 q 563 1359 540 1386 q 739 1221 646 1282 l 762 1206 l 754 1202 q 688 1137 728 1142 q 643 1124 665 1133 q 633 1131 637 1127 q 509 1217 586 1164 q 414 1130 458 1172 q 331 1162 370 1138 q 297 1218 285 1190 m 366 1398 q 382 1388 378 1394 q 388 1367 388 1379 q 347 1293 391 1321 q 301 1279 327 1284 l 199 1329 q 83 1385 145 1354 q 66 1431 65 1408 q 104 1503 62 1477 q 144 1503 125 1515 q 254 1447 199 1476 q 366 1398 316 1417 z "},"":{"ha":978,"x_min":62,"x_max":955,"o":"m 411 1028 q 448 1089 410 1066 q 521 1109 477 1107 l 533 1109 q 595 1097 568 1109 q 640 1040 636 1078 q 779 579 690 806 l 952 133 q 955 119 955 126 q 883 52 955 84 q 819 33 844 33 q 784 56 792 33 l 749 160 q 715 266 731 212 l 505 278 q 377 281 441 281 q 292 279 334 281 q 269 47 266 164 q 205 4 270 4 q 123 24 164 4 q 75 85 75 50 l 75 87 q 252 610 87 320 q 359 810 340 766 q 411 1028 414 929 m 656 452 q 534 807 600 628 q 347 453 467 692 q 502 446 425 445 q 656 452 579 448 m 297 1218 l 431 1354 q 499 1385 460 1381 l 502 1385 q 563 1359 540 1386 q 739 1221 646 1282 l 762 1206 l 754 1202 q 688 1137 728 1142 q 643 1124 665 1133 q 633 1131 637 1127 q 509 1217 586 1164 q 414 1130 458 1172 q 331 1162 370 1138 q 297 1218 285 1190 m 366 1398 q 382 1388 378 1394 q 388 1367 388 1379 q 347 1293 391 1321 q 301 1279 327 1284 l 199 1329 q 83 1385 145 1354 q 66 1431 65 1408 q 104 1503 62 1477 q 144 1503 125 1515 q 254 1447 199 1476 q 366 1398 316 1417 z "},"":{"ha":978,"x_min":75,"x_max":955,"o":"m 411 1028 q 448 1089 410 1066 q 521 1109 477 1107 l 533 1109 q 595 1097 568 1109 q 640 1040 636 1078 q 779 579 690 806 l 952 133 q 955 119 955 126 q 883 52 955 84 q 819 33 844 33 q 784 56 792 33 l 749 160 q 715 266 731 212 l 505 278 q 377 281 441 281 q 292 279 334 281 q 269 47 266 164 q 205 4 270 4 q 123 24 164 4 q 75 85 75 50 l 75 87 q 252 610 87 320 q 359 810 340 766 q 411 1028 414 929 m 656 452 q 534 807 600 628 q 347 453 467 692 q 502 446 425 445 q 656 452 579 448 m 297 1218 l 431 1354 q 499 1385 460 1381 l 502 1385 q 563 1359 540 1386 q 739 1221 646 1282 l 762 1206 l 754 1202 q 688 1137 728 1142 q 643 1124 665 1133 q 633 1131 637 1127 q 509 1217 586 1164 q 414 1130 458 1172 q 331 1162 370 1138 q 297 1218 285 1190 m 602 1473 q 674 1563 623 1537 q 766 1588 726 1588 q 829 1560 807 1588 q 861 1503 850 1533 q 871 1434 871 1473 q 832 1349 871 1396 q 770 1287 793 1302 q 728 1272 747 1272 q 696 1291 708 1272 q 722 1355 684 1310 q 770 1426 760 1400 q 777 1468 781 1451 q 747 1487 773 1485 q 707 1470 722 1489 q 674 1432 692 1451 q 633 1408 656 1412 q 602 1473 610 1404 z "},"":{"ha":978,"x_min":75,"x_max":955,"o":"m 411 1028 q 448 1089 410 1066 q 521 1109 477 1107 l 533 1109 q 595 1097 568 1109 q 640 1040 636 1078 q 779 579 690 806 l 952 133 q 955 119 955 126 q 883 52 955 84 q 819 33 844 33 q 784 56 792 33 l 749 160 q 715 266 731 212 l 505 278 q 377 281 441 281 q 292 279 334 281 q 269 47 266 164 q 205 4 270 4 q 123 24 164 4 q 75 85 75 50 l 75 87 q 252 610 87 320 q 359 810 340 766 q 411 1028 414 929 m 656 452 q 534 807 600 628 q 347 453 467 692 q 502 446 425 445 q 656 452 579 448 m 297 1218 l 431 1354 q 499 1385 460 1381 l 502 1385 q 563 1359 540 1386 q 739 1221 646 1282 l 762 1206 l 754 1202 q 688 1137 728 1142 q 643 1124 665 1133 q 633 1131 637 1127 q 509 1217 586 1164 q 414 1130 458 1172 q 331 1162 370 1138 q 297 1218 285 1190 m 602 1473 q 674 1563 623 1537 q 766 1588 726 1588 q 829 1560 807 1588 q 861 1503 850 1533 q 871 1434 871 1473 q 832 1349 871 1396 q 770 1287 793 1302 q 728 1272 747 1272 q 696 1291 708 1272 q 722 1355 684 1310 q 770 1426 760 1400 q 777 1468 781 1451 q 747 1487 773 1485 q 707 1470 722 1489 q 674 1432 692 1451 q 633 1408 656 1412 q 602 1473 610 1404 z "},"":{"ha":978,"x_min":75,"x_max":1131,"o":"m 411 1028 q 448 1089 410 1066 q 521 1109 477 1107 l 533 1109 q 595 1097 568 1109 q 640 1040 636 1078 q 779 579 690 806 l 952 133 q 955 119 955 126 q 883 52 955 84 q 819 33 844 33 q 784 56 792 33 l 749 160 q 715 266 731 212 l 505 278 q 377 281 441 281 q 292 279 334 281 q 269 47 266 164 q 205 4 270 4 q 123 24 164 4 q 75 85 75 50 l 75 87 q 252 610 87 320 q 359 810 340 766 q 411 1028 414 929 m 656 452 q 534 807 600 628 q 347 453 467 692 q 502 446 425 445 q 656 452 579 448 m 297 1218 l 431 1354 q 499 1385 460 1381 l 502 1385 q 563 1359 540 1386 q 739 1221 646 1282 l 762 1206 l 754 1202 q 688 1137 728 1142 q 643 1124 665 1133 q 633 1131 637 1127 q 509 1217 586 1164 q 414 1130 458 1172 q 331 1162 370 1138 q 297 1218 285 1190 m 719 1341 q 677 1301 704 1299 q 624 1336 643 1302 q 604 1400 606 1363 l 604 1407 q 636 1489 604 1443 q 711 1539 671 1539 q 735 1533 723 1539 q 822 1468 761 1518 q 911 1408 875 1423 q 929 1405 920 1405 q 1015 1472 968 1405 q 1073 1516 1044 1516 q 1122 1487 1107 1518 q 1131 1434 1131 1465 l 1131 1424 q 1097 1337 1130 1379 q 987 1264 1043 1264 q 977 1265 982 1264 q 869 1299 926 1271 q 773 1360 845 1313 q 747 1369 758 1369 q 719 1341 728 1369 z "},"":{"ha":978,"x_min":75,"x_max":1131,"o":"m 411 1028 q 448 1089 410 1066 q 521 1109 477 1107 l 533 1109 q 595 1097 568 1109 q 640 1040 636 1078 q 779 579 690 806 l 952 133 q 955 119 955 126 q 883 52 955 84 q 819 33 844 33 q 784 56 792 33 l 749 160 q 715 266 731 212 l 505 278 q 377 281 441 281 q 292 279 334 281 q 269 47 266 164 q 205 4 270 4 q 123 24 164 4 q 75 85 75 50 l 75 87 q 252 610 87 320 q 359 810 340 766 q 411 1028 414 929 m 656 452 q 534 807 600 628 q 347 453 467 692 q 502 446 425 445 q 656 452 579 448 m 297 1218 l 431 1354 q 499 1385 460 1381 l 502 1385 q 563 1359 540 1386 q 739 1221 646 1282 l 762 1206 l 754 1202 q 688 1137 728 1142 q 643 1124 665 1133 q 633 1131 637 1127 q 509 1217 586 1164 q 414 1130 458 1172 q 331 1162 370 1138 q 297 1218 285 1190 m 719 1341 q 677 1301 704 1299 q 624 1336 643 1302 q 604 1400 606 1363 l 604 1407 q 636 1489 604 1443 q 711 1539 671 1539 q 735 1533 723 1539 q 822 1468 761 1518 q 911 1408 875 1423 q 929 1405 920 1405 q 1015 1472 968 1405 q 1073 1516 1044 1516 q 1122 1487 1107 1518 q 1131 1434 1131 1465 l 1131 1424 q 1097 1337 1130 1379 q 987 1264 1043 1264 q 977 1265 982 1264 q 869 1299 926 1271 q 773 1360 845 1313 q 747 1369 758 1369 q 719 1341 728 1369 z "},"":{"ha":978,"x_min":75,"x_max":955,"o":"m 411 1028 q 448 1089 410 1066 q 521 1109 477 1107 l 533 1109 q 595 1097 568 1109 q 640 1040 636 1078 q 779 579 690 806 l 952 133 q 955 119 955 126 q 883 52 955 84 q 819 33 844 33 q 784 56 792 33 l 749 160 q 715 266 731 212 l 505 278 q 377 281 441 281 q 292 279 334 281 q 269 47 266 164 q 205 4 270 4 q 123 24 164 4 q 75 85 75 50 l 75 87 q 252 610 87 320 q 359 810 340 766 q 411 1028 414 929 m 656 452 q 534 807 600 628 q 347 453 467 692 q 502 446 425 445 q 656 452 579 448 m 297 1218 l 431 1354 q 499 1385 460 1381 l 502 1385 q 563 1359 540 1386 q 739 1221 646 1282 l 762 1206 l 754 1202 q 688 1137 728 1142 q 643 1124 665 1133 q 633 1131 637 1127 q 509 1217 586 1164 q 414 1130 458 1172 q 331 1162 370 1138 q 297 1218 285 1190 m 465 -254 q 425 -165 437 -218 q 420 -130 420 -146 q 434 -84 420 -103 q 495 -61 445 -69 q 526 -60 513 -60 q 563 -68 553 -60 q 600 -146 594 -92 q 601 -176 601 -163 q 593 -237 601 -212 q 533 -269 583 -262 q 510 -271 519 -271 q 465 -254 477 -271 z "},"":{"ha":978,"x_min":75,"x_max":955,"o":"m 411 1028 q 448 1089 410 1066 q 521 1109 477 1107 l 533 1109 q 595 1097 568 1109 q 640 1040 636 1078 q 779 579 690 806 l 952 133 q 955 119 955 126 q 883 52 955 84 q 819 33 844 33 q 784 56 792 33 l 749 160 q 715 266 731 212 l 505 278 q 377 281 441 281 q 292 279 334 281 q 269 47 266 164 q 205 4 270 4 q 123 24 164 4 q 75 85 75 50 l 75 87 q 252 610 87 320 q 359 810 340 766 q 411 1028 414 929 m 656 452 q 534 807 600 628 q 347 453 467 692 q 502 446 425 445 q 656 452 579 448 m 297 1218 l 431 1354 q 499 1385 460 1381 l 502 1385 q 563 1359 540 1386 q 739 1221 646 1282 l 762 1206 l 754 1202 q 688 1137 728 1142 q 643 1124 665 1133 q 633 1131 637 1127 q 509 1217 586 1164 q 414 1130 458 1172 q 331 1162 370 1138 q 297 1218 285 1190 m 465 -254 q 425 -165 437 -218 q 420 -130 420 -146 q 434 -84 420 -103 q 495 -61 445 -69 q 526 -60 513 -60 q 563 -68 553 -60 q 600 -146 594 -92 q 601 -176 601 -163 q 593 -237 601 -212 q 533 -269 583 -262 q 510 -271 519 -271 q 465 -254 477 -271 z "},"":{"ha":978,"x_min":75,"x_max":955,"o":"m 411 1028 q 448 1089 410 1066 q 521 1109 477 1107 l 533 1109 q 595 1097 568 1109 q 640 1040 636 1078 q 779 579 690 806 l 952 133 q 955 119 955 126 q 883 52 955 84 q 819 33 844 33 q 784 56 792 33 l 749 160 q 715 266 731 212 l 505 278 q 377 281 441 281 q 292 279 334 281 q 269 47 266 164 q 205 4 270 4 q 123 24 164 4 q 75 85 75 50 l 75 87 q 252 610 87 320 q 359 810 340 766 q 411 1028 414 929 m 656 452 q 534 807 600 628 q 347 453 467 692 q 502 446 425 445 q 656 452 579 448 m 754 1324 l 613 1183 q 541 1150 583 1154 l 540 1150 q 476 1176 500 1149 q 292 1321 389 1257 l 267 1337 l 277 1341 q 346 1409 304 1404 q 392 1423 370 1413 q 403 1415 397 1419 q 533 1326 452 1381 q 632 1416 585 1373 q 719 1382 678 1408 q 754 1324 766 1354 m 694 1610 q 712 1617 704 1617 q 731 1610 722 1617 q 769 1534 770 1586 q 754 1488 764 1512 l 655 1434 q 543 1370 604 1404 q 495 1383 513 1369 q 458 1455 454 1407 q 480 1488 460 1478 q 589 1546 534 1518 q 694 1610 650 1580 z "},"":{"ha":978,"x_min":75,"x_max":955,"o":"m 411 1028 q 448 1089 410 1066 q 521 1109 477 1107 l 533 1109 q 595 1097 568 1109 q 640 1040 636 1078 q 779 579 690 806 l 952 133 q 955 119 955 126 q 883 52 955 84 q 819 33 844 33 q 784 56 792 33 l 749 160 q 715 266 731 212 l 505 278 q 377 281 441 281 q 292 279 334 281 q 269 47 266 164 q 205 4 270 4 q 123 24 164 4 q 75 85 75 50 l 75 87 q 252 610 87 320 q 359 810 340 766 q 411 1028 414 929 m 656 452 q 534 807 600 628 q 347 453 467 692 q 502 446 425 445 q 656 452 579 448 m 754 1324 l 613 1183 q 541 1150 583 1154 l 540 1150 q 476 1176 500 1149 q 292 1321 389 1257 l 267 1337 l 277 1341 q 346 1409 304 1404 q 392 1423 370 1413 q 403 1415 397 1419 q 533 1326 452 1381 q 632 1416 585 1373 q 719 1382 678 1408 q 754 1324 766 1354 m 694 1610 q 712 1617 704 1617 q 731 1610 722 1617 q 769 1534 770 1586 q 754 1488 764 1512 l 655 1434 q 543 1370 604 1404 q 495 1383 513 1369 q 458 1455 454 1407 q 480 1488 460 1478 q 589 1546 534 1518 q 694 1610 650 1580 z "},"":{"ha":978,"x_min":75,"x_max":955,"o":"m 411 1028 q 448 1089 410 1066 q 521 1109 477 1107 l 533 1109 q 595 1097 568 1109 q 640 1040 636 1078 q 779 579 690 806 l 952 133 q 955 119 955 126 q 883 52 955 84 q 819 33 844 33 q 784 56 792 33 l 749 160 q 715 266 731 212 l 505 278 q 377 281 441 281 q 292 279 334 281 q 269 47 266 164 q 205 4 270 4 q 123 24 164 4 q 75 85 75 50 l 75 87 q 252 610 87 320 q 359 810 340 766 q 411 1028 414 929 m 656 452 q 534 807 600 628 q 347 453 467 692 q 502 446 425 445 q 656 452 579 448 m 754 1324 l 613 1183 q 541 1150 583 1154 l 540 1150 q 476 1176 500 1149 q 292 1321 389 1257 l 267 1337 l 277 1341 q 346 1409 304 1404 q 392 1423 370 1413 q 403 1415 397 1419 q 533 1326 452 1381 q 632 1416 585 1373 q 719 1382 678 1408 q 754 1324 766 1354 m 555 1522 q 571 1511 567 1518 q 576 1491 576 1503 q 536 1416 579 1444 q 490 1402 515 1408 l 388 1453 q 271 1508 334 1477 q 255 1554 254 1531 q 293 1626 251 1600 q 332 1626 313 1638 q 442 1571 388 1599 q 555 1522 505 1541 z "},"":{"ha":978,"x_min":75,"x_max":955,"o":"m 411 1028 q 448 1089 410 1066 q 521 1109 477 1107 l 533 1109 q 595 1097 568 1109 q 640 1040 636 1078 q 779 579 690 806 l 952 133 q 955 119 955 126 q 883 52 955 84 q 819 33 844 33 q 784 56 792 33 l 749 160 q 715 266 731 212 l 505 278 q 377 281 441 281 q 292 279 334 281 q 269 47 266 164 q 205 4 270 4 q 123 24 164 4 q 75 85 75 50 l 75 87 q 252 610 87 320 q 359 810 340 766 q 411 1028 414 929 m 656 452 q 534 807 600 628 q 347 453 467 692 q 502 446 425 445 q 656 452 579 448 m 754 1324 l 613 1183 q 541 1150 583 1154 l 540 1150 q 476 1176 500 1149 q 292 1321 389 1257 l 267 1337 l 277 1341 q 346 1409 304 1404 q 392 1423 370 1413 q 403 1415 397 1419 q 533 1326 452 1381 q 632 1416 585 1373 q 719 1382 678 1408 q 754 1324 766 1354 m 555 1522 q 571 1511 567 1518 q 576 1491 576 1503 q 536 1416 579 1444 q 490 1402 515 1408 l 388 1453 q 271 1508 334 1477 q 255 1554 254 1531 q 293 1626 251 1600 q 332 1626 313 1638 q 442 1571 388 1599 q 555 1522 505 1541 z "},"":{"ha":978,"x_min":75,"x_max":955,"o":"m 411 1028 q 448 1089 410 1066 q 521 1109 477 1107 l 533 1109 q 595 1097 568 1109 q 640 1040 636 1078 q 779 579 690 806 l 952 133 q 955 119 955 126 q 883 52 955 84 q 819 33 844 33 q 784 56 792 33 l 749 160 q 715 266 731 212 l 505 278 q 377 281 441 281 q 292 279 334 281 q 269 47 266 164 q 205 4 270 4 q 123 24 164 4 q 75 85 75 50 l 75 87 q 252 610 87 320 q 359 810 340 766 q 411 1028 414 929 m 656 452 q 534 807 600 628 q 347 453 467 692 q 502 446 425 445 q 656 452 579 448 m 754 1324 l 613 1183 q 541 1150 583 1154 l 540 1150 q 476 1176 500 1149 q 292 1321 389 1257 l 267 1337 l 277 1341 q 346 1409 304 1404 q 392 1423 370 1413 q 403 1415 397 1419 q 533 1326 452 1381 q 632 1416 585 1373 q 719 1382 678 1408 q 754 1324 766 1354 m 385 1614 q 457 1704 406 1678 q 549 1729 509 1729 q 612 1702 590 1729 q 644 1644 633 1674 q 654 1575 654 1614 q 615 1490 654 1537 q 553 1428 576 1443 q 511 1413 530 1413 q 479 1432 491 1413 q 505 1496 467 1451 q 553 1567 543 1541 q 560 1609 564 1592 q 530 1628 556 1626 q 490 1611 505 1630 q 457 1573 475 1592 q 416 1549 439 1553 q 385 1614 393 1545 z "},"":{"ha":978,"x_min":75,"x_max":955,"o":"m 411 1028 q 448 1089 410 1066 q 521 1109 477 1107 l 533 1109 q 595 1097 568 1109 q 640 1040 636 1078 q 779 579 690 806 l 952 133 q 955 119 955 126 q 883 52 955 84 q 819 33 844 33 q 784 56 792 33 l 749 160 q 715 266 731 212 l 505 278 q 377 281 441 281 q 292 279 334 281 q 269 47 266 164 q 205 4 270 4 q 123 24 164 4 q 75 85 75 50 l 75 87 q 252 610 87 320 q 359 810 340 766 q 411 1028 414 929 m 656 452 q 534 807 600 628 q 347 453 467 692 q 502 446 425 445 q 656 452 579 448 m 754 1324 l 613 1183 q 541 1150 583 1154 l 540 1150 q 476 1176 500 1149 q 292 1321 389 1257 l 267 1337 l 277 1341 q 346 1409 304 1404 q 392 1423 370 1413 q 403 1415 397 1419 q 533 1326 452 1381 q 632 1416 585 1373 q 719 1382 678 1408 q 754 1324 766 1354 m 385 1614 q 457 1704 406 1678 q 549 1729 509 1729 q 612 1702 590 1729 q 644 1644 633 1674 q 654 1575 654 1614 q 615 1490 654 1537 q 553 1428 576 1443 q 511 1413 530 1413 q 479 1432 491 1413 q 505 1496 467 1451 q 553 1567 543 1541 q 560 1609 564 1592 q 530 1628 556 1626 q 490 1611 505 1630 q 457 1573 475 1592 q 416 1549 439 1553 q 385 1614 393 1545 z "},"":{"ha":978,"x_min":75,"x_max":989,"o":"m 411 1028 q 448 1089 410 1066 q 521 1109 477 1107 l 533 1109 q 595 1097 568 1109 q 640 1040 636 1078 q 779 579 690 806 l 952 133 q 955 119 955 126 q 883 52 955 84 q 819 33 844 33 q 784 56 792 33 l 749 160 q 715 266 731 212 l 505 278 q 377 281 441 281 q 292 279 334 281 q 269 47 266 164 q 205 4 270 4 q 123 24 164 4 q 75 85 75 50 l 75 87 q 252 610 87 320 q 359 810 340 766 q 411 1028 414 929 m 656 452 q 534 807 600 628 q 347 453 467 692 q 502 446 425 445 q 656 452 579 448 m 754 1324 l 613 1183 q 541 1150 583 1154 l 540 1150 q 476 1176 500 1149 q 292 1321 389 1257 l 267 1337 l 277 1341 q 346 1409 304 1404 q 392 1423 370 1413 q 403 1415 397 1419 q 533 1326 452 1381 q 632 1416 585 1373 q 719 1382 678 1408 q 754 1324 766 1354 m 576 1430 q 534 1389 562 1388 q 481 1424 500 1390 q 461 1488 464 1451 l 461 1495 q 494 1577 461 1531 q 568 1628 529 1628 q 593 1621 581 1628 q 680 1556 618 1606 q 769 1496 732 1511 q 787 1493 777 1493 q 872 1560 826 1493 q 930 1605 902 1605 q 979 1575 964 1606 q 989 1522 989 1553 l 989 1512 q 955 1426 987 1468 q 845 1352 901 1352 q 834 1354 840 1352 q 727 1388 784 1359 q 631 1449 703 1401 q 605 1457 616 1457 q 576 1430 586 1457 z "},"":{"ha":978,"x_min":75,"x_max":989,"o":"m 411 1028 q 448 1089 410 1066 q 521 1109 477 1107 l 533 1109 q 595 1097 568 1109 q 640 1040 636 1078 q 779 579 690 806 l 952 133 q 955 119 955 126 q 883 52 955 84 q 819 33 844 33 q 784 56 792 33 l 749 160 q 715 266 731 212 l 505 278 q 377 281 441 281 q 292 279 334 281 q 269 47 266 164 q 205 4 270 4 q 123 24 164 4 q 75 85 75 50 l 75 87 q 252 610 87 320 q 359 810 340 766 q 411 1028 414 929 m 656 452 q 534 807 600 628 q 347 453 467 692 q 502 446 425 445 q 656 452 579 448 m 754 1324 l 613 1183 q 541 1150 583 1154 l 540 1150 q 476 1176 500 1149 q 292 1321 389 1257 l 267 1337 l 277 1341 q 346 1409 304 1404 q 392 1423 370 1413 q 403 1415 397 1419 q 533 1326 452 1381 q 632 1416 585 1373 q 719 1382 678 1408 q 754 1324 766 1354 m 576 1430 q 534 1389 562 1388 q 481 1424 500 1390 q 461 1488 464 1451 l 461 1495 q 494 1577 461 1531 q 568 1628 529 1628 q 593 1621 581 1628 q 680 1556 618 1606 q 769 1496 732 1511 q 787 1493 777 1493 q 872 1560 826 1493 q 930 1605 902 1605 q 979 1575 964 1606 q 989 1522 989 1553 l 989 1512 q 955 1426 987 1468 q 845 1352 901 1352 q 834 1354 840 1352 q 727 1388 784 1359 q 631 1449 703 1401 q 605 1457 616 1457 q 576 1430 586 1457 z "},"":{"ha":978,"x_min":75,"x_max":955,"o":"m 411 1028 q 448 1089 410 1066 q 521 1109 477 1107 l 533 1109 q 595 1097 568 1109 q 640 1040 636 1078 q 779 579 690 806 l 952 133 q 955 119 955 126 q 883 52 955 84 q 819 33 844 33 q 784 56 792 33 l 749 160 q 715 266 731 212 l 505 278 q 377 281 441 281 q 292 279 334 281 q 269 47 266 164 q 205 4 270 4 q 123 24 164 4 q 75 85 75 50 l 75 87 q 252 610 87 320 q 359 810 340 766 q 411 1028 414 929 m 656 452 q 534 807 600 628 q 347 453 467 692 q 502 446 425 445 q 656 452 579 448 m 754 1324 l 613 1183 q 541 1150 583 1154 l 540 1150 q 476 1176 500 1149 q 292 1321 389 1257 l 267 1337 l 277 1341 q 346 1409 304 1404 q 392 1423 370 1413 q 403 1415 397 1419 q 533 1326 452 1381 q 632 1416 585 1373 q 719 1382 678 1408 q 754 1324 766 1354 m 465 -254 q 425 -165 437 -218 q 420 -130 420 -146 q 434 -84 420 -103 q 495 -61 445 -69 q 526 -60 513 -60 q 563 -68 553 -60 q 600 -146 594 -92 q 601 -176 601 -163 q 593 -237 601 -212 q 533 -269 583 -262 q 510 -271 519 -271 q 465 -254 477 -271 z "},"":{"ha":978,"x_min":75,"x_max":955,"o":"m 411 1028 q 448 1089 410 1066 q 521 1109 477 1107 l 533 1109 q 595 1097 568 1109 q 640 1040 636 1078 q 779 579 690 806 l 952 133 q 955 119 955 126 q 883 52 955 84 q 819 33 844 33 q 784 56 792 33 l 749 160 q 715 266 731 212 l 505 278 q 377 281 441 281 q 292 279 334 281 q 269 47 266 164 q 205 4 270 4 q 123 24 164 4 q 75 85 75 50 l 75 87 q 252 610 87 320 q 359 810 340 766 q 411 1028 414 929 m 656 452 q 534 807 600 628 q 347 453 467 692 q 502 446 425 445 q 656 452 579 448 m 754 1324 l 613 1183 q 541 1150 583 1154 l 540 1150 q 476 1176 500 1149 q 292 1321 389 1257 l 267 1337 l 277 1341 q 346 1409 304 1404 q 392 1423 370 1413 q 403 1415 397 1419 q 533 1326 452 1381 q 632 1416 585 1373 q 719 1382 678 1408 q 754 1324 766 1354 m 465 -254 q 425 -165 437 -218 q 420 -130 420 -146 q 434 -84 420 -103 q 495 -61 445 -69 q 526 -60 513 -60 q 563 -68 553 -60 q 600 -146 594 -92 q 601 -176 601 -163 q 593 -237 601 -212 q 533 -269 583 -262 q 510 -271 519 -271 q 465 -254 477 -271 z "},"":{"ha":708,"x_min":90,"x_max":644,"o":"m 90 1020 l 90 1023 q 156 1076 90 1063 q 209 1080 186 1080 q 260 1070 240 1080 q 381 1063 319 1061 q 524 1067 456 1066 q 572 1031 555 1067 q 587 966 586 1001 q 576 903 587 929 q 529 869 562 867 q 395 882 521 869 q 260 888 316 890 q 256 742 256 815 q 256 594 255 667 q 340 587 298 587 q 456 595 387 587 q 570 610 513 604 q 623 578 601 613 q 643 515 637 552 q 644 494 644 505 q 594 414 644 414 q 461 416 509 412 q 263 400 410 420 l 262 400 q 270 217 264 305 q 396 228 331 218 l 541 250 q 600 221 575 255 q 625 157 618 195 q 627 133 627 145 q 572 53 627 56 q 387 45 479 49 q 199 27 281 39 q 174 23 187 23 q 129 34 153 23 q 90 72 90 50 q 98 537 90 296 q 90 1020 106 787 m 312 -270 q 271 -182 283 -235 q 267 -146 267 -163 q 281 -100 267 -119 q 342 -77 292 -85 q 373 -76 359 -76 q 410 -84 400 -76 q 446 -163 441 -109 q 448 -193 448 -179 q 439 -254 448 -228 q 380 -285 430 -278 q 357 -288 366 -288 q 312 -270 324 -288 z "},"":{"ha":708,"x_min":90,"x_max":644,"o":"m 90 1020 l 90 1023 q 156 1076 90 1063 q 209 1080 186 1080 q 260 1070 240 1080 q 381 1063 319 1061 q 524 1067 456 1066 q 572 1031 555 1067 q 587 966 586 1001 q 576 903 587 929 q 529 869 562 867 q 395 882 521 869 q 260 888 316 890 q 256 742 256 815 q 256 594 255 667 q 340 587 298 587 q 456 595 387 587 q 570 610 513 604 q 623 578 601 613 q 643 515 637 552 q 644 494 644 505 q 594 414 644 414 q 461 416 509 412 q 263 400 410 420 l 262 400 q 270 217 264 305 q 396 228 331 218 l 541 250 q 600 221 575 255 q 625 157 618 195 q 627 133 627 145 q 572 53 627 56 q 387 45 479 49 q 199 27 281 39 q 174 23 187 23 q 129 34 153 23 q 90 72 90 50 q 98 537 90 296 q 90 1020 106 787 m 312 -270 q 271 -182 283 -235 q 267 -146 267 -163 q 281 -100 267 -119 q 342 -77 292 -85 q 373 -76 359 -76 q 410 -84 400 -76 q 446 -163 441 -109 q 448 -193 448 -179 q 439 -254 448 -228 q 380 -285 430 -278 q 357 -288 366 -288 q 312 -270 324 -288 z "},"":{"ha":708,"x_min":90,"x_max":644,"o":"m 90 1020 l 90 1023 q 156 1076 90 1063 q 209 1080 186 1080 q 260 1070 240 1080 q 381 1063 319 1061 q 524 1067 456 1066 q 572 1031 555 1067 q 587 966 586 1001 q 576 903 587 929 q 529 869 562 867 q 395 882 521 869 q 260 888 316 890 q 256 742 256 815 q 256 594 255 667 q 340 587 298 587 q 456 595 387 587 q 570 610 513 604 q 623 578 601 613 q 643 515 637 552 q 644 494 644 505 q 594 414 644 414 q 461 416 509 412 q 263 400 410 420 l 262 400 q 270 217 264 305 q 396 228 331 218 l 541 250 q 600 221 575 255 q 625 157 618 195 q 627 133 627 145 q 572 53 627 56 q 387 45 479 49 q 199 27 281 39 q 174 23 187 23 q 129 34 153 23 q 90 72 90 50 q 98 537 90 296 q 90 1020 106 787 m 233 1324 q 305 1413 254 1388 q 397 1439 357 1439 q 460 1411 438 1439 q 492 1354 481 1383 q 502 1285 502 1324 q 463 1200 502 1246 q 401 1138 425 1153 q 359 1123 378 1123 q 327 1142 339 1123 q 353 1206 315 1161 q 401 1276 391 1251 q 408 1319 412 1302 q 378 1338 404 1336 q 338 1321 353 1340 q 305 1282 323 1302 q 264 1259 288 1263 q 233 1324 241 1255 z "},"":{"ha":708,"x_min":90,"x_max":644,"o":"m 90 1020 l 90 1023 q 156 1076 90 1063 q 209 1080 186 1080 q 260 1070 240 1080 q 381 1063 319 1061 q 524 1067 456 1066 q 572 1031 555 1067 q 587 966 586 1001 q 576 903 587 929 q 529 869 562 867 q 395 882 521 869 q 260 888 316 890 q 256 742 256 815 q 256 594 255 667 q 340 587 298 587 q 456 595 387 587 q 570 610 513 604 q 623 578 601 613 q 643 515 637 552 q 644 494 644 505 q 594 414 644 414 q 461 416 509 412 q 263 400 410 420 l 262 400 q 270 217 264 305 q 396 228 331 218 l 541 250 q 600 221 575 255 q 625 157 618 195 q 627 133 627 145 q 572 53 627 56 q 387 45 479 49 q 199 27 281 39 q 174 23 187 23 q 129 34 153 23 q 90 72 90 50 q 98 537 90 296 q 90 1020 106 787 m 233 1324 q 305 1413 254 1388 q 397 1439 357 1439 q 460 1411 438 1439 q 492 1354 481 1383 q 502 1285 502 1324 q 463 1200 502 1246 q 401 1138 425 1153 q 359 1123 378 1123 q 327 1142 339 1123 q 353 1206 315 1161 q 401 1276 391 1251 q 408 1319 412 1302 q 378 1338 404 1336 q 338 1321 353 1340 q 305 1282 323 1302 q 264 1259 288 1263 q 233 1324 241 1255 z "},"":{"ha":708,"x_min":80,"x_max":644,"o":"m 90 1020 l 90 1023 q 156 1076 90 1063 q 209 1080 186 1080 q 260 1070 240 1080 q 381 1063 319 1061 q 524 1067 456 1066 q 572 1031 555 1067 q 587 966 586 1001 q 576 903 587 929 q 529 869 562 867 q 395 882 521 869 q 260 888 316 890 q 256 742 256 815 q 256 594 255 667 q 340 587 298 587 q 456 595 387 587 q 570 610 513 604 q 623 578 601 613 q 643 515 637 552 q 644 494 644 505 q 594 414 644 414 q 461 416 509 412 q 263 400 410 420 l 262 400 q 270 217 264 305 q 396 228 331 218 l 541 250 q 600 221 575 255 q 625 157 618 195 q 627 133 627 145 q 572 53 627 56 q 387 45 479 49 q 199 27 281 39 q 174 23 187 23 q 129 34 153 23 q 90 72 90 50 q 98 537 90 296 q 90 1020 106 787 m 195 1194 q 153 1153 180 1152 q 100 1188 119 1154 q 80 1252 83 1215 l 80 1259 q 113 1341 80 1295 q 187 1392 148 1392 q 212 1385 199 1392 q 298 1320 237 1370 q 388 1260 351 1275 q 406 1257 396 1257 q 491 1324 445 1257 q 549 1369 521 1369 q 598 1339 583 1370 q 608 1286 608 1317 l 608 1276 q 574 1190 606 1232 q 464 1116 519 1116 q 453 1118 458 1116 q 346 1152 403 1123 q 250 1213 321 1165 q 224 1221 235 1221 q 195 1194 205 1221 z "},"":{"ha":708,"x_min":80,"x_max":644,"o":"m 90 1020 l 90 1023 q 156 1076 90 1063 q 209 1080 186 1080 q 260 1070 240 1080 q 381 1063 319 1061 q 524 1067 456 1066 q 572 1031 555 1067 q 587 966 586 1001 q 576 903 587 929 q 529 869 562 867 q 395 882 521 869 q 260 888 316 890 q 256 742 256 815 q 256 594 255 667 q 340 587 298 587 q 456 595 387 587 q 570 610 513 604 q 623 578 601 613 q 643 515 637 552 q 644 494 644 505 q 594 414 644 414 q 461 416 509 412 q 263 400 410 420 l 262 400 q 270 217 264 305 q 396 228 331 218 l 541 250 q 600 221 575 255 q 625 157 618 195 q 627 133 627 145 q 572 53 627 56 q 387 45 479 49 q 199 27 281 39 q 174 23 187 23 q 129 34 153 23 q 90 72 90 50 q 98 537 90 296 q 90 1020 106 787 m 195 1194 q 153 1153 180 1152 q 100 1188 119 1154 q 80 1252 83 1215 l 80 1259 q 113 1341 80 1295 q 187 1392 148 1392 q 212 1385 199 1392 q 298 1320 237 1370 q 388 1260 351 1275 q 406 1257 396 1257 q 491 1324 445 1257 q 549 1369 521 1369 q 598 1339 583 1370 q 608 1286 608 1317 l 608 1276 q 574 1190 606 1232 q 464 1116 519 1116 q 453 1118 458 1116 q 346 1152 403 1123 q 250 1213 321 1165 q 224 1221 235 1221 q 195 1194 205 1221 z "},"":{"ha":708,"x_min":90,"x_max":796,"o":"m 90 1020 l 90 1023 q 156 1076 90 1063 q 209 1080 186 1080 q 260 1070 240 1080 q 381 1063 319 1061 q 524 1067 456 1066 q 572 1031 555 1067 q 587 966 586 1001 q 576 903 587 929 q 529 869 562 867 q 395 882 521 869 q 260 888 316 890 q 256 742 256 815 q 256 594 255 667 q 340 587 298 587 q 456 595 387 587 q 570 610 513 604 q 623 578 601 613 q 643 515 637 552 q 644 494 644 505 q 594 414 644 414 q 461 416 509 412 q 263 400 410 420 l 262 400 q 270 217 264 305 q 396 228 331 218 l 541 250 q 600 221 575 255 q 625 157 618 195 q 627 133 627 145 q 572 53 627 56 q 387 45 479 49 q 199 27 281 39 q 174 23 187 23 q 129 34 153 23 q 90 72 90 50 q 98 537 90 296 q 90 1020 106 787 m 126 1213 l 266 1354 q 336 1386 294 1382 l 339 1386 q 401 1360 377 1388 q 585 1217 488 1279 l 609 1200 l 600 1196 q 530 1128 574 1135 q 486 1115 507 1124 q 475 1123 480 1119 q 346 1211 426 1157 q 247 1122 294 1165 q 161 1156 202 1130 q 126 1213 114 1184 m 720 1514 q 738 1520 730 1520 q 757 1514 747 1520 q 795 1438 796 1489 q 780 1392 789 1416 l 681 1337 q 568 1274 629 1308 q 521 1287 538 1272 q 484 1359 480 1310 q 506 1392 486 1382 q 614 1450 560 1421 q 720 1514 675 1484 z "},"":{"ha":708,"x_min":90,"x_max":796,"o":"m 90 1020 l 90 1023 q 156 1076 90 1063 q 209 1080 186 1080 q 260 1070 240 1080 q 381 1063 319 1061 q 524 1067 456 1066 q 572 1031 555 1067 q 587 966 586 1001 q 576 903 587 929 q 529 869 562 867 q 395 882 521 869 q 260 888 316 890 q 256 742 256 815 q 256 594 255 667 q 340 587 298 587 q 456 595 387 587 q 570 610 513 604 q 623 578 601 613 q 643 515 637 552 q 644 494 644 505 q 594 414 644 414 q 461 416 509 412 q 263 400 410 420 l 262 400 q 270 217 264 305 q 396 228 331 218 l 541 250 q 600 221 575 255 q 625 157 618 195 q 627 133 627 145 q 572 53 627 56 q 387 45 479 49 q 199 27 281 39 q 174 23 187 23 q 129 34 153 23 q 90 72 90 50 q 98 537 90 296 q 90 1020 106 787 m 126 1213 l 266 1354 q 336 1386 294 1382 l 339 1386 q 401 1360 377 1388 q 585 1217 488 1279 l 609 1200 l 600 1196 q 530 1128 574 1135 q 486 1115 507 1124 q 475 1123 480 1119 q 346 1211 426 1157 q 247 1122 294 1165 q 161 1156 202 1130 q 126 1213 114 1184 m 720 1514 q 738 1520 730 1520 q 757 1514 747 1520 q 795 1438 796 1489 q 780 1392 789 1416 l 681 1337 q 568 1274 629 1308 q 521 1287 538 1272 q 484 1359 480 1310 q 506 1392 486 1382 q 614 1450 560 1421 q 720 1514 675 1484 z "},"":{"ha":708,"x_min":-125,"x_max":644,"o":"m 90 1020 l 90 1023 q 156 1076 90 1063 q 209 1080 186 1080 q 260 1070 240 1080 q 381 1063 319 1061 q 524 1067 456 1066 q 572 1031 555 1067 q 587 966 586 1001 q 576 903 587 929 q 529 869 562 867 q 395 882 521 869 q 260 888 316 890 q 256 742 256 815 q 256 594 255 667 q 340 587 298 587 q 456 595 387 587 q 570 610 513 604 q 623 578 601 613 q 643 515 637 552 q 644 494 644 505 q 594 414 644 414 q 461 416 509 412 q 263 400 410 420 l 262 400 q 270 217 264 305 q 396 228 331 218 l 541 250 q 600 221 575 255 q 625 157 618 195 q 627 133 627 145 q 572 53 627 56 q 387 45 479 49 q 199 27 281 39 q 174 23 187 23 q 129 34 153 23 q 90 72 90 50 q 98 537 90 296 q 90 1020 106 787 m 125 1213 l 266 1354 q 335 1386 294 1382 l 338 1386 q 401 1360 377 1388 q 585 1217 487 1279 l 608 1200 l 600 1196 q 530 1128 572 1135 q 484 1115 506 1124 q 473 1123 479 1119 q 345 1211 426 1157 q 247 1122 293 1165 q 161 1156 201 1130 q 125 1213 113 1184 m 179 1398 q 195 1388 191 1394 q 201 1367 201 1379 q 160 1293 203 1321 q 114 1279 140 1284 l 12 1329 q -104 1385 -42 1354 q -121 1431 -122 1408 q -83 1503 -125 1477 q -43 1503 -62 1515 q 66 1447 12 1476 q 179 1398 129 1417 z "},"":{"ha":708,"x_min":-125,"x_max":644,"o":"m 90 1020 l 90 1023 q 156 1076 90 1063 q 209 1080 186 1080 q 260 1070 240 1080 q 381 1063 319 1061 q 524 1067 456 1066 q 572 1031 555 1067 q 587 966 586 1001 q 576 903 587 929 q 529 869 562 867 q 395 882 521 869 q 260 888 316 890 q 256 742 256 815 q 256 594 255 667 q 340 587 298 587 q 456 595 387 587 q 570 610 513 604 q 623 578 601 613 q 643 515 637 552 q 644 494 644 505 q 594 414 644 414 q 461 416 509 412 q 263 400 410 420 l 262 400 q 270 217 264 305 q 396 228 331 218 l 541 250 q 600 221 575 255 q 625 157 618 195 q 627 133 627 145 q 572 53 627 56 q 387 45 479 49 q 199 27 281 39 q 174 23 187 23 q 129 34 153 23 q 90 72 90 50 q 98 537 90 296 q 90 1020 106 787 m 125 1213 l 266 1354 q 335 1386 294 1382 l 338 1386 q 401 1360 377 1388 q 585 1217 487 1279 l 608 1200 l 600 1196 q 530 1128 572 1135 q 484 1115 506 1124 q 473 1123 479 1119 q 345 1211 426 1157 q 247 1122 293 1165 q 161 1156 201 1130 q 125 1213 113 1184 m 179 1398 q 195 1388 191 1394 q 201 1367 201 1379 q 160 1293 203 1321 q 114 1279 140 1284 l 12 1329 q -104 1385 -42 1354 q -121 1431 -122 1408 q -83 1503 -125 1477 q -43 1503 -62 1515 q 66 1447 12 1476 q 179 1398 129 1417 z "},"":{"ha":708,"x_min":90,"x_max":697,"o":"m 90 1020 l 90 1023 q 156 1076 90 1063 q 209 1080 186 1080 q 260 1070 240 1080 q 381 1063 319 1061 q 524 1067 456 1066 q 572 1031 555 1067 q 587 966 586 1001 q 576 903 587 929 q 529 869 562 867 q 395 882 521 869 q 260 888 316 890 q 256 742 256 815 q 256 594 255 667 q 340 587 298 587 q 456 595 387 587 q 570 610 513 604 q 623 578 601 613 q 643 515 637 552 q 644 494 644 505 q 594 414 644 414 q 461 416 509 412 q 263 400 410 420 l 262 400 q 270 217 264 305 q 396 228 331 218 l 541 250 q 600 221 575 255 q 625 157 618 195 q 627 133 627 145 q 572 53 627 56 q 387 45 479 49 q 199 27 281 39 q 174 23 187 23 q 129 34 153 23 q 90 72 90 50 q 98 537 90 296 q 90 1020 106 787 m 126 1213 l 266 1354 q 336 1386 294 1382 l 339 1386 q 401 1360 377 1388 q 585 1217 488 1279 l 609 1200 l 600 1196 q 530 1128 574 1135 q 486 1115 507 1124 q 475 1123 480 1119 q 346 1211 426 1157 q 247 1122 294 1165 q 161 1156 202 1130 q 126 1213 114 1184 m 429 1462 q 500 1552 449 1526 q 593 1577 552 1577 q 655 1550 633 1577 q 687 1492 677 1522 q 697 1423 697 1462 q 659 1338 697 1385 q 597 1276 620 1291 q 554 1261 574 1261 q 522 1280 534 1261 q 548 1344 510 1299 q 597 1415 586 1389 q 604 1457 608 1440 q 574 1476 600 1474 q 533 1459 548 1478 q 500 1421 518 1440 q 460 1397 483 1401 q 429 1462 437 1393 z "},"":{"ha":708,"x_min":90,"x_max":697,"o":"m 90 1020 l 90 1023 q 156 1076 90 1063 q 209 1080 186 1080 q 260 1070 240 1080 q 381 1063 319 1061 q 524 1067 456 1066 q 572 1031 555 1067 q 587 966 586 1001 q 576 903 587 929 q 529 869 562 867 q 395 882 521 869 q 260 888 316 890 q 256 742 256 815 q 256 594 255 667 q 340 587 298 587 q 456 595 387 587 q 570 610 513 604 q 623 578 601 613 q 643 515 637 552 q 644 494 644 505 q 594 414 644 414 q 461 416 509 412 q 263 400 410 420 l 262 400 q 270 217 264 305 q 396 228 331 218 l 541 250 q 600 221 575 255 q 625 157 618 195 q 627 133 627 145 q 572 53 627 56 q 387 45 479 49 q 199 27 281 39 q 174 23 187 23 q 129 34 153 23 q 90 72 90 50 q 98 537 90 296 q 90 1020 106 787 m 126 1213 l 266 1354 q 336 1386 294 1382 l 339 1386 q 401 1360 377 1388 q 585 1217 488 1279 l 609 1200 l 600 1196 q 530 1128 574 1135 q 486 1115 507 1124 q 475 1123 480 1119 q 346 1211 426 1157 q 247 1122 294 1165 q 161 1156 202 1130 q 126 1213 114 1184 m 429 1462 q 500 1552 449 1526 q 593 1577 552 1577 q 655 1550 633 1577 q 687 1492 677 1522 q 697 1423 697 1462 q 659 1338 697 1385 q 597 1276 620 1291 q 554 1261 574 1261 q 522 1280 534 1261 q 548 1344 510 1299 q 597 1415 586 1389 q 604 1457 608 1440 q 574 1476 600 1474 q 533 1459 548 1478 q 500 1421 518 1440 q 460 1397 483 1401 q 429 1462 437 1393 z "},"":{"ha":708,"x_min":90,"x_max":989,"o":"m 90 1020 l 90 1023 q 156 1076 90 1063 q 209 1080 186 1080 q 260 1070 240 1080 q 381 1063 319 1061 q 524 1067 456 1066 q 572 1031 555 1067 q 587 966 586 1001 q 576 903 587 929 q 529 869 562 867 q 395 882 521 869 q 260 888 316 890 q 256 742 256 815 q 256 594 255 667 q 340 587 298 587 q 456 595 387 587 q 570 610 513 604 q 623 578 601 613 q 643 515 637 552 q 644 494 644 505 q 594 414 644 414 q 461 416 509 412 q 263 400 410 420 l 262 400 q 270 217 264 305 q 396 228 331 218 l 541 250 q 600 221 575 255 q 625 157 618 195 q 627 133 627 145 q 572 53 627 56 q 387 45 479 49 q 199 27 281 39 q 174 23 187 23 q 129 34 153 23 q 90 72 90 50 q 98 537 90 296 q 90 1020 106 787 m 126 1213 l 266 1354 q 336 1386 294 1382 l 339 1386 q 401 1360 377 1388 q 585 1217 488 1279 l 609 1200 l 600 1196 q 530 1128 574 1135 q 486 1115 507 1124 q 475 1123 480 1119 q 346 1211 426 1157 q 247 1122 294 1165 q 161 1156 202 1130 q 126 1213 114 1184 m 576 1332 q 534 1291 562 1290 q 481 1326 500 1293 q 461 1390 464 1354 l 461 1397 q 494 1480 461 1434 q 568 1530 529 1530 q 593 1523 581 1530 q 680 1458 618 1508 q 769 1398 732 1413 q 787 1396 777 1396 q 872 1462 826 1396 q 930 1507 902 1507 q 979 1477 964 1508 q 989 1424 989 1455 l 989 1415 q 955 1328 987 1370 q 845 1255 901 1255 q 834 1256 840 1255 q 727 1290 784 1261 q 631 1351 703 1303 q 605 1359 616 1359 q 576 1332 586 1359 z "},"":{"ha":708,"x_min":90,"x_max":989,"o":"m 90 1020 l 90 1023 q 156 1076 90 1063 q 209 1080 186 1080 q 260 1070 240 1080 q 381 1063 319 1061 q 524 1067 456 1066 q 572 1031 555 1067 q 587 966 586 1001 q 576 903 587 929 q 529 869 562 867 q 395 882 521 869 q 260 888 316 890 q 256 742 256 815 q 256 594 255 667 q 340 587 298 587 q 456 595 387 587 q 570 610 513 604 q 623 578 601 613 q 643 515 637 552 q 644 494 644 505 q 594 414 644 414 q 461 416 509 412 q 263 400 410 420 l 262 400 q 270 217 264 305 q 396 228 331 218 l 541 250 q 600 221 575 255 q 625 157 618 195 q 627 133 627 145 q 572 53 627 56 q 387 45 479 49 q 199 27 281 39 q 174 23 187 23 q 129 34 153 23 q 90 72 90 50 q 98 537 90 296 q 90 1020 106 787 m 126 1213 l 266 1354 q 336 1386 294 1382 l 339 1386 q 401 1360 377 1388 q 585 1217 488 1279 l 609 1200 l 600 1196 q 530 1128 574 1135 q 486 1115 507 1124 q 475 1123 480 1119 q 346 1211 426 1157 q 247 1122 294 1165 q 161 1156 202 1130 q 126 1213 114 1184 m 576 1332 q 534 1291 562 1290 q 481 1326 500 1293 q 461 1390 464 1354 l 461 1397 q 494 1480 461 1434 q 568 1530 529 1530 q 593 1523 581 1530 q 680 1458 618 1508 q 769 1398 732 1413 q 787 1396 777 1396 q 872 1462 826 1396 q 930 1507 902 1507 q 979 1477 964 1508 q 989 1424 989 1455 l 989 1415 q 955 1328 987 1370 q 845 1255 901 1255 q 834 1256 840 1255 q 727 1290 784 1261 q 631 1351 703 1303 q 605 1359 616 1359 q 576 1332 586 1359 z "},"":{"ha":708,"x_min":90,"x_max":644,"o":"m 90 1020 l 90 1023 q 156 1076 90 1063 q 209 1080 186 1080 q 260 1070 240 1080 q 381 1063 319 1061 q 524 1067 456 1066 q 572 1031 555 1067 q 587 966 586 1001 q 576 903 587 929 q 529 869 562 867 q 395 882 521 869 q 260 888 316 890 q 256 742 256 815 q 256 594 255 667 q 340 587 298 587 q 456 595 387 587 q 570 610 513 604 q 623 578 601 613 q 643 515 637 552 q 644 494 644 505 q 594 414 644 414 q 461 416 509 412 q 263 400 410 420 l 262 400 q 270 217 264 305 q 396 228 331 218 l 541 250 q 600 221 575 255 q 625 157 618 195 q 627 133 627 145 q 572 53 627 56 q 387 45 479 49 q 199 27 281 39 q 174 23 187 23 q 129 34 153 23 q 90 72 90 50 q 98 537 90 296 q 90 1020 106 787 m 126 1213 l 266 1354 q 336 1386 294 1382 l 339 1386 q 401 1360 377 1388 q 585 1217 488 1279 l 609 1200 l 600 1196 q 530 1128 574 1135 q 486 1115 507 1124 q 475 1123 480 1119 q 346 1211 426 1157 q 247 1122 294 1165 q 161 1156 202 1130 q 126 1213 114 1184 m 312 -270 q 271 -182 283 -235 q 267 -146 267 -163 q 281 -100 267 -119 q 342 -77 292 -85 q 373 -76 359 -76 q 410 -84 400 -76 q 446 -163 441 -109 q 448 -193 448 -179 q 439 -254 448 -228 q 380 -285 430 -278 q 357 -288 366 -288 q 312 -270 324 -288 z "},"":{"ha":708,"x_min":90,"x_max":644,"o":"m 90 1020 l 90 1023 q 156 1076 90 1063 q 209 1080 186 1080 q 260 1070 240 1080 q 381 1063 319 1061 q 524 1067 456 1066 q 572 1031 555 1067 q 587 966 586 1001 q 576 903 587 929 q 529 869 562 867 q 395 882 521 869 q 260 888 316 890 q 256 742 256 815 q 256 594 255 667 q 340 587 298 587 q 456 595 387 587 q 570 610 513 604 q 623 578 601 613 q 643 515 637 552 q 644 494 644 505 q 594 414 644 414 q 461 416 509 412 q 263 400 410 420 l 262 400 q 270 217 264 305 q 396 228 331 218 l 541 250 q 600 221 575 255 q 625 157 618 195 q 627 133 627 145 q 572 53 627 56 q 387 45 479 49 q 199 27 281 39 q 174 23 187 23 q 129 34 153 23 q 90 72 90 50 q 98 537 90 296 q 90 1020 106 787 m 126 1213 l 266 1354 q 336 1386 294 1382 l 339 1386 q 401 1360 377 1388 q 585 1217 488 1279 l 609 1200 l 600 1196 q 530 1128 574 1135 q 486 1115 507 1124 q 475 1123 480 1119 q 346 1211 426 1157 q 247 1122 294 1165 q 161 1156 202 1130 q 126 1213 114 1184 m 312 -270 q 271 -182 283 -235 q 267 -146 267 -163 q 281 -100 267 -119 q 342 -77 292 -85 q 373 -76 359 -76 q 410 -84 400 -76 q 446 -163 441 -109 q 448 -193 448 -179 q 439 -254 448 -228 q 380 -285 430 -278 q 357 -288 366 -288 q 312 -270 324 -288 z "},"":{"ha":780,"x_min":71,"x_max":719,"o":"m 473 932 q 464 689 464 811 q 480 235 464 555 q 621 245 488 235 q 689 220 662 248 q 719 149 716 191 l 719 145 q 696 77 719 104 q 628 47 670 47 q 525 49 590 47 q 422 50 452 50 q 113 34 294 50 l 110 34 q 77 73 87 34 q 71 134 71 100 q 117 235 72 240 q 301 225 217 222 q 309 705 309 745 q 305 928 309 817 q 145 916 243 925 q 84 1015 102 911 q 80 1057 80 1036 q 109 1112 80 1116 q 339 1105 227 1096 l 605 1126 l 614 1126 q 684 1093 654 1126 q 715 1009 715 1057 q 640 929 715 929 q 556 930 612 929 q 473 932 500 932 m 259 1383 q 331 1473 279 1447 q 423 1499 382 1499 q 486 1471 464 1499 q 517 1413 507 1443 q 528 1345 528 1383 q 489 1259 528 1306 q 427 1198 450 1213 q 385 1183 404 1183 q 353 1202 365 1183 q 378 1265 340 1221 q 427 1336 416 1310 q 434 1379 438 1362 q 404 1398 430 1396 q 363 1381 378 1400 q 331 1342 349 1362 q 290 1318 313 1322 q 259 1383 267 1314 z "},"":{"ha":395,"x_min":64,"x_max":332,"o":"m 110 1029 l 110 1032 q 203 1086 110 1073 q 229 1088 217 1088 q 296 1058 296 1088 l 296 1054 q 278 578 267 811 q 296 107 290 266 l 296 106 q 203 49 296 61 q 176 46 190 46 q 110 81 110 46 q 118 547 110 305 q 110 1029 126 799 m 64 1383 q 136 1473 84 1447 q 228 1499 187 1499 q 290 1471 269 1499 q 322 1413 312 1443 q 332 1345 332 1383 q 294 1259 332 1306 q 232 1198 255 1213 q 189 1183 209 1183 q 157 1202 170 1183 q 183 1265 145 1221 q 232 1336 221 1310 q 239 1379 243 1362 q 209 1398 235 1396 q 168 1381 183 1400 q 136 1342 153 1362 q 95 1318 118 1322 q 64 1383 72 1314 z "},"":{"ha":780,"x_min":71,"x_max":719,"o":"m 473 932 q 464 689 464 811 q 480 235 464 555 q 621 245 488 235 q 689 220 662 248 q 719 149 716 191 l 719 145 q 696 77 719 104 q 628 47 670 47 q 525 49 590 47 q 422 50 452 50 q 113 34 294 50 l 110 34 q 77 73 87 34 q 71 134 71 100 q 117 235 72 240 q 301 225 217 222 q 309 705 309 745 q 305 928 309 817 q 145 916 243 925 q 84 1015 102 911 q 80 1057 80 1036 q 109 1112 80 1116 q 339 1105 227 1096 l 605 1126 l 614 1126 q 684 1093 654 1126 q 715 1009 715 1057 q 640 929 715 929 q 556 930 612 929 q 473 932 500 932 m 345 -285 q 304 -197 316 -250 q 300 -161 300 -178 q 313 -115 300 -134 q 374 -92 324 -100 q 406 -91 392 -91 q 442 -99 433 -91 q 479 -178 473 -123 q 480 -208 480 -194 q 472 -269 480 -243 q 412 -300 463 -293 q 389 -302 399 -302 q 345 -285 357 -302 z "},"":{"ha":395,"x_min":110,"x_max":296,"o":"m 110 1029 l 110 1032 q 203 1086 110 1073 q 229 1088 217 1088 q 296 1058 296 1088 l 296 1054 q 278 578 267 811 q 296 107 290 266 l 296 106 q 203 49 296 61 q 176 46 190 46 q 110 81 110 46 q 118 547 110 305 q 110 1029 126 799 m 160 -263 q 119 -175 132 -228 q 115 -140 115 -156 q 129 -94 115 -113 q 190 -71 140 -79 q 221 -69 208 -69 q 258 -77 248 -69 q 294 -156 289 -102 q 296 -186 296 -172 q 288 -247 296 -221 q 228 -278 278 -271 q 205 -281 214 -281 q 160 -263 172 -281 z "},"":{"ha":972,"x_min":43,"x_max":929,"o":"m 530 1114 q 830 997 711 1114 q 929 667 929 901 q 925 559 929 617 q 442 5 878 5 q 140 146 245 5 q 43 475 43 274 q 47 559 43 515 q 179 940 65 789 q 530 1114 311 1114 m 600 907 q 538 914 568 914 q 366 859 452 914 q 205 624 251 781 q 180 477 180 545 q 206 351 180 408 q 373 210 254 237 q 439 202 406 202 q 606 250 522 202 q 768 495 724 315 q 787 647 787 581 q 600 907 787 864 m 412 -290 q 372 -202 384 -255 q 368 -167 368 -183 q 381 -121 368 -140 q 442 -98 392 -106 q 473 -96 460 -96 q 510 -104 500 -96 q 547 -183 541 -129 q 548 -213 548 -199 q 540 -274 548 -248 q 480 -305 530 -298 q 457 -308 467 -308 q 412 -290 425 -308 z "},"":{"ha":972,"x_min":43,"x_max":929,"o":"m 530 1114 q 830 997 711 1114 q 929 667 929 901 q 925 559 929 617 q 442 5 878 5 q 140 146 245 5 q 43 475 43 274 q 47 559 43 515 q 179 940 65 789 q 530 1114 311 1114 m 600 907 q 538 914 568 914 q 366 859 452 914 q 205 624 251 781 q 180 477 180 545 q 206 351 180 408 q 373 210 254 237 q 439 202 406 202 q 606 250 522 202 q 768 495 724 315 q 787 647 787 581 q 600 907 787 864 m 412 -290 q 372 -202 384 -255 q 368 -167 368 -183 q 381 -121 368 -140 q 442 -98 392 -106 q 473 -96 460 -96 q 510 -104 500 -96 q 547 -183 541 -129 q 548 -213 548 -199 q 540 -274 548 -248 q 480 -305 530 -298 q 457 -308 467 -308 q 412 -290 425 -308 z "},"":{"ha":972,"x_min":43,"x_max":929,"o":"m 530 1114 q 830 997 711 1114 q 929 667 929 901 q 925 559 929 617 q 442 5 878 5 q 140 146 245 5 q 43 475 43 274 q 47 559 43 515 q 179 940 65 789 q 530 1114 311 1114 m 600 907 q 538 914 568 914 q 366 859 452 914 q 205 624 251 781 q 180 477 180 545 q 206 351 180 408 q 373 210 254 237 q 439 202 406 202 q 606 250 522 202 q 768 495 724 315 q 787 647 787 581 q 600 907 787 864 m 476 1409 q 548 1499 496 1473 q 640 1525 600 1525 q 703 1497 681 1525 q 734 1439 724 1469 q 745 1371 745 1409 q 706 1285 745 1332 q 644 1223 667 1238 q 602 1208 621 1208 q 570 1227 582 1208 q 595 1291 557 1246 q 644 1362 633 1336 q 651 1404 655 1388 q 621 1423 647 1421 q 581 1407 595 1426 q 548 1368 566 1388 q 507 1344 530 1348 q 476 1409 484 1340 z "},"":{"ha":972,"x_min":43,"x_max":929,"o":"m 530 1114 q 830 997 711 1114 q 929 667 929 901 q 925 559 929 617 q 442 5 878 5 q 140 146 245 5 q 43 475 43 274 q 47 559 43 515 q 179 940 65 789 q 530 1114 311 1114 m 600 907 q 538 914 568 914 q 366 859 452 914 q 205 624 251 781 q 180 477 180 545 q 206 351 180 408 q 373 210 254 237 q 439 202 406 202 q 606 250 522 202 q 768 495 724 315 q 787 647 787 581 q 600 907 787 864 m 476 1409 q 548 1499 496 1473 q 640 1525 600 1525 q 703 1497 681 1525 q 734 1439 724 1469 q 745 1371 745 1409 q 706 1285 745 1332 q 644 1223 667 1238 q 602 1208 621 1208 q 570 1227 582 1208 q 595 1291 557 1246 q 644 1362 633 1336 q 651 1404 655 1388 q 621 1423 647 1421 q 581 1407 595 1426 q 548 1368 566 1388 q 507 1344 530 1348 q 476 1409 484 1340 z "},"":{"ha":972,"x_min":43,"x_max":1017,"o":"m 530 1114 q 830 997 711 1114 q 929 667 929 901 q 925 559 929 617 q 442 5 878 5 q 140 146 245 5 q 43 475 43 274 q 47 559 43 515 q 179 940 65 789 q 530 1114 311 1114 m 600 907 q 538 914 568 914 q 366 859 452 914 q 205 624 251 781 q 180 477 180 545 q 206 351 180 408 q 373 210 254 237 q 439 202 406 202 q 606 250 522 202 q 768 495 724 315 q 787 647 787 581 q 600 907 787 864 m 350 1270 l 498 1417 q 571 1453 528 1449 l 574 1453 q 640 1424 614 1454 q 833 1274 731 1340 l 859 1257 l 849 1252 q 776 1181 821 1188 q 728 1168 751 1177 q 716 1176 723 1172 q 581 1268 666 1211 q 477 1175 526 1219 q 387 1208 430 1183 q 350 1270 336 1240 m 941 1594 q 959 1600 951 1600 q 978 1594 968 1600 q 1016 1518 1017 1569 q 1001 1472 1010 1496 l 902 1417 q 789 1354 850 1388 q 742 1367 760 1352 q 705 1439 701 1390 q 727 1472 707 1462 q 836 1530 781 1501 q 941 1594 897 1564 z "},"":{"ha":972,"x_min":43,"x_max":1017,"o":"m 530 1114 q 830 997 711 1114 q 929 667 929 901 q 925 559 929 617 q 442 5 878 5 q 140 146 245 5 q 43 475 43 274 q 47 559 43 515 q 179 940 65 789 q 530 1114 311 1114 m 600 907 q 538 914 568 914 q 366 859 452 914 q 205 624 251 781 q 180 477 180 545 q 206 351 180 408 q 373 210 254 237 q 439 202 406 202 q 606 250 522 202 q 768 495 724 315 q 787 647 787 581 q 600 907 787 864 m 350 1270 l 498 1417 q 571 1453 528 1449 l 574 1453 q 640 1424 614 1454 q 833 1274 731 1340 l 859 1257 l 849 1252 q 776 1181 821 1188 q 728 1168 751 1177 q 716 1176 723 1172 q 581 1268 666 1211 q 477 1175 526 1219 q 387 1208 430 1183 q 350 1270 336 1240 m 941 1594 q 959 1600 951 1600 q 978 1594 968 1600 q 1016 1518 1017 1569 q 1001 1472 1010 1496 l 902 1417 q 789 1354 850 1388 q 742 1367 760 1352 q 705 1439 701 1390 q 727 1472 707 1462 q 836 1530 781 1501 q 941 1594 897 1564 z "},"":{"ha":972,"x_min":43,"x_max":929,"o":"m 530 1114 q 830 997 711 1114 q 929 667 929 901 q 925 559 929 617 q 442 5 878 5 q 140 146 245 5 q 43 475 43 274 q 47 559 43 515 q 179 940 65 789 q 530 1114 311 1114 m 600 907 q 538 914 568 914 q 366 859 452 914 q 205 624 251 781 q 180 477 180 545 q 206 351 180 408 q 373 210 254 237 q 439 202 406 202 q 606 250 522 202 q 768 495 724 315 q 787 647 787 581 q 600 907 787 864 m 350 1270 l 498 1417 q 571 1453 528 1449 l 574 1453 q 640 1424 614 1454 q 833 1274 731 1340 l 859 1257 l 849 1252 q 776 1181 821 1188 q 728 1168 751 1177 q 716 1176 723 1172 q 581 1268 666 1211 q 477 1175 526 1219 q 387 1208 430 1183 q 350 1270 336 1240 m 408 1447 q 425 1436 419 1443 q 430 1416 430 1428 q 389 1341 431 1370 q 343 1328 368 1333 l 241 1378 q 125 1434 187 1402 q 109 1480 106 1457 q 146 1552 104 1526 q 186 1552 165 1564 q 296 1496 241 1525 q 408 1447 358 1466 z "},"":{"ha":972,"x_min":43,"x_max":929,"o":"m 530 1114 q 830 997 711 1114 q 929 667 929 901 q 925 559 929 617 q 442 5 878 5 q 140 146 245 5 q 43 475 43 274 q 47 559 43 515 q 179 940 65 789 q 530 1114 311 1114 m 600 907 q 538 914 568 914 q 366 859 452 914 q 205 624 251 781 q 180 477 180 545 q 206 351 180 408 q 373 210 254 237 q 439 202 406 202 q 606 250 522 202 q 768 495 724 315 q 787 647 787 581 q 600 907 787 864 m 350 1270 l 498 1417 q 571 1453 528 1449 l 574 1453 q 640 1424 614 1454 q 833 1274 731 1340 l 859 1257 l 849 1252 q 776 1181 821 1188 q 728 1168 751 1177 q 716 1176 723 1172 q 581 1268 666 1211 q 477 1175 526 1219 q 387 1208 430 1183 q 350 1270 336 1240 m 408 1447 q 425 1436 419 1443 q 430 1416 430 1428 q 389 1341 431 1370 q 343 1328 368 1333 l 241 1378 q 125 1434 187 1402 q 109 1480 106 1457 q 146 1552 104 1526 q 186 1552 165 1564 q 296 1496 241 1525 q 408 1447 358 1466 z "},"":{"ha":972,"x_min":43,"x_max":932,"o":"m 530 1114 q 830 997 711 1114 q 929 667 929 901 q 925 559 929 617 q 442 5 878 5 q 140 146 245 5 q 43 475 43 274 q 47 559 43 515 q 179 940 65 789 q 530 1114 311 1114 m 600 907 q 538 914 568 914 q 366 859 452 914 q 205 624 251 781 q 180 477 180 545 q 206 351 180 408 q 373 210 254 237 q 439 202 406 202 q 606 250 522 202 q 768 495 724 315 q 787 647 787 581 q 600 907 787 864 m 350 1270 l 498 1417 q 571 1453 528 1449 l 574 1453 q 640 1424 614 1454 q 833 1274 731 1340 l 859 1257 l 849 1252 q 776 1181 821 1188 q 728 1168 751 1177 q 716 1176 723 1172 q 581 1268 666 1211 q 477 1175 526 1219 q 387 1208 430 1183 q 350 1270 336 1240 m 663 1557 q 735 1647 684 1621 q 827 1672 787 1672 q 890 1645 868 1672 q 922 1587 911 1617 q 932 1518 932 1557 q 893 1433 932 1480 q 831 1371 854 1386 q 789 1356 808 1356 q 757 1375 769 1356 q 783 1439 745 1394 q 831 1510 821 1484 q 838 1552 842 1535 q 808 1571 834 1569 q 768 1554 783 1573 q 735 1516 753 1535 q 694 1492 718 1496 q 663 1557 671 1488 z "},"":{"ha":972,"x_min":43,"x_max":932,"o":"m 530 1114 q 830 997 711 1114 q 929 667 929 901 q 925 559 929 617 q 442 5 878 5 q 140 146 245 5 q 43 475 43 274 q 47 559 43 515 q 179 940 65 789 q 530 1114 311 1114 m 600 907 q 538 914 568 914 q 366 859 452 914 q 205 624 251 781 q 180 477 180 545 q 206 351 180 408 q 373 210 254 237 q 439 202 406 202 q 606 250 522 202 q 768 495 724 315 q 787 647 787 581 q 600 907 787 864 m 350 1270 l 498 1417 q 571 1453 528 1449 l 574 1453 q 640 1424 614 1454 q 833 1274 731 1340 l 859 1257 l 849 1252 q 776 1181 821 1188 q 728 1168 751 1177 q 716 1176 723 1172 q 581 1268 666 1211 q 477 1175 526 1219 q 387 1208 430 1183 q 350 1270 336 1240 m 663 1557 q 735 1647 684 1621 q 827 1672 787 1672 q 890 1645 868 1672 q 922 1587 911 1617 q 932 1518 932 1557 q 893 1433 932 1480 q 831 1371 854 1386 q 789 1356 808 1356 q 757 1375 769 1356 q 783 1439 745 1394 q 831 1510 821 1484 q 838 1552 842 1535 q 808 1571 834 1569 q 768 1554 783 1573 q 735 1516 753 1535 q 694 1492 718 1496 q 663 1557 671 1488 z "},"":{"ha":972,"x_min":43,"x_max":1213,"o":"m 530 1114 q 830 997 711 1114 q 929 667 929 901 q 925 559 929 617 q 442 5 878 5 q 140 146 245 5 q 43 475 43 274 q 47 559 43 515 q 179 940 65 789 q 530 1114 311 1114 m 600 907 q 538 914 568 914 q 366 859 452 914 q 205 624 251 781 q 180 477 180 545 q 206 351 180 408 q 373 210 254 237 q 439 202 406 202 q 606 250 522 202 q 768 495 724 315 q 787 647 787 581 q 600 907 787 864 m 350 1270 l 498 1417 q 571 1453 528 1449 l 574 1453 q 640 1424 614 1454 q 833 1274 731 1340 l 859 1257 l 849 1252 q 776 1181 821 1188 q 728 1168 751 1177 q 716 1176 723 1172 q 581 1268 666 1211 q 477 1175 526 1219 q 387 1208 430 1183 q 350 1270 336 1240 m 800 1401 q 758 1360 785 1359 q 705 1396 724 1362 q 685 1459 688 1423 l 685 1466 q 718 1549 685 1503 q 792 1599 753 1599 q 817 1592 804 1599 q 903 1527 842 1577 q 993 1468 956 1482 q 1010 1465 1001 1465 q 1096 1531 1050 1465 q 1154 1576 1126 1576 q 1203 1546 1188 1577 q 1213 1493 1213 1525 l 1213 1484 q 1179 1397 1211 1439 q 1069 1324 1124 1324 q 1058 1325 1063 1324 q 951 1359 1008 1331 q 854 1420 926 1373 q 829 1428 840 1428 q 800 1401 810 1428 z "},"":{"ha":972,"x_min":43,"x_max":1213,"o":"m 530 1114 q 830 997 711 1114 q 929 667 929 901 q 925 559 929 617 q 442 5 878 5 q 140 146 245 5 q 43 475 43 274 q 47 559 43 515 q 179 940 65 789 q 530 1114 311 1114 m 600 907 q 538 914 568 914 q 366 859 452 914 q 205 624 251 781 q 180 477 180 545 q 206 351 180 408 q 373 210 254 237 q 439 202 406 202 q 606 250 522 202 q 768 495 724 315 q 787 647 787 581 q 600 907 787 864 m 350 1270 l 498 1417 q 571 1453 528 1449 l 574 1453 q 640 1424 614 1454 q 833 1274 731 1340 l 859 1257 l 849 1252 q 776 1181 821 1188 q 728 1168 751 1177 q 716 1176 723 1172 q 581 1268 666 1211 q 477 1175 526 1219 q 387 1208 430 1183 q 350 1270 336 1240 m 800 1401 q 758 1360 785 1359 q 705 1396 724 1362 q 685 1459 688 1423 l 685 1466 q 718 1549 685 1503 q 792 1599 753 1599 q 817 1592 804 1599 q 903 1527 842 1577 q 993 1468 956 1482 q 1010 1465 1001 1465 q 1096 1531 1050 1465 q 1154 1576 1126 1576 q 1203 1546 1188 1577 q 1213 1493 1213 1525 l 1213 1484 q 1179 1397 1211 1439 q 1069 1324 1124 1324 q 1058 1325 1063 1324 q 951 1359 1008 1331 q 854 1420 926 1373 q 829 1428 840 1428 q 800 1401 810 1428 z "},"":{"ha":972,"x_min":43,"x_max":929,"o":"m 530 1114 q 830 997 711 1114 q 929 667 929 901 q 925 559 929 617 q 442 5 878 5 q 140 146 245 5 q 43 475 43 274 q 47 559 43 515 q 179 940 65 789 q 530 1114 311 1114 m 600 907 q 538 914 568 914 q 366 859 452 914 q 205 624 251 781 q 180 477 180 545 q 206 351 180 408 q 373 210 254 237 q 439 202 406 202 q 606 250 522 202 q 768 495 724 315 q 787 647 787 581 q 600 907 787 864 m 350 1270 l 498 1417 q 571 1453 528 1449 l 574 1453 q 640 1424 614 1454 q 833 1274 731 1340 l 859 1257 l 849 1252 q 776 1181 821 1188 q 728 1168 751 1177 q 716 1176 723 1172 q 581 1268 666 1211 q 477 1175 526 1219 q 387 1208 430 1183 q 350 1270 336 1240 m 411 -302 q 370 -214 382 -267 q 366 -179 366 -195 q 380 -133 366 -152 q 441 -110 391 -118 q 472 -109 458 -109 q 509 -117 499 -109 q 545 -195 540 -141 q 547 -225 547 -212 q 538 -286 547 -260 q 479 -317 529 -311 q 456 -320 465 -320 q 411 -302 423 -320 z "},"":{"ha":972,"x_min":43,"x_max":929,"o":"m 530 1114 q 830 997 711 1114 q 929 667 929 901 q 925 559 929 617 q 442 5 878 5 q 140 146 245 5 q 43 475 43 274 q 47 559 43 515 q 179 940 65 789 q 530 1114 311 1114 m 600 907 q 538 914 568 914 q 366 859 452 914 q 205 624 251 781 q 180 477 180 545 q 206 351 180 408 q 373 210 254 237 q 439 202 406 202 q 606 250 522 202 q 768 495 724 315 q 787 647 787 581 q 600 907 787 864 m 350 1270 l 498 1417 q 571 1453 528 1449 l 574 1453 q 640 1424 614 1454 q 833 1274 731 1340 l 859 1257 l 849 1252 q 776 1181 821 1188 q 728 1168 751 1177 q 716 1176 723 1172 q 581 1268 666 1211 q 477 1175 526 1219 q 387 1208 430 1183 q 350 1270 336 1240 m 411 -302 q 370 -214 382 -267 q 366 -179 366 -195 q 380 -133 366 -152 q 441 -110 391 -118 q 472 -109 458 -109 q 509 -117 499 -109 q 545 -195 540 -141 q 547 -225 547 -212 q 538 -286 547 -260 q 479 -317 529 -311 q 456 -320 465 -320 q 411 -302 423 -320 z "},"":{"ha":972,"x_min":43,"x_max":1123,"o":"m 530 1114 q 830 997 711 1114 q 929 667 929 901 q 925 559 929 617 q 442 5 878 5 q 140 146 245 5 q 43 475 43 274 q 47 559 43 515 q 179 940 65 789 q 530 1114 311 1114 m 600 907 q 538 914 568 914 q 366 859 452 914 q 205 624 251 781 q 180 477 180 545 q 206 351 180 408 q 373 210 254 237 q 439 202 406 202 q 606 250 522 202 q 768 495 724 315 q 787 647 787 581 q 600 907 787 864 m 906 860 q 979 899 944 872 q 1054 974 1016 928 q 1107 1076 1092 1020 q 1098 1189 1123 1133 q 920 1293 1073 1245 q 792 1213 810 1248 q 785 1163 774 1177 q 806 1135 795 1149 q 824 1117 818 1120 q 867 1134 830 1114 q 944 1140 903 1154 q 989 1112 985 1126 q 980 1057 994 1097 q 913 994 966 1017 q 854 970 878 978 q 906 860 888 925 m 732 1446 q 750 1453 742 1453 q 769 1446 760 1453 q 807 1370 808 1421 q 792 1324 802 1348 l 693 1270 q 581 1206 642 1240 q 533 1219 551 1204 q 496 1291 492 1242 q 518 1324 498 1314 q 627 1382 572 1354 q 732 1446 688 1416 z "},"":{"ha":972,"x_min":43,"x_max":1123,"o":"m 530 1114 q 830 997 711 1114 q 929 667 929 901 q 925 559 929 617 q 442 5 878 5 q 140 146 245 5 q 43 475 43 274 q 47 559 43 515 q 179 940 65 789 q 530 1114 311 1114 m 600 907 q 538 914 568 914 q 366 859 452 914 q 205 624 251 781 q 180 477 180 545 q 206 351 180 408 q 373 210 254 237 q 439 202 406 202 q 606 250 522 202 q 768 495 724 315 q 787 647 787 581 q 600 907 787 864 m 906 860 q 979 899 944 872 q 1054 974 1016 928 q 1107 1076 1092 1020 q 1098 1189 1123 1133 q 920 1293 1073 1245 q 792 1213 810 1248 q 785 1163 774 1177 q 806 1135 795 1149 q 824 1117 818 1120 q 867 1134 830 1114 q 944 1140 903 1154 q 989 1112 985 1126 q 980 1057 994 1097 q 913 994 966 1017 q 854 970 878 978 q 906 860 888 925 m 764 1446 q 781 1453 773 1453 q 800 1446 791 1453 q 838 1370 840 1421 q 823 1324 833 1348 l 724 1270 q 612 1206 673 1240 q 564 1219 582 1204 q 528 1291 524 1242 q 549 1324 529 1314 q 658 1382 604 1354 q 764 1446 719 1416 z "},"":{"ha":972,"x_min":43,"x_max":1123,"o":"m 530 1114 q 830 997 711 1114 q 929 667 929 901 q 925 559 929 617 q 442 5 878 5 q 140 146 245 5 q 43 475 43 274 q 47 559 43 515 q 179 940 65 789 q 530 1114 311 1114 m 600 907 q 538 914 568 914 q 366 859 452 914 q 205 624 251 781 q 180 477 180 545 q 206 351 180 408 q 373 210 254 237 q 439 202 406 202 q 606 250 522 202 q 768 495 724 315 q 787 647 787 581 q 600 907 787 864 m 906 860 q 979 899 944 872 q 1054 974 1016 928 q 1107 1076 1092 1020 q 1098 1189 1123 1133 q 920 1293 1073 1245 q 792 1213 810 1248 q 785 1163 774 1177 q 806 1135 795 1149 q 824 1117 818 1120 q 867 1134 830 1114 q 944 1140 903 1154 q 989 1112 985 1126 q 980 1057 994 1097 q 913 994 966 1017 q 854 970 878 978 q 906 860 888 925 m 677 1310 q 693 1299 688 1306 q 699 1279 699 1291 q 658 1204 700 1233 q 612 1191 636 1196 l 510 1241 q 393 1297 456 1265 q 377 1343 374 1320 q 415 1415 373 1389 q 454 1415 434 1427 q 564 1359 510 1388 q 677 1310 627 1329 z "},"":{"ha":972,"x_min":43,"x_max":1123,"o":"m 530 1114 q 830 997 711 1114 q 929 667 929 901 q 925 559 929 617 q 442 5 878 5 q 140 146 245 5 q 43 475 43 274 q 47 559 43 515 q 179 940 65 789 q 530 1114 311 1114 m 600 907 q 538 914 568 914 q 366 859 452 914 q 205 624 251 781 q 180 477 180 545 q 206 351 180 408 q 373 210 254 237 q 439 202 406 202 q 606 250 522 202 q 768 495 724 315 q 787 647 787 581 q 600 907 787 864 m 906 860 q 979 899 944 872 q 1054 974 1016 928 q 1107 1076 1092 1020 q 1098 1189 1123 1133 q 920 1293 1073 1245 q 792 1213 810 1248 q 785 1163 774 1177 q 806 1135 795 1149 q 824 1117 818 1120 q 867 1134 830 1114 q 944 1140 903 1154 q 989 1112 985 1126 q 980 1057 994 1097 q 913 994 966 1017 q 854 970 878 978 q 906 860 888 925 m 476 1409 q 548 1499 496 1473 q 640 1525 600 1525 q 703 1497 681 1525 q 734 1439 724 1469 q 745 1371 745 1409 q 706 1285 745 1332 q 644 1223 667 1238 q 602 1208 621 1208 q 570 1227 582 1208 q 595 1291 557 1246 q 644 1362 633 1336 q 651 1404 655 1388 q 621 1423 647 1421 q 581 1407 595 1426 q 548 1368 566 1388 q 507 1344 530 1348 q 476 1409 484 1340 z "},"":{"ha":972,"x_min":43,"x_max":1123,"o":"m 530 1114 q 830 997 711 1114 q 929 667 929 901 q 925 559 929 617 q 442 5 878 5 q 140 146 245 5 q 43 475 43 274 q 47 559 43 515 q 179 940 65 789 q 530 1114 311 1114 m 600 907 q 538 914 568 914 q 366 859 452 914 q 205 624 251 781 q 180 477 180 545 q 206 351 180 408 q 373 210 254 237 q 439 202 406 202 q 606 250 522 202 q 768 495 724 315 q 787 647 787 581 q 600 907 787 864 m 906 860 q 979 899 944 872 q 1054 974 1016 928 q 1107 1076 1092 1020 q 1098 1189 1123 1133 q 920 1293 1073 1245 q 792 1213 810 1248 q 785 1163 774 1177 q 806 1135 795 1149 q 824 1117 818 1120 q 867 1134 830 1114 q 944 1140 903 1154 q 989 1112 985 1126 q 980 1057 994 1097 q 913 994 966 1017 q 854 970 878 978 q 906 860 888 925 m 476 1409 q 548 1499 496 1473 q 640 1525 600 1525 q 703 1497 681 1525 q 734 1439 724 1469 q 745 1371 745 1409 q 706 1285 745 1332 q 644 1223 667 1238 q 602 1208 621 1208 q 570 1227 582 1208 q 595 1291 557 1246 q 644 1362 633 1336 q 651 1404 655 1388 q 621 1423 647 1421 q 581 1407 595 1426 q 548 1368 566 1388 q 507 1344 530 1348 q 476 1409 484 1340 z "},"":{"ha":972,"x_min":43,"x_max":1123,"o":"m 530 1114 q 830 997 711 1114 q 929 667 929 901 q 925 559 929 617 q 442 5 878 5 q 140 146 245 5 q 43 475 43 274 q 47 559 43 515 q 179 940 65 789 q 530 1114 311 1114 m 600 907 q 538 914 568 914 q 366 859 452 914 q 205 624 251 781 q 180 477 180 545 q 206 351 180 408 q 373 210 254 237 q 439 202 406 202 q 606 250 522 202 q 768 495 724 315 q 787 647 787 581 q 600 907 787 864 m 906 860 q 979 899 944 872 q 1054 974 1016 928 q 1107 1076 1092 1020 q 1098 1189 1123 1133 q 920 1293 1073 1245 q 792 1213 810 1248 q 785 1163 774 1177 q 806 1135 795 1149 q 824 1117 818 1120 q 867 1134 830 1114 q 944 1140 903 1154 q 989 1112 985 1126 q 980 1057 994 1097 q 913 994 966 1017 q 854 970 878 978 q 906 860 888 925 m 408 1283 q 366 1242 393 1241 q 313 1278 332 1244 q 293 1341 296 1305 l 293 1348 q 326 1431 293 1385 q 400 1481 361 1481 q 425 1474 412 1481 q 511 1409 450 1459 q 601 1350 564 1364 q 618 1347 609 1347 q 704 1413 658 1347 q 762 1458 734 1458 q 811 1428 796 1459 q 821 1375 821 1407 l 821 1366 q 787 1279 819 1321 q 677 1206 732 1206 q 666 1207 671 1206 q 559 1241 616 1213 q 463 1302 534 1255 q 437 1310 448 1310 q 408 1283 418 1310 z "},"":{"ha":972,"x_min":43,"x_max":1123,"o":"m 530 1114 q 830 997 711 1114 q 929 667 929 901 q 925 559 929 617 q 442 5 878 5 q 140 146 245 5 q 43 475 43 274 q 47 559 43 515 q 179 940 65 789 q 530 1114 311 1114 m 600 907 q 538 914 568 914 q 366 859 452 914 q 205 624 251 781 q 180 477 180 545 q 206 351 180 408 q 373 210 254 237 q 439 202 406 202 q 606 250 522 202 q 768 495 724 315 q 787 647 787 581 q 600 907 787 864 m 906 860 q 979 899 944 872 q 1054 974 1016 928 q 1107 1076 1092 1020 q 1098 1189 1123 1133 q 920 1293 1073 1245 q 792 1213 810 1248 q 785 1163 774 1177 q 806 1135 795 1149 q 824 1117 818 1120 q 867 1134 830 1114 q 944 1140 903 1154 q 989 1112 985 1126 q 980 1057 994 1097 q 913 994 966 1017 q 854 970 878 978 q 906 860 888 925 m 408 1283 q 366 1242 393 1241 q 313 1278 332 1244 q 293 1341 296 1305 l 293 1348 q 326 1431 293 1385 q 400 1481 361 1481 q 425 1474 412 1481 q 511 1409 450 1459 q 601 1350 564 1364 q 618 1347 609 1347 q 704 1413 658 1347 q 762 1458 734 1458 q 811 1428 796 1459 q 821 1375 821 1407 l 821 1366 q 787 1279 819 1321 q 677 1206 732 1206 q 666 1207 671 1206 q 559 1241 616 1213 q 463 1302 534 1255 q 437 1310 448 1310 q 408 1283 418 1310 z "},"":{"ha":972,"x_min":43,"x_max":1123,"o":"m 530 1114 q 830 997 711 1114 q 929 667 929 901 q 925 559 929 617 q 442 5 878 5 q 140 146 245 5 q 43 475 43 274 q 47 559 43 515 q 179 940 65 789 q 530 1114 311 1114 m 600 907 q 538 914 568 914 q 366 859 452 914 q 205 624 251 781 q 180 477 180 545 q 206 351 180 408 q 373 210 254 237 q 439 202 406 202 q 606 250 522 202 q 768 495 724 315 q 787 647 787 581 q 600 907 787 864 m 906 860 q 979 899 944 872 q 1054 974 1016 928 q 1107 1076 1092 1020 q 1098 1189 1123 1133 q 920 1293 1073 1245 q 792 1213 810 1248 q 785 1163 774 1177 q 806 1135 795 1149 q 824 1117 818 1120 q 867 1134 830 1114 q 944 1140 903 1154 q 989 1112 985 1126 q 980 1057 994 1097 q 913 994 966 1017 q 854 970 878 978 q 906 860 888 925 m 411 -302 q 370 -214 382 -267 q 366 -179 366 -195 q 380 -133 366 -152 q 441 -110 391 -118 q 472 -109 458 -109 q 509 -117 499 -109 q 545 -195 540 -141 q 547 -225 547 -212 q 538 -286 547 -260 q 479 -317 529 -311 q 456 -320 465 -320 q 411 -302 423 -320 z "},"":{"ha":972,"x_min":43,"x_max":1123,"o":"m 530 1114 q 830 997 711 1114 q 929 667 929 901 q 925 559 929 617 q 442 5 878 5 q 140 146 245 5 q 43 475 43 274 q 47 559 43 515 q 179 940 65 789 q 530 1114 311 1114 m 600 907 q 538 914 568 914 q 366 859 452 914 q 205 624 251 781 q 180 477 180 545 q 206 351 180 408 q 373 210 254 237 q 439 202 406 202 q 606 250 522 202 q 768 495 724 315 q 787 647 787 581 q 600 907 787 864 m 906 860 q 979 899 944 872 q 1054 974 1016 928 q 1107 1076 1092 1020 q 1098 1189 1123 1133 q 920 1293 1073 1245 q 792 1213 810 1248 q 785 1163 774 1177 q 806 1135 795 1149 q 824 1117 818 1120 q 867 1134 830 1114 q 944 1140 903 1154 q 989 1112 985 1126 q 980 1057 994 1097 q 913 994 966 1017 q 854 970 878 978 q 906 860 888 925 m 411 -302 q 370 -214 382 -267 q 366 -179 366 -195 q 380 -133 366 -152 q 441 -110 391 -118 q 472 -109 458 -109 q 509 -117 499 -109 q 545 -195 540 -141 q 547 -225 547 -212 q 538 -286 547 -260 q 479 -317 529 -311 q 456 -320 465 -320 q 411 -302 423 -320 z "},"":{"ha":910,"x_min":91,"x_max":850,"o":"m 795 1023 q 841 688 806 935 q 850 553 850 623 q 739 122 850 258 q 461 14 656 22 l 439 14 q 153 179 237 14 q 91 543 91 302 q 100 727 91 632 q 129 1035 113 837 q 206 1085 132 1084 q 264 1072 245 1085 q 281 1029 282 1058 q 254 772 278 955 q 233 514 233 609 q 465 209 235 201 q 708 525 708 217 q 682 761 708 625 q 632 994 677 796 q 629 1025 629 1010 q 696 1092 629 1084 q 709 1093 703 1093 q 764 1077 741 1093 q 795 1023 791 1057 m 411 -302 q 370 -214 382 -267 q 366 -179 366 -195 q 380 -133 366 -152 q 441 -110 391 -118 q 472 -109 458 -109 q 509 -117 499 -109 q 545 -195 540 -141 q 547 -225 547 -212 q 538 -286 547 -260 q 479 -317 529 -311 q 456 -320 465 -320 q 411 -302 423 -320 z "},"":{"ha":910,"x_min":91,"x_max":850,"o":"m 795 1023 q 841 688 806 935 q 850 553 850 623 q 739 122 850 258 q 461 14 656 22 l 439 14 q 153 179 237 14 q 91 543 91 302 q 100 727 91 632 q 129 1035 113 837 q 206 1085 132 1084 q 264 1072 245 1085 q 281 1029 282 1058 q 254 772 278 955 q 233 514 233 609 q 465 209 235 201 q 708 525 708 217 q 682 761 708 625 q 632 994 677 796 q 629 1025 629 1010 q 696 1092 629 1084 q 709 1093 703 1093 q 764 1077 741 1093 q 795 1023 791 1057 m 411 -302 q 370 -214 382 -267 q 366 -179 366 -195 q 380 -133 366 -152 q 441 -110 391 -118 q 472 -109 458 -109 q 509 -117 499 -109 q 545 -195 540 -141 q 547 -225 547 -212 q 538 -286 547 -260 q 479 -317 529 -311 q 456 -320 465 -320 q 411 -302 423 -320 z "},"":{"ha":910,"x_min":91,"x_max":850,"o":"m 795 1023 q 841 688 806 935 q 850 553 850 623 q 739 122 850 258 q 461 14 656 22 l 439 14 q 153 179 237 14 q 91 543 91 302 q 100 727 91 632 q 129 1035 113 837 q 206 1085 132 1084 q 264 1072 245 1085 q 281 1029 282 1058 q 254 772 278 955 q 233 514 233 609 q 465 209 235 201 q 708 525 708 217 q 682 761 708 625 q 632 994 677 796 q 629 1025 629 1010 q 696 1092 629 1084 q 709 1093 703 1093 q 764 1077 741 1093 q 795 1023 791 1057 m 334 1366 q 406 1455 354 1430 q 498 1481 457 1481 q 560 1453 538 1481 q 592 1396 582 1426 q 602 1327 602 1366 q 564 1242 602 1289 q 502 1180 525 1195 q 459 1165 479 1165 q 427 1184 439 1165 q 453 1248 415 1203 q 502 1318 491 1293 q 509 1361 513 1344 q 479 1380 505 1378 q 438 1363 453 1382 q 406 1324 423 1344 q 365 1301 388 1305 q 334 1366 342 1297 z "},"":{"ha":910,"x_min":91,"x_max":850,"o":"m 795 1023 q 841 688 806 935 q 850 553 850 623 q 739 122 850 258 q 461 14 656 22 l 439 14 q 153 179 237 14 q 91 543 91 302 q 100 727 91 632 q 129 1035 113 837 q 206 1085 132 1084 q 264 1072 245 1085 q 281 1029 282 1058 q 254 772 278 955 q 233 514 233 609 q 465 209 235 201 q 708 525 708 217 q 682 761 708 625 q 632 994 677 796 q 629 1025 629 1010 q 696 1092 629 1084 q 709 1093 703 1093 q 764 1077 741 1093 q 795 1023 791 1057 m 334 1366 q 406 1455 354 1430 q 498 1481 457 1481 q 560 1453 538 1481 q 592 1396 582 1426 q 602 1327 602 1366 q 564 1242 602 1289 q 502 1180 525 1195 q 459 1165 479 1165 q 427 1184 439 1165 q 453 1248 415 1203 q 502 1318 491 1293 q 509 1361 513 1344 q 479 1380 505 1378 q 438 1363 453 1382 q 406 1324 423 1344 q 365 1301 388 1305 q 334 1366 342 1297 z "},"":{"ha":910,"x_min":91,"x_max":963,"o":"m 795 1023 q 841 688 806 935 q 850 553 850 623 q 739 122 850 258 q 461 14 656 22 l 439 14 q 153 179 237 14 q 91 543 91 302 q 100 727 91 632 q 129 1035 113 837 q 206 1085 132 1084 q 264 1072 245 1085 q 281 1029 282 1058 q 254 772 278 955 q 233 514 233 609 q 465 209 235 201 q 708 525 708 217 q 682 761 708 625 q 632 994 677 796 q 629 1025 629 1010 q 696 1092 629 1084 q 709 1093 703 1093 q 764 1077 741 1093 q 795 1023 791 1057 m 800 981 q 844 1008 823 990 q 906 1069 875 1031 q 950 1154 937 1107 q 942 1246 963 1200 q 795 1332 921 1293 q 690 1266 704 1295 q 684 1225 675 1237 q 701 1202 692 1214 q 716 1187 711 1190 q 751 1201 722 1184 q 815 1206 781 1218 q 852 1183 849 1195 q 844 1138 856 1171 q 789 1085 833 1105 q 766 1076 777 1080 q 795 1023 791 1055 q 800 981 798 1005 m 629 1455 q 647 1462 639 1462 q 666 1455 656 1462 q 704 1379 705 1431 q 689 1333 699 1358 l 590 1279 q 477 1215 538 1249 q 430 1229 448 1214 q 393 1301 389 1252 q 415 1333 395 1324 q 524 1392 469 1363 q 629 1455 585 1426 z "},"":{"ha":910,"x_min":91,"x_max":963,"o":"m 795 1023 q 841 688 806 935 q 850 553 850 623 q 739 122 850 258 q 461 14 656 22 l 439 14 q 153 179 237 14 q 91 543 91 302 q 100 727 91 632 q 129 1035 113 837 q 206 1085 132 1084 q 264 1072 245 1085 q 281 1029 282 1058 q 254 772 278 955 q 233 514 233 609 q 465 209 235 201 q 708 525 708 217 q 682 761 708 625 q 632 994 677 796 q 629 1025 629 1010 q 696 1092 629 1084 q 709 1093 703 1093 q 764 1077 741 1093 q 795 1023 791 1057 m 800 981 q 844 1008 823 990 q 906 1069 875 1031 q 950 1154 937 1107 q 942 1246 963 1200 q 795 1332 921 1293 q 690 1266 704 1295 q 684 1225 675 1237 q 701 1202 692 1214 q 716 1187 711 1190 q 751 1201 722 1184 q 815 1206 781 1218 q 852 1183 849 1195 q 844 1138 856 1171 q 789 1085 833 1105 q 766 1076 777 1080 q 795 1023 791 1055 q 800 981 798 1005 m 629 1455 q 647 1462 639 1462 q 666 1455 656 1462 q 704 1379 705 1431 q 689 1333 699 1358 l 590 1279 q 477 1215 538 1249 q 430 1229 448 1214 q 393 1301 389 1252 q 415 1333 395 1324 q 524 1392 469 1363 q 629 1455 585 1426 z "},"":{"ha":910,"x_min":91,"x_max":963,"o":"m 795 1023 q 841 688 806 935 q 850 553 850 623 q 739 122 850 258 q 461 14 656 22 l 439 14 q 153 179 237 14 q 91 543 91 302 q 100 727 91 632 q 129 1035 113 837 q 206 1085 132 1084 q 264 1072 245 1085 q 281 1029 282 1058 q 254 772 278 955 q 233 514 233 609 q 465 209 235 201 q 708 525 708 217 q 682 761 708 625 q 632 994 677 796 q 629 1025 629 1010 q 696 1092 629 1084 q 709 1093 703 1093 q 764 1077 741 1093 q 795 1023 791 1057 m 800 981 q 844 1008 823 990 q 906 1069 875 1031 q 950 1154 937 1107 q 942 1246 963 1200 q 795 1332 921 1293 q 690 1266 704 1295 q 684 1225 675 1237 q 701 1202 692 1214 q 716 1187 711 1190 q 751 1201 722 1184 q 815 1206 781 1218 q 852 1183 849 1195 q 844 1138 856 1171 q 789 1085 833 1105 q 766 1076 777 1080 q 795 1023 791 1055 q 800 981 798 1005 m 545 1289 q 562 1278 556 1284 q 567 1257 567 1270 q 526 1183 568 1211 q 480 1169 505 1175 l 378 1219 q 262 1275 324 1244 q 245 1321 243 1298 q 283 1393 241 1367 q 323 1393 302 1405 q 433 1337 378 1366 q 545 1289 495 1308 z "},"":{"ha":910,"x_min":91,"x_max":963,"o":"m 795 1023 q 841 688 806 935 q 850 553 850 623 q 739 122 850 258 q 461 14 656 22 l 439 14 q 153 179 237 14 q 91 543 91 302 q 100 727 91 632 q 129 1035 113 837 q 206 1085 132 1084 q 264 1072 245 1085 q 281 1029 282 1058 q 254 772 278 955 q 233 514 233 609 q 465 209 235 201 q 708 525 708 217 q 682 761 708 625 q 632 994 677 796 q 629 1025 629 1010 q 696 1092 629 1084 q 709 1093 703 1093 q 764 1077 741 1093 q 795 1023 791 1057 m 800 981 q 844 1008 823 990 q 906 1069 875 1031 q 950 1154 937 1107 q 942 1246 963 1200 q 795 1332 921 1293 q 690 1266 704 1295 q 684 1225 675 1237 q 701 1202 692 1214 q 716 1187 711 1190 q 751 1201 722 1184 q 815 1206 781 1218 q 852 1183 849 1195 q 844 1138 856 1171 q 789 1085 833 1105 q 766 1076 777 1080 q 795 1023 791 1055 q 800 981 798 1005 m 545 1289 q 562 1278 556 1284 q 567 1257 567 1270 q 526 1183 568 1211 q 480 1169 505 1175 l 378 1219 q 262 1275 324 1244 q 245 1321 243 1298 q 283 1393 241 1367 q 323 1393 302 1405 q 433 1337 378 1366 q 545 1289 495 1308 z "},"":{"ha":910,"x_min":91,"x_max":963,"o":"m 795 1023 q 841 688 806 935 q 850 553 850 623 q 739 122 850 258 q 461 14 656 22 l 439 14 q 153 179 237 14 q 91 543 91 302 q 100 727 91 632 q 129 1035 113 837 q 206 1085 132 1084 q 264 1072 245 1085 q 281 1029 282 1058 q 254 772 278 955 q 233 514 233 609 q 465 209 235 201 q 708 525 708 217 q 682 761 708 625 q 632 994 677 796 q 629 1025 629 1010 q 696 1092 629 1084 q 709 1093 703 1093 q 764 1077 741 1093 q 795 1023 791 1057 m 800 981 q 844 1008 823 990 q 906 1069 875 1031 q 950 1154 937 1107 q 942 1246 963 1200 q 795 1332 921 1293 q 690 1266 704 1295 q 684 1225 675 1237 q 701 1202 692 1214 q 716 1187 711 1190 q 751 1201 722 1184 q 815 1206 781 1218 q 852 1183 849 1195 q 844 1138 856 1171 q 789 1085 833 1105 q 766 1076 777 1080 q 795 1023 791 1055 q 800 981 798 1005 m 328 1394 q 400 1484 349 1458 q 492 1510 452 1510 q 555 1482 533 1510 q 587 1424 576 1454 q 597 1356 597 1394 q 558 1270 597 1317 q 496 1208 519 1223 q 454 1194 473 1194 q 422 1213 434 1194 q 448 1276 410 1232 q 496 1347 486 1321 q 503 1390 507 1373 q 473 1409 499 1407 q 433 1392 448 1411 q 400 1353 418 1373 q 359 1329 382 1333 q 328 1394 336 1325 z "},"":{"ha":910,"x_min":91,"x_max":963,"o":"m 795 1023 q 841 688 806 935 q 850 553 850 623 q 739 122 850 258 q 461 14 656 22 l 439 14 q 153 179 237 14 q 91 543 91 302 q 100 727 91 632 q 129 1035 113 837 q 206 1085 132 1084 q 264 1072 245 1085 q 281 1029 282 1058 q 254 772 278 955 q 233 514 233 609 q 465 209 235 201 q 708 525 708 217 q 682 761 708 625 q 632 994 677 796 q 629 1025 629 1010 q 696 1092 629 1084 q 709 1093 703 1093 q 764 1077 741 1093 q 795 1023 791 1057 m 800 981 q 844 1008 823 990 q 906 1069 875 1031 q 950 1154 937 1107 q 942 1246 963 1200 q 795 1332 921 1293 q 690 1266 704 1295 q 684 1225 675 1237 q 701 1202 692 1214 q 716 1187 711 1190 q 751 1201 722 1184 q 815 1206 781 1218 q 852 1183 849 1195 q 844 1138 856 1171 q 789 1085 833 1105 q 766 1076 777 1080 q 795 1023 791 1055 q 800 981 798 1005 m 328 1394 q 400 1484 349 1458 q 492 1510 452 1510 q 555 1482 533 1510 q 587 1424 576 1454 q 597 1356 597 1394 q 558 1270 597 1317 q 496 1208 519 1223 q 454 1194 473 1194 q 422 1213 434 1194 q 448 1276 410 1232 q 496 1347 486 1321 q 503 1390 507 1373 q 473 1409 499 1407 q 433 1392 448 1411 q 400 1353 418 1373 q 359 1329 382 1333 q 328 1394 336 1325 z "},"":{"ha":910,"x_min":91,"x_max":963,"o":"m 795 1023 q 841 688 806 935 q 850 553 850 623 q 739 122 850 258 q 461 14 656 22 l 439 14 q 153 179 237 14 q 91 543 91 302 q 100 727 91 632 q 129 1035 113 837 q 206 1085 132 1084 q 264 1072 245 1085 q 281 1029 282 1058 q 254 772 278 955 q 233 514 233 609 q 465 209 235 201 q 708 525 708 217 q 682 761 708 625 q 632 994 677 796 q 629 1025 629 1010 q 696 1092 629 1084 q 709 1093 703 1093 q 764 1077 741 1093 q 795 1023 791 1057 m 800 981 q 844 1008 823 990 q 906 1069 875 1031 q 950 1154 937 1107 q 942 1246 963 1200 q 795 1332 921 1293 q 690 1266 704 1295 q 684 1225 675 1237 q 701 1202 692 1214 q 716 1187 711 1190 q 751 1201 722 1184 q 815 1206 781 1218 q 852 1183 849 1195 q 844 1138 856 1171 q 789 1085 833 1105 q 766 1076 777 1080 q 795 1023 791 1055 q 800 981 798 1005 m 317 1305 q 275 1264 302 1263 q 222 1299 241 1265 q 202 1363 205 1326 l 202 1370 q 235 1453 202 1407 q 309 1503 270 1503 q 334 1496 321 1503 q 420 1431 359 1481 q 510 1371 473 1386 q 528 1369 518 1369 q 613 1435 567 1369 q 671 1480 643 1480 q 720 1450 705 1481 q 730 1397 730 1428 l 730 1388 q 696 1301 728 1343 q 586 1227 642 1227 q 575 1229 581 1227 q 468 1263 525 1234 q 372 1324 444 1276 q 346 1332 357 1332 q 317 1305 327 1332 z "},"":{"ha":910,"x_min":91,"x_max":963,"o":"m 795 1023 q 841 688 806 935 q 850 553 850 623 q 739 122 850 258 q 461 14 656 22 l 439 14 q 153 179 237 14 q 91 543 91 302 q 100 727 91 632 q 129 1035 113 837 q 206 1085 132 1084 q 264 1072 245 1085 q 281 1029 282 1058 q 254 772 278 955 q 233 514 233 609 q 465 209 235 201 q 708 525 708 217 q 682 761 708 625 q 632 994 677 796 q 629 1025 629 1010 q 696 1092 629 1084 q 709 1093 703 1093 q 764 1077 741 1093 q 795 1023 791 1057 m 800 981 q 844 1008 823 990 q 906 1069 875 1031 q 950 1154 937 1107 q 942 1246 963 1200 q 795 1332 921 1293 q 690 1266 704 1295 q 684 1225 675 1237 q 701 1202 692 1214 q 716 1187 711 1190 q 751 1201 722 1184 q 815 1206 781 1218 q 852 1183 849 1195 q 844 1138 856 1171 q 789 1085 833 1105 q 766 1076 777 1080 q 795 1023 791 1055 q 800 981 798 1005 m 317 1305 q 275 1264 302 1263 q 222 1299 241 1265 q 202 1363 205 1326 l 202 1370 q 235 1453 202 1407 q 309 1503 270 1503 q 334 1496 321 1503 q 420 1431 359 1481 q 510 1371 473 1386 q 528 1369 518 1369 q 613 1435 567 1369 q 671 1480 643 1480 q 720 1450 705 1481 q 730 1397 730 1428 l 730 1388 q 696 1301 728 1343 q 586 1227 642 1227 q 575 1229 581 1227 q 468 1263 525 1234 q 372 1324 444 1276 q 346 1332 357 1332 q 317 1305 327 1332 z "},"":{"ha":910,"x_min":91,"x_max":963,"o":"m 795 1023 q 841 688 806 935 q 850 553 850 623 q 739 122 850 258 q 461 14 656 22 l 439 14 q 153 179 237 14 q 91 543 91 302 q 100 727 91 632 q 129 1035 113 837 q 206 1085 132 1084 q 264 1072 245 1085 q 281 1029 282 1058 q 254 772 278 955 q 233 514 233 609 q 465 209 235 201 q 708 525 708 217 q 682 761 708 625 q 632 994 677 796 q 629 1025 629 1010 q 696 1092 629 1084 q 709 1093 703 1093 q 764 1077 741 1093 q 795 1023 791 1057 m 800 981 q 844 1008 823 990 q 906 1069 875 1031 q 950 1154 937 1107 q 942 1246 963 1200 q 795 1332 921 1293 q 690 1266 704 1295 q 684 1225 675 1237 q 701 1202 692 1214 q 716 1187 711 1190 q 751 1201 722 1184 q 815 1206 781 1218 q 852 1183 849 1195 q 844 1138 856 1171 q 789 1085 833 1105 q 766 1076 777 1080 q 795 1023 791 1055 q 800 981 798 1005 m 411 -302 q 370 -214 382 -267 q 366 -179 366 -195 q 380 -133 366 -152 q 441 -110 391 -118 q 472 -109 458 -109 q 509 -117 499 -109 q 545 -195 540 -141 q 547 -225 547 -212 q 538 -286 547 -260 q 479 -317 529 -311 q 456 -320 465 -320 q 411 -302 423 -320 z "},"":{"ha":910,"x_min":91,"x_max":963,"o":"m 795 1023 q 841 688 806 935 q 850 553 850 623 q 739 122 850 258 q 461 14 656 22 l 439 14 q 153 179 237 14 q 91 543 91 302 q 100 727 91 632 q 129 1035 113 837 q 206 1085 132 1084 q 264 1072 245 1085 q 281 1029 282 1058 q 254 772 278 955 q 233 514 233 609 q 465 209 235 201 q 708 525 708 217 q 682 761 708 625 q 632 994 677 796 q 629 1025 629 1010 q 696 1092 629 1084 q 709 1093 703 1093 q 764 1077 741 1093 q 795 1023 791 1057 m 800 981 q 844 1008 823 990 q 906 1069 875 1031 q 950 1154 937 1107 q 942 1246 963 1200 q 795 1332 921 1293 q 690 1266 704 1295 q 684 1225 675 1237 q 701 1202 692 1214 q 716 1187 711 1190 q 751 1201 722 1184 q 815 1206 781 1218 q 852 1183 849 1195 q 844 1138 856 1171 q 789 1085 833 1105 q 766 1076 777 1080 q 795 1023 791 1055 q 800 981 798 1005 m 411 -302 q 370 -214 382 -267 q 366 -179 366 -195 q 380 -133 366 -152 q 441 -110 391 -118 q 472 -109 458 -109 q 509 -117 499 -109 q 545 -195 540 -141 q 547 -225 547 -212 q 538 -286 547 -260 q 479 -317 529 -311 q 456 -320 465 -320 q 411 -302 423 -320 z "},"":{"ha":823,"x_min":42,"x_max":812,"o":"m 629 1080 q 671 1105 637 1103 q 692 1107 681 1107 q 798 1067 755 1107 q 812 1039 812 1053 q 808 1024 812 1032 q 571 534 701 833 q 353 34 461 283 q 308 7 342 9 l 292 7 q 184 45 227 7 q 174 90 161 65 l 351 435 q 46 985 213 711 q 42 1001 42 993 q 58 1035 42 1017 q 107 1069 77 1055 q 170 1085 137 1084 q 213 1062 203 1086 q 433 606 292 868 q 629 1080 544 842 m 518 1263 q 534 1252 530 1259 q 540 1232 540 1244 q 499 1157 543 1185 q 453 1143 479 1149 l 351 1194 q 235 1249 297 1218 q 218 1295 217 1272 q 256 1367 214 1341 q 296 1367 277 1379 q 406 1312 351 1340 q 518 1263 468 1282 z "},"":{"ha":823,"x_min":42,"x_max":812,"o":"m 629 1080 q 671 1105 637 1103 q 692 1107 681 1107 q 798 1067 755 1107 q 812 1039 812 1053 q 808 1024 812 1032 q 571 534 701 833 q 353 34 461 283 q 308 7 342 9 l 292 7 q 184 45 227 7 q 174 90 161 65 l 351 435 q 46 985 213 711 q 42 1001 42 993 q 58 1035 42 1017 q 107 1069 77 1055 q 170 1085 137 1084 q 213 1062 203 1086 q 433 606 292 868 q 629 1080 544 842 m 518 1263 q 534 1252 530 1259 q 540 1232 540 1244 q 499 1157 543 1185 q 453 1143 479 1149 l 351 1194 q 235 1249 297 1218 q 218 1295 217 1272 q 256 1367 214 1341 q 296 1367 277 1379 q 406 1312 351 1340 q 518 1263 468 1282 z "},"":{"ha":823,"x_min":42,"x_max":812,"o":"m 629 1080 q 671 1105 637 1103 q 692 1107 681 1107 q 798 1067 755 1107 q 812 1039 812 1053 q 808 1024 812 1032 q 571 534 701 833 q 353 34 461 283 q 308 7 342 9 l 292 7 q 184 45 227 7 q 174 90 161 65 l 351 435 q 46 985 213 711 q 42 1001 42 993 q 58 1035 42 1017 q 107 1069 77 1055 q 170 1085 137 1084 q 213 1062 203 1086 q 433 606 292 868 q 629 1080 544 842 m 263 -271 q 222 -183 235 -236 q 218 -148 218 -164 q 232 -102 218 -121 q 293 -79 243 -87 q 324 -77 311 -77 q 361 -85 351 -77 q 397 -164 392 -110 q 399 -194 399 -180 q 391 -255 399 -229 q 331 -286 381 -279 q 308 -289 317 -289 q 263 -271 275 -289 z "},"":{"ha":823,"x_min":42,"x_max":812,"o":"m 629 1080 q 671 1105 637 1103 q 692 1107 681 1107 q 798 1067 755 1107 q 812 1039 812 1053 q 808 1024 812 1032 q 571 534 701 833 q 353 34 461 283 q 308 7 342 9 l 292 7 q 184 45 227 7 q 174 90 161 65 l 351 435 q 46 985 213 711 q 42 1001 42 993 q 58 1035 42 1017 q 107 1069 77 1055 q 170 1085 137 1084 q 213 1062 203 1086 q 433 606 292 868 q 629 1080 544 842 m 263 -271 q 222 -183 235 -236 q 218 -148 218 -164 q 232 -102 218 -121 q 293 -79 243 -87 q 324 -77 311 -77 q 361 -85 351 -77 q 397 -164 392 -110 q 399 -194 399 -180 q 391 -255 399 -229 q 331 -286 381 -279 q 308 -289 317 -289 q 263 -271 275 -289 z "},"":{"ha":823,"x_min":42,"x_max":812,"o":"m 629 1080 q 671 1105 637 1103 q 692 1107 681 1107 q 798 1067 755 1107 q 812 1039 812 1053 q 808 1024 812 1032 q 571 534 701 833 q 353 34 461 283 q 308 7 342 9 l 292 7 q 184 45 227 7 q 174 90 161 65 l 351 435 q 46 985 213 711 q 42 1001 42 993 q 58 1035 42 1017 q 107 1069 77 1055 q 170 1085 137 1084 q 213 1062 203 1086 q 433 606 292 868 q 629 1080 544 842 m 281 1383 q 353 1473 301 1447 q 445 1499 404 1499 q 507 1471 486 1499 q 539 1413 529 1443 q 549 1345 549 1383 q 511 1259 549 1306 q 449 1198 472 1213 q 406 1183 426 1183 q 374 1202 387 1183 q 400 1265 362 1221 q 449 1336 438 1310 q 456 1379 460 1362 q 426 1398 452 1396 q 385 1381 400 1400 q 353 1342 370 1362 q 312 1318 335 1322 q 281 1383 289 1314 z "},"":{"ha":823,"x_min":42,"x_max":812,"o":"m 629 1080 q 671 1105 637 1103 q 692 1107 681 1107 q 798 1067 755 1107 q 812 1039 812 1053 q 808 1024 812 1032 q 571 534 701 833 q 353 34 461 283 q 308 7 342 9 l 292 7 q 184 45 227 7 q 174 90 161 65 l 351 435 q 46 985 213 711 q 42 1001 42 993 q 58 1035 42 1017 q 107 1069 77 1055 q 170 1085 137 1084 q 213 1062 203 1086 q 433 606 292 868 q 629 1080 544 842 m 281 1383 q 353 1473 301 1447 q 445 1499 404 1499 q 507 1471 486 1499 q 539 1413 529 1443 q 549 1345 549 1383 q 511 1259 549 1306 q 449 1198 472 1213 q 406 1183 426 1183 q 374 1202 387 1183 q 400 1265 362 1221 q 449 1336 438 1310 q 456 1379 460 1362 q 426 1398 452 1396 q 385 1381 400 1400 q 353 1342 370 1362 q 312 1318 335 1322 q 281 1383 289 1314 z "},"":{"ha":823,"x_min":42,"x_max":812,"o":"m 629 1080 q 671 1105 637 1103 q 692 1107 681 1107 q 798 1067 755 1107 q 812 1039 812 1053 q 808 1024 812 1032 q 571 534 701 833 q 353 34 461 283 q 308 7 342 9 l 292 7 q 184 45 227 7 q 174 90 161 65 l 351 435 q 46 985 213 711 q 42 1001 42 993 q 58 1035 42 1017 q 107 1069 77 1055 q 170 1085 137 1084 q 213 1062 203 1086 q 433 606 292 868 q 629 1080 544 842 m 260 1230 q 218 1190 245 1188 q 165 1225 184 1191 q 145 1289 148 1252 l 145 1295 q 178 1378 145 1332 q 252 1428 213 1428 q 277 1421 264 1428 q 363 1356 302 1407 q 453 1297 416 1312 q 471 1294 461 1294 q 556 1360 510 1294 q 614 1405 586 1405 q 663 1375 648 1407 q 673 1322 673 1354 l 673 1313 q 639 1226 671 1268 q 529 1153 585 1153 q 518 1154 524 1153 q 411 1188 468 1160 q 315 1249 387 1202 q 289 1257 300 1257 q 260 1230 270 1257 z "},"":{"ha":823,"x_min":42,"x_max":812,"o":"m 629 1080 q 671 1105 637 1103 q 692 1107 681 1107 q 798 1067 755 1107 q 812 1039 812 1053 q 808 1024 812 1032 q 571 534 701 833 q 353 34 461 283 q 308 7 342 9 l 292 7 q 184 45 227 7 q 174 90 161 65 l 351 435 q 46 985 213 711 q 42 1001 42 993 q 58 1035 42 1017 q 107 1069 77 1055 q 170 1085 137 1084 q 213 1062 203 1086 q 433 606 292 868 q 629 1080 544 842 m 260 1230 q 218 1190 245 1188 q 165 1225 184 1191 q 145 1289 148 1252 l 145 1295 q 178 1378 145 1332 q 252 1428 213 1428 q 277 1421 264 1428 q 363 1356 302 1407 q 453 1297 416 1312 q 471 1294 461 1294 q 556 1360 510 1294 q 614 1405 586 1405 q 663 1375 648 1407 q 673 1322 673 1354 l 673 1313 q 639 1226 671 1268 q 529 1153 585 1153 q 518 1154 524 1153 q 411 1188 468 1160 q 315 1249 387 1202 q 289 1257 300 1257 q 260 1230 270 1257 z "},"":{"ha":978,"x_min":75,"x_max":955,"o":"m 411 1028 q 448 1089 410 1066 q 521 1109 477 1107 l 533 1109 q 595 1097 568 1109 q 640 1040 636 1078 q 779 579 690 806 l 952 133 q 955 119 955 126 q 883 52 955 84 q 819 33 844 33 q 784 56 792 33 l 749 160 q 715 266 731 212 l 505 278 q 377 281 441 281 q 292 279 334 281 q 269 47 266 164 q 205 4 270 4 q 123 24 164 4 q 75 85 75 50 l 75 87 q 252 610 87 320 q 359 810 340 766 q 411 1028 414 929 m 656 452 q 534 807 600 628 q 347 453 467 692 q 502 446 425 445 q 656 452 579 448 m 754 1324 l 613 1183 q 541 1150 583 1154 l 540 1150 q 476 1176 500 1149 q 292 1321 389 1257 l 267 1337 l 277 1341 q 346 1409 304 1404 q 392 1423 370 1413 q 403 1415 397 1419 q 533 1326 452 1381 q 632 1416 585 1373 q 719 1382 678 1408 q 754 1324 766 1354 z "},"":{"ha":978,"x_min":75,"x_max":955,"o":"m 411 1028 q 448 1089 410 1066 q 521 1109 477 1107 l 533 1109 q 595 1097 568 1109 q 640 1040 636 1078 q 779 579 690 806 l 952 133 q 955 119 955 126 q 883 52 955 84 q 819 33 844 33 q 784 56 792 33 l 749 160 q 715 266 731 212 l 505 278 q 377 281 441 281 q 292 279 334 281 q 269 47 266 164 q 205 4 270 4 q 123 24 164 4 q 75 85 75 50 l 75 87 q 252 610 87 320 q 359 810 340 766 q 411 1028 414 929 m 656 452 q 534 807 600 628 q 347 453 467 692 q 502 446 425 445 q 656 452 579 448 m 754 1324 l 613 1183 q 541 1150 583 1154 l 540 1150 q 476 1176 500 1149 q 292 1321 389 1257 l 267 1337 l 277 1341 q 346 1409 304 1404 q 392 1423 370 1413 q 403 1415 397 1419 q 533 1326 452 1381 q 632 1416 585 1373 q 719 1382 678 1408 q 754 1324 766 1354 z "},"":{"ha":972,"x_min":43,"x_max":929,"o":"m 530 1114 q 830 997 711 1114 q 929 667 929 901 q 925 559 929 617 q 442 5 878 5 q 140 146 245 5 q 43 475 43 274 q 47 559 43 515 q 179 940 65 789 q 530 1114 311 1114 m 600 907 q 538 914 568 914 q 366 859 452 914 q 205 624 251 781 q 180 477 180 545 q 206 351 180 408 q 373 210 254 237 q 439 202 406 202 q 606 250 522 202 q 768 495 724 315 q 787 647 787 581 q 600 907 787 864 m 677 1310 q 693 1299 688 1306 q 699 1279 699 1291 q 658 1204 700 1233 q 612 1191 636 1196 l 510 1241 q 393 1297 456 1265 q 377 1343 374 1320 q 415 1415 373 1389 q 454 1415 434 1427 q 564 1359 510 1388 q 677 1310 627 1329 z "},"":{"ha":972,"x_min":43,"x_max":929,"o":"m 530 1114 q 830 997 711 1114 q 929 667 929 901 q 925 559 929 617 q 442 5 878 5 q 140 146 245 5 q 43 475 43 274 q 47 559 43 515 q 179 940 65 789 q 530 1114 311 1114 m 600 907 q 538 914 568 914 q 366 859 452 914 q 205 624 251 781 q 180 477 180 545 q 206 351 180 408 q 373 210 254 237 q 439 202 406 202 q 606 250 522 202 q 768 495 724 315 q 787 647 787 581 q 600 907 787 864 m 350 1270 l 498 1417 q 571 1453 528 1449 l 574 1453 q 640 1424 614 1454 q 833 1274 731 1340 l 859 1257 l 849 1252 q 776 1181 821 1188 q 728 1168 751 1177 q 716 1176 723 1172 q 581 1268 666 1211 q 477 1175 526 1219 q 387 1208 430 1183 q 350 1270 336 1240 z "},"":{"ha":972,"x_min":43,"x_max":929,"o":"m 530 1114 q 830 997 711 1114 q 929 667 929 901 q 925 559 929 617 q 442 5 878 5 q 140 146 245 5 q 43 475 43 274 q 47 559 43 515 q 179 940 65 789 q 530 1114 311 1114 m 600 907 q 538 914 568 914 q 366 859 452 914 q 205 624 251 781 q 180 477 180 545 q 206 351 180 408 q 373 210 254 237 q 439 202 406 202 q 606 250 522 202 q 768 495 724 315 q 787 647 787 581 q 600 907 787 864 m 461 1279 q 419 1238 446 1237 q 366 1274 385 1240 q 346 1337 349 1301 l 346 1344 q 378 1427 346 1381 q 453 1477 414 1477 q 477 1470 465 1477 q 564 1405 503 1455 q 654 1345 617 1360 q 671 1343 662 1343 q 757 1409 711 1343 q 815 1454 787 1454 q 864 1424 849 1455 q 873 1371 873 1402 l 873 1362 q 840 1275 872 1317 q 730 1202 785 1202 q 719 1203 724 1202 q 612 1237 669 1208 q 515 1298 587 1251 q 490 1306 500 1306 q 461 1279 471 1306 z "},"":{"ha":910,"x_min":91,"x_max":850,"o":"m 795 1023 q 841 688 806 935 q 850 553 850 623 q 739 122 850 258 q 461 14 656 22 l 439 14 q 153 179 237 14 q 91 543 91 302 q 100 727 91 632 q 129 1035 113 837 q 206 1085 132 1084 q 264 1072 245 1085 q 281 1029 282 1058 q 254 772 278 955 q 233 514 233 609 q 465 209 235 201 q 708 525 708 217 q 682 761 708 625 q 632 994 677 796 q 629 1025 629 1010 q 696 1092 629 1084 q 709 1093 703 1093 q 764 1077 741 1093 q 795 1023 791 1057 m 524 1310 q 540 1299 534 1306 q 545 1279 545 1291 q 505 1204 547 1233 q 458 1191 483 1196 l 357 1241 q 240 1297 302 1265 q 224 1343 221 1320 q 262 1415 220 1389 q 301 1415 281 1427 q 411 1359 357 1388 q 524 1310 473 1329 z "},"":{"ha":823,"x_min":42,"x_max":812,"o":"m 629 1080 q 671 1105 637 1103 q 692 1107 681 1107 q 798 1067 755 1107 q 812 1039 812 1053 q 808 1024 812 1032 q 571 534 701 833 q 353 34 461 283 q 308 7 342 9 l 292 7 q 184 45 227 7 q 174 90 161 65 l 351 435 q 46 985 213 711 q 42 1001 42 993 q 58 1035 42 1017 q 107 1069 77 1055 q 170 1085 137 1084 q 213 1062 203 1086 q 433 606 292 868 q 629 1080 544 842 m 590 1408 q 608 1415 600 1415 q 627 1408 617 1415 q 665 1332 666 1383 q 650 1286 659 1310 l 551 1232 q 438 1168 499 1202 q 391 1181 408 1166 q 354 1253 350 1204 q 376 1286 355 1276 q 484 1344 430 1316 q 590 1408 545 1378 z "},"":{"ha":395,"x_min":-50,"x_max":477,"o":"m 110 1029 l 110 1032 q 203 1086 110 1073 q 229 1088 217 1088 q 296 1058 296 1088 l 296 1054 q 278 578 267 811 q 296 107 290 266 l 296 106 q 203 49 296 61 q 176 46 190 46 q 110 81 110 46 q 118 547 110 305 q 110 1029 126 799 m 65 1246 q 23 1206 50 1204 q -30 1241 -11 1207 q -50 1305 -47 1268 l -50 1312 q -18 1394 -50 1348 q 57 1444 18 1444 q 81 1438 69 1444 q 168 1373 107 1423 q 258 1313 221 1328 q 275 1310 266 1310 q 361 1377 315 1310 q 419 1421 391 1421 q 468 1392 453 1423 q 477 1339 477 1370 l 477 1329 q 444 1242 476 1284 q 334 1169 389 1169 q 323 1171 328 1169 q 216 1204 273 1176 q 119 1265 191 1218 q 94 1274 104 1274 q 65 1246 75 1274 z "},"":{"ha":978,"x_min":75,"x_max":955,"o":"m 411 1028 q 448 1089 410 1066 q 521 1109 477 1107 l 533 1109 q 595 1097 568 1109 q 640 1040 636 1078 q 779 579 690 806 l 952 133 q 955 119 955 126 q 883 52 955 84 q 819 33 844 33 q 784 56 792 33 l 749 160 q 715 266 731 212 l 505 278 q 377 281 441 281 q 292 279 334 281 q 269 47 266 164 q 205 4 270 4 q 123 24 164 4 q 75 85 75 50 l 75 87 q 252 610 87 320 q 359 810 340 766 q 411 1028 414 929 m 656 452 q 534 807 600 628 q 347 453 467 692 q 502 446 425 445 q 656 452 579 448 m 651 1279 q 667 1268 662 1275 q 673 1248 673 1260 q 632 1173 674 1202 q 586 1160 610 1165 l 484 1210 q 368 1265 430 1234 q 351 1312 349 1289 q 389 1383 347 1358 q 429 1383 408 1396 q 538 1328 484 1356 q 651 1279 601 1298 z "},"":{"ha":978,"x_min":75,"x_max":955,"o":"m 411 1028 q 448 1089 410 1066 q 521 1109 477 1107 l 533 1109 q 595 1097 568 1109 q 640 1040 636 1078 q 779 579 690 806 l 952 133 q 955 119 955 126 q 883 52 955 84 q 819 33 844 33 q 784 56 792 33 l 749 160 q 715 266 731 212 l 505 278 q 377 281 441 281 q 292 279 334 281 q 269 47 266 164 q 205 4 270 4 q 123 24 164 4 q 75 85 75 50 l 75 87 q 252 610 87 320 q 359 810 340 766 q 411 1028 414 929 m 656 452 q 534 807 600 628 q 347 453 467 692 q 502 446 425 445 q 656 452 579 448 m 297 1218 l 431 1354 q 499 1385 460 1381 l 502 1385 q 563 1359 540 1386 q 739 1221 646 1282 l 762 1206 l 754 1202 q 688 1137 728 1142 q 643 1124 665 1133 q 633 1131 637 1127 q 509 1217 586 1164 q 414 1130 458 1172 q 331 1162 370 1138 q 297 1218 285 1190 z "},"":{"ha":978,"x_min":75,"x_max":955,"o":"m 411 1028 q 448 1089 410 1066 q 521 1109 477 1107 l 533 1109 q 595 1097 568 1109 q 640 1040 636 1078 q 779 579 690 806 l 952 133 q 955 119 955 126 q 883 52 955 84 q 819 33 844 33 q 784 56 792 33 l 749 160 q 715 266 731 212 l 505 278 q 377 281 441 281 q 292 279 334 281 q 269 47 266 164 q 205 4 270 4 q 123 24 164 4 q 75 85 75 50 l 75 87 q 252 610 87 320 q 359 810 340 766 q 411 1028 414 929 m 656 452 q 534 807 600 628 q 347 453 467 692 q 502 446 425 445 q 656 452 579 448 m 403 1246 q 361 1206 388 1204 q 308 1241 327 1207 q 288 1305 290 1268 l 288 1312 q 320 1394 288 1348 q 395 1444 355 1444 q 419 1438 407 1444 q 506 1373 445 1423 q 595 1313 559 1328 q 613 1310 604 1310 q 699 1377 652 1310 q 757 1421 728 1421 q 806 1392 791 1423 q 815 1339 815 1370 l 815 1329 q 781 1242 814 1284 q 671 1169 727 1169 q 661 1171 666 1169 q 553 1204 610 1176 q 457 1265 529 1218 q 431 1274 442 1274 q 403 1246 412 1274 z "},"":{"ha":978,"x_min":75,"x_max":955,"o":"m 411 1028 q 448 1089 410 1066 q 521 1109 477 1107 l 533 1109 q 595 1097 568 1109 q 640 1040 636 1078 q 779 579 690 806 l 952 133 q 955 119 955 126 q 883 52 955 84 q 819 33 844 33 q 784 56 792 33 l 749 160 q 715 266 731 212 l 505 278 q 377 281 441 281 q 292 279 334 281 q 269 47 266 164 q 205 4 270 4 q 123 24 164 4 q 75 85 75 50 l 75 87 q 252 610 87 320 q 359 810 340 766 q 411 1028 414 929 m 656 452 q 534 807 600 628 q 347 453 467 692 q 502 446 425 445 q 656 452 579 448 m 651 1279 q 667 1268 662 1275 q 673 1248 673 1260 q 632 1173 674 1202 q 586 1160 610 1165 l 484 1210 q 368 1265 430 1234 q 351 1312 349 1289 q 389 1383 347 1358 q 429 1383 408 1396 q 538 1328 484 1356 q 651 1279 601 1298 z "},"":{"ha":978,"x_min":75,"x_max":955,"o":"m 411 1028 q 448 1089 410 1066 q 521 1109 477 1107 l 533 1109 q 595 1097 568 1109 q 640 1040 636 1078 q 779 579 690 806 l 952 133 q 955 119 955 126 q 883 52 955 84 q 819 33 844 33 q 784 56 792 33 l 749 160 q 715 266 731 212 l 505 278 q 377 281 441 281 q 292 279 334 281 q 269 47 266 164 q 205 4 270 4 q 123 24 164 4 q 75 85 75 50 l 75 87 q 252 610 87 320 q 359 810 340 766 q 411 1028 414 929 m 656 452 q 534 807 600 628 q 347 453 467 692 q 502 446 425 445 q 656 452 579 448 m 297 1218 l 431 1354 q 499 1385 460 1381 l 502 1385 q 563 1359 540 1386 q 739 1221 646 1282 l 762 1206 l 754 1202 q 688 1137 728 1142 q 643 1124 665 1133 q 633 1131 637 1127 q 509 1217 586 1164 q 414 1130 458 1172 q 331 1162 370 1138 q 297 1218 285 1190 z "},"":{"ha":978,"x_min":75,"x_max":955,"o":"m 411 1028 q 448 1089 410 1066 q 521 1109 477 1107 l 533 1109 q 595 1097 568 1109 q 640 1040 636 1078 q 779 579 690 806 l 952 133 q 955 119 955 126 q 883 52 955 84 q 819 33 844 33 q 784 56 792 33 l 749 160 q 715 266 731 212 l 505 278 q 377 281 441 281 q 292 279 334 281 q 269 47 266 164 q 205 4 270 4 q 123 24 164 4 q 75 85 75 50 l 75 87 q 252 610 87 320 q 359 810 340 766 q 411 1028 414 929 m 656 452 q 534 807 600 628 q 347 453 467 692 q 502 446 425 445 q 656 452 579 448 m 403 1246 q 361 1206 388 1204 q 308 1241 327 1207 q 288 1305 290 1268 l 288 1312 q 320 1394 288 1348 q 395 1444 355 1444 q 419 1438 407 1444 q 506 1373 445 1423 q 595 1313 559 1328 q 613 1310 604 1310 q 699 1377 652 1310 q 757 1421 728 1421 q 806 1392 791 1423 q 815 1339 815 1370 l 815 1329 q 781 1242 814 1284 q 671 1169 727 1169 q 661 1171 666 1169 q 553 1204 610 1176 q 457 1265 529 1218 q 431 1274 442 1274 q 403 1246 412 1274 z "},"":{"ha":972,"x_min":43,"x_max":929,"o":"m 530 1114 q 830 997 711 1114 q 929 667 929 901 q 925 559 929 617 q 442 5 878 5 q 140 146 245 5 q 43 475 43 274 q 47 559 43 515 q 179 940 65 789 q 530 1114 311 1114 m 600 907 q 538 914 568 914 q 366 859 452 914 q 205 624 251 781 q 180 477 180 545 q 206 351 180 408 q 373 210 254 237 q 439 202 406 202 q 606 250 522 202 q 768 495 724 315 q 787 647 787 581 q 600 907 787 864 m 677 1310 q 693 1299 688 1306 q 699 1279 699 1291 q 658 1204 700 1233 q 612 1191 636 1196 l 510 1241 q 393 1297 456 1265 q 377 1343 374 1320 q 415 1415 373 1389 q 454 1415 434 1427 q 564 1359 510 1388 q 677 1310 627 1329 z "},"":{"ha":972,"x_min":43,"x_max":929,"o":"m 530 1114 q 830 997 711 1114 q 929 667 929 901 q 925 559 929 617 q 442 5 878 5 q 140 146 245 5 q 43 475 43 274 q 47 559 43 515 q 179 940 65 789 q 530 1114 311 1114 m 600 907 q 538 914 568 914 q 366 859 452 914 q 205 624 251 781 q 180 477 180 545 q 206 351 180 408 q 373 210 254 237 q 439 202 406 202 q 606 250 522 202 q 768 495 724 315 q 787 647 787 581 q 600 907 787 864 m 350 1270 l 498 1417 q 571 1453 528 1449 l 574 1453 q 640 1424 614 1454 q 833 1274 731 1340 l 859 1257 l 849 1252 q 776 1181 821 1188 q 728 1168 751 1177 q 716 1176 723 1172 q 581 1268 666 1211 q 477 1175 526 1219 q 387 1208 430 1183 q 350 1270 336 1240 z "},"":{"ha":972,"x_min":43,"x_max":929,"o":"m 530 1114 q 830 997 711 1114 q 929 667 929 901 q 925 559 929 617 q 442 5 878 5 q 140 146 245 5 q 43 475 43 274 q 47 559 43 515 q 179 940 65 789 q 530 1114 311 1114 m 600 907 q 538 914 568 914 q 366 859 452 914 q 205 624 251 781 q 180 477 180 545 q 206 351 180 408 q 373 210 254 237 q 439 202 406 202 q 606 250 522 202 q 768 495 724 315 q 787 647 787 581 q 600 907 787 864 m 461 1279 q 419 1238 446 1237 q 366 1274 385 1240 q 346 1337 349 1301 l 346 1344 q 378 1427 346 1381 q 453 1477 414 1477 q 477 1470 465 1477 q 564 1405 503 1455 q 654 1345 617 1360 q 671 1343 662 1343 q 757 1409 711 1343 q 815 1454 787 1454 q 864 1424 849 1455 q 873 1371 873 1402 l 873 1362 q 840 1275 872 1317 q 730 1202 785 1202 q 719 1203 724 1202 q 612 1237 669 1208 q 515 1298 587 1251 q 490 1306 500 1306 q 461 1279 471 1306 z "},"":{"ha":708,"x_min":84,"x_max":644,"o":"m 90 1020 l 90 1023 q 156 1076 90 1063 q 209 1080 186 1080 q 260 1070 240 1080 q 381 1063 319 1061 q 524 1067 456 1066 q 572 1031 555 1067 q 587 966 586 1001 q 576 903 587 929 q 529 869 562 867 q 395 882 521 869 q 260 888 316 890 q 256 742 256 815 q 256 594 255 667 q 340 587 298 587 q 456 595 387 587 q 570 610 513 604 q 623 578 601 613 q 643 515 637 552 q 644 494 644 505 q 594 414 644 414 q 461 416 509 412 q 263 400 410 420 l 262 400 q 270 217 264 305 q 396 228 331 218 l 541 250 q 600 221 575 255 q 625 157 618 195 q 627 133 627 145 q 572 53 627 56 q 387 45 479 49 q 199 27 281 39 q 174 23 187 23 q 129 34 153 23 q 90 72 90 50 q 98 537 90 296 q 90 1020 106 787 m 388 1263 q 404 1252 400 1259 q 410 1232 410 1244 q 369 1157 412 1185 q 323 1143 349 1149 l 221 1194 q 104 1249 167 1218 q 88 1295 87 1272 q 126 1367 84 1341 q 165 1367 146 1379 q 275 1312 221 1340 q 388 1263 338 1282 z "},"":{"ha":708,"x_min":90,"x_max":644,"o":"m 90 1020 l 90 1023 q 156 1076 90 1063 q 209 1080 186 1080 q 260 1070 240 1080 q 381 1063 319 1061 q 524 1067 456 1066 q 572 1031 555 1067 q 587 966 586 1001 q 576 903 587 929 q 529 869 562 867 q 395 882 521 869 q 260 888 316 890 q 256 742 256 815 q 256 594 255 667 q 340 587 298 587 q 456 595 387 587 q 570 610 513 604 q 623 578 601 613 q 643 515 637 552 q 644 494 644 505 q 594 414 644 414 q 461 416 509 412 q 263 400 410 420 l 262 400 q 270 217 264 305 q 396 228 331 218 l 541 250 q 600 221 575 255 q 625 157 618 195 q 627 133 627 145 q 572 53 627 56 q 387 45 479 49 q 199 27 281 39 q 174 23 187 23 q 129 34 153 23 q 90 72 90 50 q 98 537 90 296 q 90 1020 106 787 m 126 1213 l 266 1354 q 336 1386 294 1382 l 339 1386 q 401 1360 377 1388 q 585 1217 488 1279 l 609 1200 l 600 1196 q 530 1128 574 1135 q 486 1115 507 1124 q 475 1123 480 1119 q 346 1211 426 1157 q 247 1122 294 1165 q 161 1156 202 1130 q 126 1213 114 1184 z "},"":{"ha":910,"x_min":91,"x_max":850,"o":"m 795 1023 q 841 688 806 935 q 850 553 850 623 q 739 122 850 258 q 461 14 656 22 l 439 14 q 153 179 237 14 q 91 543 91 302 q 100 727 91 632 q 129 1035 113 837 q 206 1085 132 1084 q 264 1072 245 1085 q 281 1029 282 1058 q 254 772 278 955 q 233 514 233 609 q 465 209 235 201 q 708 525 708 217 q 682 761 708 625 q 632 994 677 796 q 629 1025 629 1010 q 696 1092 629 1084 q 709 1093 703 1093 q 764 1077 741 1093 q 795 1023 791 1057 m 524 1310 q 540 1299 534 1306 q 545 1279 545 1291 q 505 1204 547 1233 q 458 1191 483 1196 l 357 1241 q 240 1297 302 1265 q 224 1343 221 1320 q 262 1415 220 1389 q 301 1415 281 1427 q 411 1359 357 1388 q 524 1310 473 1329 z "},"":{"ha":708,"x_min":84,"x_max":644,"o":"m 90 1020 l 90 1023 q 156 1076 90 1063 q 209 1080 186 1080 q 260 1070 240 1080 q 381 1063 319 1061 q 524 1067 456 1066 q 572 1031 555 1067 q 587 966 586 1001 q 576 903 587 929 q 529 869 562 867 q 395 882 521 869 q 260 888 316 890 q 256 742 256 815 q 256 594 255 667 q 340 587 298 587 q 456 595 387 587 q 570 610 513 604 q 623 578 601 613 q 643 515 637 552 q 644 494 644 505 q 594 414 644 414 q 461 416 509 412 q 263 400 410 420 l 262 400 q 270 217 264 305 q 396 228 331 218 l 541 250 q 600 221 575 255 q 625 157 618 195 q 627 133 627 145 q 572 53 627 56 q 387 45 479 49 q 199 27 281 39 q 174 23 187 23 q 129 34 153 23 q 90 72 90 50 q 98 537 90 296 q 90 1020 106 787 m 388 1263 q 404 1252 400 1259 q 410 1232 410 1244 q 369 1157 412 1185 q 323 1143 349 1149 l 221 1194 q 104 1249 167 1218 q 88 1295 87 1272 q 126 1367 84 1341 q 165 1367 146 1379 q 275 1312 221 1340 q 388 1263 338 1282 z "},"":{"ha":708,"x_min":90,"x_max":644,"o":"m 90 1020 l 90 1023 q 156 1076 90 1063 q 209 1080 186 1080 q 260 1070 240 1080 q 381 1063 319 1061 q 524 1067 456 1066 q 572 1031 555 1067 q 587 966 586 1001 q 576 903 587 929 q 529 869 562 867 q 395 882 521 869 q 260 888 316 890 q 256 742 256 815 q 256 594 255 667 q 340 587 298 587 q 456 595 387 587 q 570 610 513 604 q 623 578 601 613 q 643 515 637 552 q 644 494 644 505 q 594 414 644 414 q 461 416 509 412 q 263 400 410 420 l 262 400 q 270 217 264 305 q 396 228 331 218 l 541 250 q 600 221 575 255 q 625 157 618 195 q 627 133 627 145 q 572 53 627 56 q 387 45 479 49 q 199 27 281 39 q 174 23 187 23 q 129 34 153 23 q 90 72 90 50 q 98 537 90 296 q 90 1020 106 787 m 126 1213 l 266 1354 q 336 1386 294 1382 l 339 1386 q 401 1360 377 1388 q 585 1217 488 1279 l 609 1200 l 600 1196 q 530 1128 574 1135 q 486 1115 507 1124 q 475 1123 480 1119 q 346 1211 426 1157 q 247 1122 294 1165 q 161 1156 202 1130 q 126 1213 114 1184 z "},"":{"ha":395,"x_min":46,"x_max":374,"o":"m 110 1029 l 110 1032 q 203 1086 110 1073 q 229 1088 217 1088 q 296 1058 296 1088 l 296 1054 q 278 578 267 811 q 296 107 290 266 l 296 106 q 203 49 296 61 q 176 46 190 46 q 110 81 110 46 q 118 547 110 305 q 110 1029 126 799 m 350 1252 q 366 1241 362 1248 q 372 1221 372 1233 q 331 1146 374 1175 q 285 1133 311 1138 l 183 1183 q 66 1238 129 1207 q 50 1284 49 1261 q 88 1356 46 1331 q 127 1356 109 1369 q 237 1301 183 1329 q 350 1252 300 1271 z "},"":{"ha":823,"x_min":42,"x_max":812,"o":"m 629 1080 q 671 1105 637 1103 q 692 1107 681 1107 q 798 1067 755 1107 q 812 1039 812 1053 q 808 1024 812 1032 q 571 534 701 833 q 353 34 461 283 q 308 7 342 9 l 292 7 q 184 45 227 7 q 174 90 161 65 l 351 435 q 46 985 213 711 q 42 1001 42 993 q 58 1035 42 1017 q 107 1069 77 1055 q 170 1085 137 1084 q 213 1062 203 1086 q 433 606 292 868 q 629 1080 544 842 m 590 1408 q 608 1415 600 1415 q 627 1408 617 1415 q 665 1332 666 1383 q 650 1286 659 1310 l 551 1232 q 438 1168 499 1202 q 391 1181 408 1166 q 354 1253 350 1204 q 376 1286 355 1276 q 484 1344 430 1316 q 590 1408 545 1378 z "},"":{"ha":780,"x_min":71,"x_max":719,"o":"m 473 932 q 464 689 464 811 q 480 235 464 555 q 621 245 488 235 q 689 220 662 248 q 719 149 716 191 l 719 145 q 696 77 719 104 q 628 47 670 47 q 525 49 590 47 q 422 50 452 50 q 113 34 294 50 l 110 34 q 77 73 87 34 q 71 134 71 100 q 117 235 72 240 q 301 225 217 222 q 309 705 309 745 q 305 928 309 817 q 145 916 243 925 q 84 1015 102 911 q 80 1057 80 1036 q 109 1112 80 1116 q 339 1105 227 1096 l 605 1126 l 614 1126 q 684 1093 654 1126 q 715 1009 715 1057 q 640 929 715 929 q 556 930 612 929 q 473 932 500 932 m 450 1294 q 467 1283 463 1290 q 472 1263 472 1275 q 431 1188 475 1217 q 385 1175 411 1180 l 283 1225 q 167 1280 229 1249 q 151 1326 149 1303 q 189 1398 146 1373 q 228 1398 209 1411 q 338 1343 283 1371 q 450 1294 400 1313 z "},"":{"ha":972,"x_min":43,"x_max":1123,"o":"m 530 1114 q 830 997 711 1114 q 929 667 929 901 q 925 559 929 617 q 442 5 878 5 q 140 146 245 5 q 43 475 43 274 q 47 559 43 515 q 179 940 65 789 q 530 1114 311 1114 m 600 907 q 538 914 568 914 q 366 859 452 914 q 205 624 251 781 q 180 477 180 545 q 206 351 180 408 q 373 210 254 237 q 439 202 406 202 q 606 250 522 202 q 768 495 724 315 q 787 647 787 581 q 600 907 787 864 m 906 860 q 979 899 944 872 q 1054 974 1016 928 q 1107 1076 1092 1020 q 1098 1189 1123 1133 q 920 1293 1073 1245 q 792 1213 810 1248 q 785 1163 774 1177 q 806 1135 795 1149 q 824 1117 818 1120 q 867 1134 830 1114 q 944 1140 903 1154 q 989 1112 985 1126 q 980 1057 994 1097 q 913 994 966 1017 q 854 970 878 978 q 906 860 888 925 m 677 1310 q 693 1299 688 1306 q 699 1279 699 1291 q 658 1204 700 1233 q 612 1191 636 1196 l 510 1241 q 393 1297 456 1265 q 377 1343 374 1320 q 415 1415 373 1389 q 454 1415 434 1427 q 564 1359 510 1388 q 677 1310 627 1329 z "}}}
